<svg width="167" height="167" viewBox="0 0 167 167" fill="none" xmlns="http://www.w3.org/2000/svg">
<path d="M83.9 32C97.5 32 110.6 37.3 120.3 47C130 56.7 135.3 69.6 135.3 83.4C135.3 97 130 110.1 120.3 119.8C110.6 129.5 97.7 134.8 83.9 134.8C70.3 134.8 57.2 129.5 47.5 119.8C37.8 110.1 32.5 97.2 32.5 83.4C32.5 69.8 37.8 56.7 47.5 47C57.4 37.2 70.2 32 83.9 32ZM83.9 30.3C54.7 30.3 31.1 53.9 31.1 83.1C31.1 112.3 54.7 135.9 83.9 135.9C113.1 135.9 136.7 112.3 136.7 83.1C136.8 53.9 113.1 30.3 83.9 30.3Z" fill="#1B75BB"/>
<path d="M83.9 1.5C95 1.5 105.5 3.7 115.6 8C125.3 12.1 134 18.1 141.6 25.6C149.2 33.2 154.9 41.9 159.2 51.6C163.4 61.7 165.7 72.4 165.7 83.3C165.7 94.4 163.5 104.9 159.2 115C155.1 124.7 149.1 133.4 141.6 141C134 148.6 125.3 154.3 115.6 158.6C105.5 162.8 94.8 165.1 83.9 165.1C72.8 165.1 62.3 162.9 52.2 158.6C42.5 154.5 33.8 148.5 26.2 141C18.6 133.4 12.9 124.7 8.60001 115C4.40001 104.9 2.10001 94.2 2.10001 83.3C2.10001 72.2 4.30001 61.7 8.60001 51.6C12.7 41.9 18.7 33.2 26.2 25.6C33.8 18 42.5 12.2 52.2 8C62.2 3.6 73 1.5 83.9 1.5ZM83.9 0C38 0 0.799988 37.2 0.799988 83.1C0.799988 129 38 166.2 83.9 166.2C129.8 166.2 167 129.1 167 83.1C167.2 37.2 130 0 83.9 0Z" fill="#1B75BB"/>
<path d="M16.7 73.3C15.2 73.2 13.6 74.1 11.9 76.4C12.9 77.5 14 78.6 15.1 79.5C16.6 80.9 17.8 81.6 18.9 81.6C19.7 81.7 20.3 81.5 20.4 80.8C20.5 80.5 20.7 79.8 20.9 78.7C21 77.6 20.8 76.3 19.8 75.3C19 74.1 18 73.4 16.7 73.3ZM18 78.2C17.9 79.2 17.5 79.7 16.9 79.6C16.8 79.6 16.4 79.5 15.9 78.9C15.6 78.6 15.2 78.4 15.1 78.1C16.2 76.7 17.3 76 18.2 75.9C18.1 76.6 18.1 77.5 18 78.2Z" fill="#1B75BB"/>
<path d="M9 72.4L7.29999 74.8C7.39999 75.1 7.8 75.5 8 75.6C8.3 76.1 8.5 76.4 8.5 76.4C8.5 76.7 8 77.4 7 78.5C7.7 79.3 8.39999 80.2 8.79999 80.6C9.49999 79.9 10.2 79.1 10.5 78.2L9.39999 76.7L11.1 74.3C10.4 73.6 9.8 73 9 72.4Z" fill="#1B75BB"/>
<path d="M13.2 63.7C13.2 63.6 13.2 63 12.9 62.3C12.6 61.6 12.4 61.2 12.2 61.2C10.7 62 9.79999 62.6 9.79999 62.7C9.79999 62.8 9.89999 63.2 10.3 64.1C10.6 64.8 11 65.2 11.1 65.2C11.2 65.2 11.6 65.1 12.2 64.5C12.8 64.2 13.2 63.9 13.2 63.7Z" fill="#1B75BB"/>
<path d="M31.4 43.2L27.8 48.8C26.8 49.3 25.6 49.6 24.2 49.9C24.2 49.2 24.5 48.2 25.6 46.8C26.6 45.3 27.8 44.3 29.4 43.9C28.6 43.4 27.6 43.2 26.2 43.4C24.8 43.7 24 44.2 23.3 45.1C22.8 45.9 22.6 47.2 22.6 48.7C22.7 50.2 23.1 51.4 23.6 52.3C24.1 52.8 24.6 53.1 25 53.3C23.6 55.7 22.6 58.2 21.4 60.9C21.1 62 20.4 63 19.3 63.3C18.2 63.6 17.2 64 16.2 64.3C16.3 64.4 16.7 65 17.3 65.7C18 66.4 18.3 66.7 18.4 66.7C18.4 66.7 18.9 66.6 19.8 66.2C20.6 65.9 21.3 65.7 21.6 65.9C22.3 66 23 67 23.4 69C24.1 70.8 24.2 72.2 23.9 73.1C23.8 73.6 23.4 74.1 22.9 74.8C22.4 75.3 22.1 75.6 22.1 75.6C22.1 75.7 22.1 75.7 22.1 75.7L22.4 75.8C23.1 75.5 23.9 74.8 25.1 73.6C26.1 72.5 26.8 71.5 26.9 70.9C27.2 69.9 26.9 68.7 25.9 67.5C25.1 66.7 24.2 65.8 23.4 64.8L23.3 64.7C23.6 64.4 23.8 64 24 63.7V63.4C26.5 57.6 29.6 52.2 33 47L31.4 43.2Z" fill="#1B75BB"/>
<path d="M19.9 46.2C20.6 45.9 21 45.7 21.3 45.7C21.4 44 21.3 43.2 21.2 42.8C19.4 43.1 18.5 43.5 18.3 43.6C18.4 45.4 18.6 46.3 18.8 46.5C18.7 46.4 19.1 46.4 19.9 46.2Z" fill="#1B75BB"/>
<path d="M40.7 32.4L40.6 32.3L35.8 36.5C35.5 36.8 35.8 37.6 36.6 39.2C36.7 39.2 37.1 39.2 37.1 39.1L41.6 35C41.6 35 41.6 34.7 41.5 34.3C41.1 33.3 40.8 32.6 40.7 32.4Z" fill="#1B75BB"/>
<path d="M73.3 22.9C73.4 22.9 73.4 22.9 73.4 22.8C73.9 22.7 74.2 22 74.4 21.1C74.6 20.2 74.5 19.6 74.4 19C73.9 16.8 70.8 14.8 65.4 12.8C65.3 14.2 65.1 14.9 65.1 15C65.1 15.5 65.1 15.8 65.1 16C65.1 16 64.8 17 64.3 18.7C64 19.8 63.8 20.8 63.6 21.6C61.1 22.4 58.7 23.3 56.3 24.3C55.3 25 54.2 25 53.2 24.6C52.2 24.1 51.4 23.6 50.3 23.1C50.3 23.2 50.3 23.9 50.2 24.8C50.2 25.6 50.2 26.3 50.2 26.3C50.2 26.3 50.7 26.4 51.6 27C52.4 27.3 53 27.7 53.1 28C53.4 28.7 53.1 29.8 52.3 31.6C51.5 33.4 50.6 34.5 49.8 34.8C49.3 35.1 48.7 35.1 47.7 35.1C46.9 35.1 46.6 35.1 46.6 35.1C46.5 35.1 46.5 35.2 46.5 35.2L46.6 35.5C47.3 35.8 48.4 35.8 50 35.8C51.6 35.8 52.7 35.5 53.2 35.1C54.2 34.6 54.7 33.6 54.9 31.9C54.9 30.8 54.9 29.4 54.9 28.1V28C55.4 28 55.9 27.9 56 27.9L56.1 27.8C62 25.8 67.6 24.3 73.3 22.9ZM70.2 19.1C70.3 18.8 70.3 18.6 70.5 18.6C71.2 18.7 71.9 19.1 72.6 20.1L71.1 20.4C71 20.4 70.8 20.4 70.4 20.3C70.3 20.2 70.1 20 70.1 19.8C70 19.6 70.2 19.5 70.2 19.1ZM66.6 18.3C66.9 18.3 67.3 18.3 67.6 18.4C67.9 18.5 68.3 18.9 68.3 19.1C68.3 19.2 68.2 19.6 68 19.9C67.7 20.2 67.3 20.6 67.2 20.6C67.1 20.6 66.7 20.6 66.2 20.6C65.7 20.5 65.4 20.3 65.4 20.1C65.8 19.1 66.2 18.4 66.6 18.3Z" fill="#1B75BB"/>
<path d="M77.9 11.5C78.6 12 78.9 12.2 79 12.2C80.4 11.4 81.1 10.8 81.1 10.5C81.1 10.5 80.8 10.2 80.1 9.5C79.4 9 79.1 8.7 79 8.7C78.9 8.7 78.5 9 78 9.7C77.5 10.4 77.2 10.7 77.2 10.8C77 10.8 77.3 11.1 77.9 11.5Z" fill="#1B75BB"/>
<path d="M82.1 16.6C81.6 15.9 81 15.1 79.7 14.2C79.2 15.6 78.9 16.6 78.7 17.3C80.5 19 81.4 20 81.4 20.4C81.4 21.1 80.7 22.1 79.3 23.5C77.9 24.6 76.9 25.3 76.1 25.6C75.6 25.6 74.6 25.5 73.2 24.9H73C73 25 73 25 73 25.2C73 25.7 73.8 26.2 75.7 26.7C77.4 27.2 78.4 27.5 79.1 27.4C80.2 27.4 81.3 26.4 82.2 24.3C82.9 22.6 83.2 21.1 83.2 19.7C83.1 18.4 82.7 17.4 82.1 16.6Z" fill="#1B75BB"/>
<path d="M84.5 8.4C85.9 7.6 86.9 7.3 87.7 7.3C88 7 88.2 6.6 88.4 6.5C86.6 6.5 85.5 6.4 85.2 5.8C85.7 5.5 85.9 5.5 86 5.5C86 5.5 86.1 5.6 86.8 6C87.1 5.5 87.3 5.2 87.3 5.2C87.3 5.1 87.2 4.9 87 4.7C86.9 4.6 86.7 4.6 86.5 4.6C86 4.6 85.5 4.7 85 5.3C84.5 5.8 84.3 6.3 84.3 6.8C84.3 6.9 84.4 6.9 84.8 7.1C85.1 7.1 85.3 7.2 85.6 7.2C85.5 7.3 85.1 7.5 84.9 7.7C84.7 8 84.5 8.2 84.5 8.4Z" fill="#1B75BB"/>
<path d="M97.5 10.4C97 9.89999 96.7 9.4 96.8 9C96.8 9 96.8 8.9 96.8 8.7C95.1 10.4 94.3 11.2 94.3 11.6C94.3 11.6 94.4 11.7 94.6 12.3C94.7 12.8 94.7 13.1 94.7 13.7C94.6 14.7 94.2 15.5 93.7 16.1C93.2 15 92 13.4 90.5 11.5C88.7 9.4 87.3 8.3 86.4 8.3H86.3C85.3 9.7 84.8 10.8 84.6 11.5C84.5 12.2 84.7 12.9 85.4 13.3C86.9 14.4 88.1 15.4 89 15.8C89 15.8 89.1 15.7 89.5 15.5C89.6 15.4 89.8 15.2 89.8 15.2C89.9 15.2 90.3 15.5 90.8 16.3C91.3 17 91.6 17.3 91.6 17.7C91.6 18.1 90.9 18.4 90.1 18.7C89.6 18.8 89 19 88 19.2C87.3 20.6 86.9 21.6 86.5 22.3L94.4 23.3C94.7 22.3 94.9 21.5 94.9 20.9C95 20.1 94.8 18.8 94.2 17.3C95.2 16.5 96 15.2 96.6 13.9C96.7 14 97.1 14 97.4 14.2C97.7 13.9 97.9 13.5 98.2 13.4C98.5 13.1 98.7 12.7 98.7 12.4C98.7 12.3 98.7 12.3 98.7 11.9C98.7 11.8 98.7 11.6 98.7 11.6C98.4 11.1 98.1 10.8 97.5 10.4ZM92.8 20.2C92.1 20.2 91.7 20.1 91.1 19.9C91.8 19.6 92.2 19.2 92.6 18.9C92.9 19.4 93.1 19.9 93.1 20.3L92.8 20.2Z" fill="#1B75BB"/>
<path d="M102.3 15.6L100.8 25.1C102.3 24.1 103.3 22.7 103.9 20.6C104.4 18.9 104.9 16.1 105.6 12.2C104 13.5 103 14.5 102.3 15.6Z" fill="#1B75BB"/>
<path d="M118.2 18.3C119 19.7 119.6 20.5 119.7 20.5C119.8 20.5 120.2 20.5 120.8 20.2C121.5 20.1 121.8 19.9 122.2 19.7L120.7 17.3C119.3 17.4 118.6 17.6 118.6 17.6C118.3 17.5 117.9 16.8 117.2 15.4C115.8 15.9 115 16.1 114.7 16.2C115.2 17.3 115.7 18 116.2 18.6C117.3 18.4 117.9 18.3 118.2 18.3Z" fill="#1B75BB"/>
<path d="M142 51.2C142.3 50.7 142.8 50.2 143.1 49.7C143.2 49.6 143.6 49.2 143.8 49C143.9 48.7 143.9 48.5 143.8 48.2C143.3 47.5 142.4 47.1 141.3 46.5C140.2 45.9 139.1 45.8 138.2 46C136.8 46.1 136.1 46.3 136 46.3C136 46.3 132.2 41.5 132.1 41.5C132.4 41.4 132.9 41.4 133.2 41.2C133.7 41.1 134 40.9 134.2 40.7C134.7 40.2 135 39.3 134.9 38.3C134.8 37.3 134.4 36.6 133.8 35.9C132.8 34.9 132 34.4 130.9 34.4C130.4 34.4 129.4 34.7 127.8 35.2C128.3 35.5 128.6 35.9 128.6 35.9C129.3 36.6 129.4 37.4 129.3 38.4C126.4 35.7 123.5 33.1 120.3 30.5C119.6 30.2 119.3 29.7 119.5 29.1C119.6 28.3 120 26.9 120.6 25C121.4 22.8 122 21.4 122.1 20.8L122 20.7L118.9 22.5C118.9 22.8 118.8 23 118.8 23.3C117.7 23.3 116.3 23.3 115 23.3C114.2 23.3 113.3 23.6 112.8 24C112.1 24.3 111.3 25.1 109.9 26.5L114.1 29.9C114.2 30 114.8 29.9 115.5 29.6C116.3 29.1 116.9 28.9 117 28.8C116.9 29.5 116.7 30.2 116.7 30.6C116.7 31.4 116.8 32 117.4 32.3C120.8 34.8 124 37.6 127.2 40.7C128 40.6 128.6 40.4 128.9 40.4C128.8 41.1 128.6 41.8 128.4 42.1L133 47.6C133.1 47.7 133.5 47.7 134.1 47.7C134.8 47.7 135.2 47.7 135.5 47.7C136.2 51.1 136.5 52.9 136.3 53C137 53 137.7 53 138.4 53C139.4 53 139.9 52.9 140.2 52.7C141.2 52.5 141.7 51.9 142 51.2ZM115.2 25.7C115.7 25.6 116.2 25.6 116.6 25.6C117.4 25.5 118.1 25.3 118.4 24.9L117.6 27.4L115.2 25.7ZM139.9 49.7L139.6 47.3C140.1 47.6 140.6 47.8 140.7 48.1V48.2C140.3 49 140 49.4 139.9 49.7Z" fill="#1B75BB"/>
<path d="M141.7 72.4C141 71.9 140.6 71.6 140.3 71.6C140.2 71.6 140 72.1 139.6 73.1C139.3 74.1 139.1 74.6 139.1 74.8C139.1 75 139.6 75.3 140.2 75.8C141 76.3 141.6 76.6 141.7 76.6L142.8 73.5C142.9 73.4 142.4 73 141.7 72.4Z" fill="#1B75BB"/>
<path d="M150.7 67.9C150.2 67.6 149.3 67.2 148.2 66.5H148.1C148.8 67.2 149.1 67.9 149.2 68.7C149.2 69 149.2 69.7 148.9 70.5C148.8 71.2 148.6 71.6 148.2 72.3C147.9 71.8 147.5 70.9 147.4 69.8C146.4 66 145.2 62.1 143.6 58.3C143.5 57.8 143.5 57.5 143.6 57.3C144.4 56.6 146 55.6 148.1 54.4C149.6 53.6 151.3 52.7 152.9 51.7C152.8 51.6 152.1 51.6 151.2 51.2C150.2 51.1 149.7 50.9 149.5 51.1L139.4 57.1C141.5 61.2 143.2 65.5 144.2 70C144.2 70.3 144.7 71 145.6 72.1C146.4 73.1 146.7 73.9 147 74.8C147 74.9 147.1 76.6 147.5 79.4L150.6 80.9C150.7 79.4 150.7 78.2 150.9 77.5C150.9 77 151.4 75.7 152 73.6C152.5 71.9 152.7 70.7 152.7 69.7C152.3 69.3 151.7 68.6 150.7 67.9Z" fill="#1B75BB"/>
<path d="M13.3 107.1L12.8 105.3L14.5 104.2L13.7 101L11.6 100.9L11.1 99.2L20.4 100L20.9 101.7L13.3 107.1ZM15.9 103.1L18.6 101L15.2 100.7L15.9 103.1Z" fill="#1B75BB"/>
<path d="M14 108.8L21.9 105.6L22.6 107.1L16.1 109.8L17.8 113.7L16.4 114.2L14 108.8Z" fill="#1B75BB"/>
<path d="M19.1 114.9L20.6 114.2L22.1 117.1L20.6 117.8L19.1 114.9Z" fill="#1B75BB"/>
<path d="M23.6 126.9L22.6 125.4L23.7 123.7L21.9 120.8L19.8 121.3L18.8 119.8L27.8 118L28.8 119.5L23.6 126.9ZM24.8 122.4L26.9 119.7L23.7 120.4L24.8 122.4Z" fill="#1B75BB"/>
<path d="M24.3 127.7L25.4 126.7H32.6L30.1 123.6L31.2 122.8L35.1 127.6L34.1 128.4H26.5L29.6 132.2L28.5 133L24.3 127.7Z" fill="#1B75BB"/>
<path d="M30 134.6L36 128.4L37.1 129.5L34.7 131.9L37.1 134.3L39.5 131.9L40.6 133L34.6 139.2L33.5 138.1L36 135.4L33.6 133L31.1 135.7L30 134.6Z" fill="#1B75BB"/>
<path d="M43.2 145.7L41.7 144.6L42.2 142.5L39.5 140.4L37.8 141.5L36.3 140.5L44.2 135.6L45.7 136.6L43.2 145.7ZM42.7 141L43.7 137.8L40.8 139.6L42.7 141Z" fill="#1B75BB"/>
<path d="M44.9 146.7L49 139.1L52.2 140.8C53 141.3 53.6 141.6 53.9 141.9C54.2 142.2 54.4 142.6 54.4 143C54.4 143.5 54.4 143.8 54.1 144.4C53.8 144.9 53.4 145.2 53 145.5C52.5 145.6 51.9 145.6 51.2 145.4C51.3 145.7 51.5 146.1 51.7 146.4C51.8 146.7 51.8 147.2 51.8 148.1L51.9 150.2L50.1 149.2L50 147C50 146.2 49.9 145.6 49.9 145.5C49.9 145.4 49.8 145.2 49.6 145C49.4 144.8 49.3 144.7 48.9 144.5L48.6 144.4L46.9 147.5L44.9 146.7ZM48.8 143L49.9 143.7C50.6 144 51 144.4 51.3 144.4C51.4 144.4 51.6 144.4 52 144.4C52.1 144.3 52.3 144.3 52.5 143.9C52.6 143.8 52.6 143.4 52.6 143.2C52.6 143.1 52.5 142.7 52.3 142.5C52.2 142.5 51.8 142.2 51.3 141.8L50.2 141.1L48.8 143Z" fill="#1B75BB"/>
<path d="M59.6 144.4L61.3 144.9L59.8 149.4C59.7 150.1 59.5 150.5 59.5 150.8C59.5 151.1 59.5 151.5 59.6 151.8C59.7 152.1 60.1 152.3 60.6 152.5C61.1 152.6 61.4 152.6 61.7 152.5C62 152.4 62.2 152.2 62.4 152C62.5 151.9 62.7 151.3 62.9 150.6L64.4 146.1L66.1 146.6L64.7 150.8C64.4 151.8 64 152.5 63.9 152.9C63.8 153.3 63.4 153.6 63.1 153.7C62.8 153.8 62.4 154 62 154C61.6 154 61 154 60.3 153.7C59.5 153.4 58.9 153.2 58.6 152.9C58.3 152.6 58.1 152.2 57.9 151.9C57.8 151.6 57.8 151.2 57.8 150.9C57.8 150.4 57.9 149.8 58.3 148.8L59.6 144.4Z" fill="#1B75BB"/>
<path d="M66.1 155.5L67.8 147.1L69.5 147.4L71.7 153.7L72.8 148.1L74.3 148.4L72.6 156.8L70.9 156.5L68.7 150.3L67.7 155.8L66.1 155.5Z" fill="#1B75BB"/>
<path d="M75.1 157L75.9 148.4L77.6 148.5L76.8 157.1L75.1 157Z" fill="#1B75BB"/>
<path d="M81.4 157.6L78.5 148.9H80.3L82.4 155.2L84.6 148.9H86.4L83.2 157.5L81.4 157.6Z" fill="#1B75BB"/>
<path d="M88.1 157.6L87.3 149L93.6 148.3L93.7 149.7L89.1 150.2L89.2 152L93.4 151.7L93.5 153.1L89.3 153.4L89.4 155.8L94.2 155.3L94.3 156.7L88.1 157.6Z" fill="#1B75BB"/>
<path d="M97 156.6L95.2 148.2L98.8 147.4C99.6 147.3 100.3 147.1 100.9 147.3C101.4 147.3 101.7 147.4 102 147.8C102.3 148.1 102.5 148.5 102.7 148.9C102.8 149.6 102.7 150 102.6 150.6C102.3 151.1 101.8 151.4 101.1 151.7C101.4 151.8 101.8 152 102.1 152.2C102.4 152.3 102.8 152.7 103.2 153.3L104.6 154.7L102.5 155.2L100.8 153.7C100.3 153.2 99.8 152.9 99.7 152.7C99.6 152.6 99.4 152.6 99.2 152.6C99.1 152.6 98.7 152.6 98.4 152.7H98.1L98.9 156.1L97 156.6ZM97.5 151.4L98.6 151.1C99.4 151 100 150.8 100.1 150.6C100.2 150.4 100.4 150.3 100.4 150.1C100.4 150 100.5 149.8 100.4 149.4C100.4 149.1 100.3 148.9 100.1 148.7C99.9 148.5 99.8 148.6 99.4 148.6C99.3 148.6 98.9 148.7 98.3 148.7L96.9 149L97.5 151.4Z" fill="#1B75BB"/>
<path d="M104.8 152L106.3 151.3C106.6 151.8 107 152.1 107.3 152.3C107.6 152.5 108.1 152.4 108.7 152.3C109.3 152.2 109.5 151.8 109.7 151.6C109.8 151.3 109.8 150.9 109.8 150.8C109.8 150.7 109.7 150.5 109.5 150.5C109.4 150.4 109.2 150.4 108.8 150.4C108.7 150.4 108.1 150.4 107.4 150.5C106.4 150.6 105.7 150.5 105.3 150.4C104.6 150.1 104.3 149.7 103.9 149C103.8 148.7 103.8 148.2 103.9 147.9C104 147.4 104.2 147.1 104.6 146.8C104.9 146.5 105.4 146.1 106.1 146C107.1 145.7 107.9 145.7 108.6 145.9C109.3 146.2 109.7 146.6 110 147.4L108.7 147.9C108.6 147.6 108.2 147.2 107.9 147.2C107.6 147.1 107.2 147.2 106.8 147.3C106.3 147.4 106 147.6 105.8 148C105.7 148.1 105.7 148.3 105.8 148.5C105.8 148.6 105.9 148.8 106.1 148.8C106.4 148.9 106.9 148.9 107.8 148.8C108.6 148.7 109.3 148.7 109.9 148.8C110.4 148.8 110.7 148.9 111 149.3C111.3 149.6 111.7 150 111.8 150.4C111.9 150.9 111.9 151.4 111.8 151.8C111.7 152.3 111.5 152.6 111.1 153.2C110.8 153.8 110.1 153.9 109.4 154C108.4 154.3 107.6 154.3 106.9 154.1C105.8 153.4 105.4 152.8 104.8 152Z" fill="#1B75BB"/>
<path d="M114.2 151.3L110.6 143.4L112.1 142.7L115.7 150.6L114.2 151.3Z" fill="#1B75BB"/>
<path d="M119.7 148.5L116.3 142.3L114.1 143.4L113.4 142.3L119.4 139.1L120.1 140.2L117.9 141.3L121.3 147.5L119.7 148.5Z" fill="#1B75BB"/>
<path d="M126.9 144.1L124.8 141.2L119.3 139L121 137.9L124.6 139.4L124.3 135.5L125.8 134.4L126.1 140.2L128.2 143.1L126.9 144.1Z" fill="#1B75BB"/>
<path d="M133 136.3L131.9 135.2L134.3 133L135.4 134.1L133 136.3Z" fill="#1B75BB"/>
<path d="M140.7 126.6L139.6 125.8L141.8 122.9L144.5 125C144.5 125.5 144.5 126 144.4 126.8C144.3 127.5 143.9 128.2 143.4 128.6C142.9 129.3 142.3 129.7 141.6 130.1C140.9 130.4 140.2 130.4 139.4 130.2C138.7 130.1 137.9 129.7 137.3 129.2C136.6 128.7 136.2 128.1 135.8 127.4C135.4 126.7 135.5 125.9 135.5 125.2C135.6 124.5 135.8 124.1 136.3 123.4C137 122.6 137.7 122 138.4 121.9C139.1 121.8 139.8 121.8 140.6 122L139.8 123.5C139.5 123.4 139 123.4 138.7 123.5C138.4 123.6 138 123.8 137.7 124.2C137.2 124.9 137 125.3 137.2 126C137.4 126.7 137.7 127.1 138.3 127.8C139.1 128.5 139.8 128.6 140.5 128.6C141.2 128.6 141.6 128.3 142.2 127.6C142.3 127.3 142.5 126.9 142.7 126.6C142.8 126.3 142.8 125.9 142.8 125.6L142 124.9L140.7 126.6Z" fill="#1B75BB"/>
<path d="M150.7 116.6L149.9 118.3L147.8 118L146.1 120.9L147.5 122.4L146.7 123.9L140.9 116.9L141.7 115.4L150.7 116.6ZM146.2 117.8L142.8 117.3L145 119.8L146.2 117.8Z" fill="#1B75BB"/>
<path d="M151.1 115.8L149.7 115.1L146.3 108.8L144.8 112.4L143.4 111.9L145.8 106.1L146.9 106.6L150.3 113.2L152.2 108.8L153.6 109.3L151.1 115.8Z" fill="#1B75BB"/>
<path d="M156.8 100.1L156.3 101.9L154.2 102L153.2 105.2L154.9 106.3L154.4 108L147.1 102.4L147.6 100.7L156.8 100.1ZM152.7 102L149.3 102.1L152 104.2L152.7 102Z" fill="#1B75BB"/>
<path fill-rule="evenodd" clip-rule="evenodd" d="M115.2 82.1C114.7 85.5 115.1 89.3 111.8 91.4C109.6 92.5 107.9 92.4 106.6 91.3C104.5 92 103 91 101.8 88.9C100.8 85.8 101.7 83.3 102.6 80.7C102.7 81.8 103.3 83.2 104.4 83.9C105.8 84.9 107.1 85.7 107.3 87.3C108 86.5 109 86.2 110.5 85.9C112.8 85.7 114.1 83.9 115.2 82.1ZM114.8 72.7C114.9 75.8 115.6 79 113.3 81.4C111.6 82.8 110.1 82.9 108.8 82.1C107.1 82.9 105.4 82.4 104 80.7C102.5 78.2 102.9 76.2 103.3 73.8C103.6 74.8 104.7 75.9 105.8 76.2C107.2 76.7 108.5 76.9 108.9 78.3C109.2 77.5 110 76.9 111.4 76.6C113.2 76.2 114.1 74.4 114.8 72.7ZM112.4 63C113.2 65.9 114.6 69 112.7 71.7C111.3 73.4 110 73.9 108.6 73.2C107.2 74.3 105.4 74.2 103.7 73.1C101.9 71 101.6 69.2 101.5 66.6C102.2 67.6 103.2 68.3 104.6 68.4C106.1 68.7 107.3 68.5 108 69.8C108.1 69 108.8 68.3 110.1 67.6C111.7 66.5 112.1 64.8 112.4 63ZM108.2 55C109.3 57.5 111.1 59.9 109.9 62.7C108.9 64.4 107.7 65.1 106.5 64.8C105.5 66.2 103.8 66.2 102 65.5C99.9 64 99.5 62.3 99.1 60C99.8 60.7 100.9 61.1 102.2 61.1C103.6 61.1 104.7 60.8 105.4 61.8C105.4 61 105.9 60.3 106.9 59.6C108.2 58.5 108.5 56.8 108.2 55ZM98.1 52.5C101.7 53.2 104.3 54.7 104.6 57.7C104.7 58.5 104.6 59.4 104.9 60.1C102.8 59.8 101 59.1 99.6 57.6C98.4 56.3 98.2 54.3 98.1 52.5ZM113.7 91.4C112.9 95.2 112.7 99.3 108.9 101.1C106.4 102.1 104.4 101.8 103.3 100.3C100.9 100.6 99.4 99.5 98.1 97.1C97.3 93.5 98.6 90.8 99.9 88.1C100 89.5 100.2 91 101.6 91.9C103.1 93 104.5 94.3 104.3 96C105.1 95.2 106.4 94.9 107.9 95C110.9 94.9 112.4 93.2 113.7 91.4Z" fill="#1B75BB"/>
<path fill-rule="evenodd" clip-rule="evenodd" d="M49.5 82.1C50 85.5 49.8 89.3 52.9 91.4C55.1 92.5 56.8 92.4 58.1 91.3C60.2 92 61.7 91 62.9 88.9C63.9 85.8 63 83.3 62.1 80.7C62 81.8 61.4 83.2 60.3 83.9C58.9 84.9 57.6 85.7 57.4 87.3C56.7 86.5 55.7 86.2 54.3 85.9C51.9 85.7 50.8 83.9 49.5 82.1ZM50.1 72.7C50 75.8 49.1 79 51.6 81.4C53.3 82.8 54.8 82.9 56.1 82.1C57.8 82.9 59.5 82.4 60.9 80.7C62.4 78.2 62 76.2 61.6 73.8C61.3 74.8 60.2 75.9 59.1 76.2C57.7 76.7 56.4 76.9 56 78.3C55.7 77.5 54.9 76.9 53.5 76.6C51.6 76.2 50.8 74.4 50.1 72.7ZM52.5 63C51.7 65.9 50.3 69 52.2 71.7C53.6 73.4 54.9 73.9 56.3 73.2C57.7 74.3 59.5 74.2 61.2 73.1C63 71 63.3 69.2 63.4 66.6C62.7 67.6 61.7 68.3 60.3 68.4C58.8 68.7 57.6 68.5 56.9 69.8C56.8 69 56.1 68.3 54.8 67.6C53.2 66.5 52.6 64.8 52.5 63ZM56.6 55C55.5 57.5 53.7 59.9 54.9 62.7C55.9 64.4 57.1 65.1 58.3 64.8C59.4 66.2 61 66.2 62.8 65.5C64.9 64 65.3 62.3 65.7 60C65 60.7 63.9 61.1 62.6 61.1C61.2 61.1 60.1 60.8 59.4 61.8C59.4 61 58.9 60.3 57.9 59.6C56.6 58.5 56.6 56.8 56.6 55ZM66.9 52.5C63.3 53.2 60.7 54.7 60.4 57.7C60.3 58.5 60.3 59.4 60.1 60.1C62.2 59.8 64 59.1 65.4 57.6C66.4 56.3 66.6 54.3 66.9 52.5ZM51.1 91.4C51.9 95.2 52.1 99.3 56 101.1C58.5 102.1 60.5 101.8 61.6 100.3C64 100.6 65.5 99.5 66.8 97.1C67.6 93.5 66.3 90.8 65 88.1C64.9 89.5 64.7 91 63.3 91.9C61.9 93 60.4 94.3 60.6 96C59.8 95.2 58.5 94.9 57 95C54.2 94.9 52.5 93.2 51.1 91.4Z" fill="#1B75BB"/>
<path d="M93.7 50.5C93.8 50.6 93.8 50.8 94 51L94.5 50.7C94.4 50.6 94.4 50.4 94.2 50.2L93.7 50.5Z" fill="#1B75BB"/>
<path d="M71 50.7L70.5 50.4C70.4 50.5 70.4 50.7 70.2 50.9L70.7 51.2C70.9 51.1 71 50.8 71 50.7Z" fill="#1B75BB"/>
<path d="M96.1 45.5C96.2 45.4 96.2 45.2 96.1 45.2C96 45.1 95.8 45.1 95.8 45.2L92.6 48.1C92.1 47.6 91.6 47.1 90.9 46.6L93.4 43C93.5 42.9 93.4 42.7 93.4 42.7C93.3 42.6 93.1 42.7 93.1 42.7L90.6 46.1C89.9 45.6 89.2 45.3 88.5 45L90.2 41.1C90.2 41 90.2 40.8 90.1 40.8C90 40.8 89.8 40.8 89.8 40.9L88.1 44.8C87.4 44.5 86.6 44.3 85.9 44.1L86.7 40C86.7 39.9 86.7 39.7 86.6 39.7C86.5 39.7 86.3 39.7 86.3 39.8L85.5 43.9C84.8 43.8 84 43.8 83.1 43.8V39.6C83.1 39.5 83 39.3 82.8 39.3C82.7 39.3 82.5 39.4 82.5 39.6V43.7C81.7 43.7 81 43.8 80.1 43.8L79.3 39.7C79.3 39.6 79.2 39.6 79 39.6C78.8 39.6 78.9 39.7 78.9 39.9L79.7 44C78.9 44.1 78.2 44.5 77.5 44.7L75.8 40.8C75.8 40.7 75.7 40.7 75.5 40.7C75.4 40.7 75.4 40.8 75.4 41L77.1 44.9C76.4 45.2 75.7 45.6 75 46L72.5 42.6C72.4 42.5 72.2 42.5 72.2 42.6C72.1 42.7 72.1 42.9 72.2 42.9L74.7 46.3C74 46.8 73.6 47.3 73 47.8L69.8 44.9C69.7 44.8 69.5 44.8 69.5 44.9C69.4 45 69.4 45.2 69.5 45.2L72.7 48.1C72.2 48.8 71.9 49.2 71.3 49.9L71.8 50.2C72.1 49.5 72.6 49.1 72.9 48.4C73 48.3 73 48.1 73.2 47.9C73.7 47.4 74.2 46.9 74.7 46.4C74.8 46.3 75 46.3 75.2 46.1C75.9 45.6 76.3 45.3 77 45C77.1 45 77.3 44.9 77.5 44.9C78.2 44.6 78.9 44.4 79.6 44.2C79.7 44.2 79.9 44.1 80.1 44.1C80.8 44 81.6 44 82.3 44C82.4 44 82.4 44 82.6 44C82.8 44 82.7 44 82.9 44C83.6 44 84.4 44.1 85.1 44.1C85.2 44.1 85.4 44.1 85.6 44.2C86.3 44.3 87 44.5 87.7 44.9C87.8 44.9 88 45 88.2 45C88.9 45.3 89.6 45.7 90 46.1C90.1 46.2 90.3 46.2 90.5 46.4C91 46.9 91.6 47.4 92 47.9C92.1 48 92.1 48.2 92.3 48.4C92.8 48.9 93.1 49.5 93.4 50.2L93.9 49.9C93.6 49.2 93.1 48.5 92.5 48.1L96.1 45.5Z" fill="#1B75BB"/>
<path d="M98.4 48.1C98.4 48 98.3 48 98.1 48L94.3 50.2C94.4 50.3 94.4 50.5 94.6 50.7L98.4 48.5C98.5 48.4 98.5 48.3 98.4 48.1Z" fill="#1B75BB"/>
<path d="M66.4 48.3C66.4 48.4 66.4 48.6 66.5 48.6L70.3 50.8C70.4 50.7 70.4 50.5 70.6 50.3L66.8 48.1C66.6 48.1 66.4 48.1 66.4 48.3Z" fill="#1B75BB"/>
<path d="M82.5 46.6C81 49.3 79.3 50.2 82.5 53.1C83.4 51.1 85.7 50.5 82.5 46.6Z" fill="#1B75BB"/>
<path d="M69.5 62.3L67.8 63.2V81.8L69.5 80.7V62.3Z" fill="#1B75BB"/>
<path d="M95.3 62.3V80.7L97 81.8V63.2L95.3 62.3Z" fill="#1B75BB"/>
<path d="M79.6 79.4C80.4 79.4 81.3 79.5 82.5 79.9C83.6 79.6 84.6 79.4 85.4 79.4C88.3 79.4 89.6 81.5 92.6 81.5C93.3 81.5 94.1 81.4 95.1 81V80.5V62.9V62.4C94.1 62.5 93.4 62.7 92.7 62.7C89.6 62.7 89.3 60.3 85.4 60.3C85.1 60.3 84.7 60.3 84.6 60.3V53.3H83.1C83.2 53.4 83.1 53.8 83 54.1C82.9 54.2 82.7 54.6 82.9 54.9C82.8 54.8 82.6 54.4 82.8 54.1C82.9 54 82.8 53.6 82.7 53.3H81.2V60.3C80.9 60.3 80.5 60.3 80.4 60.3C76.5 60.3 76.3 62.7 73.1 62.7C72.4 62.7 71.7 62.6 70.7 62.4V62.9V80.3V80.8C71.7 81.1 72.5 81.3 73.2 81.3C75.3 81.3 76.6 79.4 79.6 79.4ZM89.1 62.2C89.9 62.7 90.9 63.3 92.7 63.3C93.2 63.3 93.8 63.3 94.5 63.2V80.5V80.6C93.8 80.7 93.1 80.9 92.4 80.9C91 80.9 90 80.4 89 79.9C88 79.3 86.8 78.9 85.2 78.9C84.5 78.9 83.7 79 82.8 79.2V62.9V62.4V61.3C83.6 61.2 84.5 61.2 85.2 61.2C87.1 60.9 88.1 61.5 89.1 62.2ZM70.3 80.3V63C71 63.1 71.7 63.1 72.1 63.1C73.8 63.1 74.6 62.6 75.7 62C76.7 61.3 77.5 60.9 79.5 60.9C80.2 60.9 81 60.9 81.9 61V62.1V62.6V79C81.1 78.7 80.2 78.7 79.5 78.7C78 78.7 76.8 79.2 75.7 79.7C74.7 80.2 73.6 80.7 72.3 80.7C71.7 80.7 71.3 80.6 70.3 80.3Z" fill="#1B75BB"/>
<path d="M94.4 81.3C93.7 81.4 93 81.6 92.3 81.6C90.9 81.6 89.9 81.1 88.9 80.6C87.9 80.1 86.7 79.6 85.1 79.6C84.4 79.6 83.6 79.7 82.7 79.9L82.2 80L81.7 79.9C80.9 79.8 80.2 79.6 79.3 79.6C77.8 79.6 76.6 80.1 75.5 80.6C74.5 81.2 73.4 81.6 72.1 81.6C71.4 81.6 71 81.5 70.3 81.3C70.2 81.3 70 81.2 69.8 81.2L68 82.3C68.5 82.6 69.1 82.8 69.8 83C70.8 83.3 71.6 83.5 72.3 83.5C75.2 83.5 76.5 81.4 79.5 81.4C80.3 81.4 81.2 81.5 82.4 81.9C83.5 81.6 84.5 81.4 85.3 81.4C88.2 81.4 89.5 83.5 92.5 83.5C93.2 83.5 94 83.4 95 83C95.7 82.9 96.1 82.5 96.8 82.3L95 81.2C94.7 81.1 94.6 81.3 94.4 81.3Z" fill="#1B75BB"/>
<path d="M82.5 85.7C74.5 85.7 67.8 92.2 67.8 100.4C67.8 102.9 68.5 105.2 69.5 107.3C71.9 111.9 76.8 115 82.4 115C88 115 92.8 111.9 95.2 107.3C96.3 105.2 96.9 102.8 96.9 100.3C97 92.2 90.5 85.7 82.5 85.7ZM78.6 109.1V111.5H76.1V109.1V109C76.1 108.3 76.6 107.9 77.2 107.9C78 107.8 78.6 108.2 78.6 109.1ZM86 104.7V105.7H78.7V104.7L79.5 104.4V104.3H80.9H83.6H85.3V104.4L86 104.7ZM82.5 109.5H81.4V111.1H80.4V109.4V109V108.3H82.6V109.5H82.5ZM88.7 109.1V111.5H86.2V109.1V109C86.2 108.3 86.7 107.9 87.3 107.9C88.1 107.8 88.7 108.2 88.7 109.1ZM95.3 105.7H87.7V104.7L88.5 104.4V103.4L87.7 103.3V101.9L88.5 101.6V100.5L87.7 100.4V96.6L88.5 96.3V94.9L87.7 94.6V93.8L88.2 93.5L87.5 92.5L87 91.7V89.6H86.7V91.4L86.2 92.1L85.5 93.1L86 93.4V94.4L85.3 94.7V96L86 96.3V100.2L85.3 100.3V101.4L86 101.7V103L85.3 103.1V103.2L84.5 102.7C84.5 102.6 84.5 102.4 84.5 102C84.5 100.9 83.7 99.9 82.4 99.8V99.3L82.7 99.2V99L82.4 98.9V98.2H82.5V97.9L82.2 97.8V96.8H82.1V97.9L81.8 98V98.5H81.9V99.2L81.6 99.3V99.8L81.9 99.9V100.4C80.8 100.5 79.8 101.4 79.8 102.6C79.8 102.7 79.8 103.1 79.9 103.3L79.2 103.6L78.4 103.5V102.1L79.2 101.8V100.7L78.4 100.6V96.8L79.2 96.5V95.1L78.4 94.8V94L78.9 93.7L78.2 92.7L77.7 91.9V89.5H77.4V91.3L76.9 92L76.2 93L76.7 93.3V94.3L76 94.6V96L76.7 96.3V100.2L76 100.3V101.4L76.7 101.7V103.2L76 103.3V104.3L76.7 104.4V105.4H69.1C68.4 103.7 68.1 101.8 68.1 99.9C68.1 92.2 74.4 85.9 82.1 85.9C89.8 85.9 96.1 92.2 96.1 99.9C96.5 102 96.1 104 95.3 105.7Z" fill="#1B75BB"/>
<path d="M87.4 126C87.4 126.1 87.4 126.3 87.4 126.3C87.4 126.4 87.4 126.8 87.4 127.1L87.3 127.2H87.1C87.1 127.1 87.1 126.9 87.1 126.5C87.1 126.5 87.1 126.2 87 125.7C86.7 124.7 86.5 124 86.2 123.5C86.1 123.2 85.7 122.8 85.2 122.4V122.3C85.2 122.2 85.2 121.8 85.3 121.3C85.4 120.8 85.6 120.6 85.8 120.5C86.8 121.3 87.3 123 87.5 125.4V126H87.4Z" fill="#1B75BB"/>
<path d="M95.4 124.3C95.4 124.4 95.4 124.8 95.4 125.1C95.4 125.6 95.3 125.8 95.3 125.8C95 125.8 94.6 125.3 93.9 124.3C93.9 124.3 93.8 123.8 93.4 123.2C93.3 122.7 93.1 122.4 92.9 122.4C92.6 122.5 92.2 122.7 92.1 122.7C91.8 122.8 91.4 122.7 91.3 122.7C91 122.6 90.8 122.4 90.8 122C90.7 121.7 90.8 121.2 90.8 120.5C90.9 119.8 91.3 119.5 91.6 119.4C91.9 119.4 92.1 119.4 92.4 119.5C92.5 119.6 92.9 119.8 92.9 120.2C92.9 120.2 93 120.7 93.6 121.7C93.7 122.2 94.1 122.7 94.3 123.1C94.4 123.2 95 123.8 95.4 124.3ZM92.4 121.2C92.3 120.9 92.3 120.7 91.9 120.7C91.8 120.7 91.6 120.6 91.4 120.7C91.1 120.7 91.1 121 91.1 121.4C91.1 121.5 91.2 121.5 91.4 121.5C91.6 121.5 91.7 121.5 91.9 121.5C92.2 121.2 92.4 121.2 92.4 121.2Z" fill="#1B75BB"/>
<path d="M103 121.2C103 121.3 103.1 121.7 103.1 122C103.1 122.5 103.1 122.7 103.1 122.7C102.8 122.7 102.3 122.4 101.6 121.6C101.6 121.6 101.3 121.3 100.9 120.6C100.6 120.1 100.4 119.8 100.2 119.8C99.9 119.9 99.7 120.1 99.4 120.3C99.1 120.5 98.7 120.4 98.6 120.4C98.3 120.3 98.1 120.1 97.9 119.7C97.8 119.4 97.8 118.9 97.8 118.2C97.8 117.5 97.9 117.1 98.5 116.8C98.6 116.7 99 116.7 99.3 116.8C99.6 116.9 99.8 117.1 100 117.3C100 117.3 100.3 117.8 100.8 118.7C101.1 119.2 101.5 119.5 101.8 119.8C101.8 120.5 102.2 120.8 103 121.2ZM99.4 118.6C99.3 118.3 99.1 118.3 98.9 118.1C98.8 118.1 98.6 118.1 98.4 118.1C98.1 118.2 98.1 118.4 98.3 118.8C98.3 118.9 98.4 118.9 98.6 118.9C98.8 118.9 98.9 118.9 99.1 118.8C99.2 118.9 99.4 118.9 99.4 118.6Z" fill="#1B75BB"/>
<path d="M108.5 118C108.6 118.1 108.6 118.3 108.6 118.3C108.7 118.4 108.7 118.8 108.9 119C108.9 119 108.9 119.1 108.8 119.1H108.7C108.6 119 108.6 118.8 108.4 118.6C108.4 118.6 108.3 118.5 107.7 117.9C107 117.2 106.3 116.8 105.9 116.4C105.6 116.3 105.1 116.1 104.4 115.7C104.4 115.7 104.4 115.7 104.3 115.6C104.2 115.5 104.2 115.1 104 114.6C104 114.1 104 113.8 104 113.8C105.1 113.9 106.5 115.2 107.9 117.2L108.5 118Z" fill="#1B75BB"/>
<path d="M113.9 109.8L110.1 113.6L109.6 113.1L113.4 109.3L113.9 109.8Z" fill="#1B75BB"/>
<path d="M119.7 105.8C119.8 105.9 120 105.9 120 105.9C120.1 106 120.3 106.2 120.7 106.4V106.5H120.6C120.5 106.4 120.3 106.4 119.9 106.2C119.9 106.2 119.6 106.1 119.1 105.9C118.3 105.6 117.4 105.2 116.7 105.1C116.4 105.1 115.9 105.1 115.2 105.1H115.1C115 105 114.8 104.8 114.6 104.3C114.3 103.8 114.3 103.6 114.3 103.5C115.4 103.4 117.2 103.8 119.2 105.3L119.7 105.8Z" fill="#1B75BB"/>
<path d="M123.6 99.8C123.7 99.9 123.9 99.9 123.9 100.1C123.8 100.6 123.2 101.1 122.8 101.6C122.3 101.9 122 102.1 121.8 102.1C121.6 102.1 121.7 102.1 121.7 102.1C121.2 102 120.7 101.3 120.3 100C120 100.3 119.8 100.5 119.6 100.7C119.3 100.8 118.9 100.8 118.8 100.8C118.3 100.7 118 99.8 117.7 98.4C117.7 98.3 117.6 97.9 117.6 97.6H117.7C117.8 97.6 118 97.7 118.2 98.1C118.5 98.4 118.5 98.6 118.5 98.6L118.4 99.1C118.4 99.4 118.4 99.6 118.5 99.6C118.5 99.6 119.2 99.3 120 98.8H120.1C120.1 98.8 120.2 98.8 120.2 98.9C120.2 99 120.3 99.4 120.7 100C120.8 100.7 121 100.8 121.2 101C121.3 101.1 121.9 100.7 122.3 99.9C122.3 99.8 122.4 99.8 122.4 99.6C122.4 99.6 122.5 99.6 122.9 99.6C123.5 99.5 123.5 99.5 123.6 99.8Z" fill="#1B75BB"/>
<path d="M125.2 93.3C125.3 93.3 125.5 93.4 125.5 93.4C125.6 93.4 126 93.5 126.2 93.7V93.8C126.2 93.8 126.2 93.9 126.1 93.9C126 93.9 125.8 93.8 125.4 93.8C125.4 93.8 125.1 93.8 124.6 93.7C123.6 93.6 122.8 93.6 122.2 93.7C121.9 93.7 121.4 93.8 120.7 94.2H120.6C120.5 94.2 120.1 94.1 119.8 93.7C119.5 93.3 119.3 93 119.3 93C120.4 92.5 122.2 92.5 124.6 93.1H125.2V93.3Z" fill="#1B75BB"/>
<path d="M121 84.5C121.5 84.5 121.8 84.6 122.1 84.6C122.6 84.7 122.9 85.1 123.1 85.4C123.1 85.7 123.2 85.9 123.1 86.2C123.8 86.2 124.6 86.2 125.8 86.3C126.1 86.3 126.5 86.4 126.5 86.4C126.6 86.4 127 86.5 127.3 86.5V87C127.3 87 127.3 87.1 127.2 87.1C127.1 87.1 126.9 87.1 126.5 87.1C126.5 87.1 126.2 87.1 125.7 87.1C124.7 87.1 123.9 87.2 123.3 87.4C123 87.5 122.5 87.7 121.9 88.1H121.8C121.7 88.1 121.3 88 121 87.6C120.5 87.3 120.3 87.1 120.3 86.9C120.3 86.9 120.4 86.8 120.6 86.6C120.9 86.5 121.1 86.3 121.1 86.3C121.2 86.2 121.2 86 121.2 85.6C121.2 84.9 121.1 84.5 120.5 84.2L120.4 84.1C120.7 84.5 121 84.5 121 84.5Z" fill="#1B75BB"/>
<path d="M40.4 87.7L40.3 86.6L46.1 86.1C45.6 85.8 45.1 85.3 44.7 84.6L46.1 84.5C46.2 84.8 46.6 85.2 46.9 85.5C47.2 85.8 47.7 86 48.3 86.2L48.4 87.2L40.4 87.7Z" fill="#1B75BB"/>
<path d="M41.5 93.3L43 93L42.4 90.5L43.8 90.2L49.4 91.7L49.5 92.7L44.6 93.8L44.7 94.6L43.3 94.9V94.1L41.8 94.4L41.5 93.3ZM44.5 92.7L47.2 92L44.1 91.2L44.5 92.7Z" fill="#1B75BB"/>
<path d="M43.9 100.4L43.4 99.3L48.7 97.1C48 97 47.6 96.6 47 96.1L48.4 95.6C48.7 95.9 49.1 96.1 49.5 96.3C50 96.4 50.5 96.6 51 96.4L51.3 97.4L43.9 100.4Z" fill="#1B75BB"/>
<path d="M48.7 106.4L47.6 107.1L45.4 103.3C45.9 103.2 46.4 103 46.9 103C47.4 103 48.3 103 49.3 103.1C50.1 103.2 50.7 103.2 50.8 103.2C51.1 103.2 51.5 103.1 51.8 103.1C52.1 103 52.3 102.8 52.3 102.4C52.3 102.3 52.3 101.9 52.3 101.7C52 101.2 51.5 101.2 50.8 101.6L50.3 100.5C51 100.2 51.7 100 52.1 100.2C52.6 100.3 53.1 100.7 53.2 101.2C53.5 101.7 53.5 102.3 53.3 102.9C53.2 103.4 52.8 103.9 52.3 104C52 104.1 51.8 104.3 51.5 104.3C51.2 104.3 50.8 104.4 50.5 104.4C50.2 104.4 49.7 104.4 49 104.3C48.5 104.2 48 104.2 47.9 104.2C47.8 104.2 47.6 104.2 47.4 104.2L48.7 106.4Z" fill="#1B75BB"/>
<path d="M50.4 107.5L51.5 106.7L53 108.5L51.9 109.3L50.4 107.5Z" fill="#1B75BB"/>
<path d="M53.6 114.5L52.8 113.7L57 109.6C56.3 109.6 55.6 109.5 54.9 109.3L55.9 108.3C56.2 108.4 56.7 108.4 57.3 108.4C57.9 108.4 58.3 108.3 58.7 108.1L59.4 108.8L53.6 114.5Z" fill="#1B75BB"/>
<path d="M57.4 115.4L58.4 116.1C58.1 116.6 58.1 116.9 58.4 117.2C58.5 117.3 58.9 117.3 59.2 117.2C59.5 117.1 60 116.7 60.6 116.1C60.3 116.1 60.1 116.2 59.9 116.1C59.8 116.1 59.4 116 59.2 115.8C58.9 115.5 58.5 115.1 58.5 114.4C58.5 113.7 58.6 113.3 59.2 112.6C59.8 111.9 60.2 111.6 60.9 111.5C61.6 111.4 62 111.5 62.6 111.8C63.1 112.1 63.4 112.8 63.3 113.5C63.3 114.2 62.8 115.2 61.9 116.4C61 117.5 60.2 118.2 59.5 118.5C58.8 118.6 58.1 118.6 57.4 118.2C57.1 117.9 56.7 117.5 56.7 117.1C56.8 116.6 57.1 116.1 57.4 115.4ZM61.6 114.5C61.9 114.2 62.1 113.8 62.1 113.5C62.1 113.2 62.1 113 61.8 112.8C61.7 112.7 61.5 112.7 61.1 112.7C60.8 112.7 60.6 113 60.3 113.4C60 113.7 59.8 114.1 59.8 114.4C59.8 114.7 59.8 114.9 60.1 115.1C60.2 115.2 60.4 115.2 60.8 115.2C60.9 115.1 61.3 114.9 61.6 114.5Z" fill="#1B75BB"/>
<path d="M62.3 119.2L63.4 119.7C63.3 120.2 63.3 120.5 63.5 120.8C63.6 120.9 64 120.9 64.3 120.8C64.6 120.7 65 120.1 65.4 119.4C65.3 119.5 64.9 119.5 64.7 119.5C64.6 119.5 64.2 119.5 64 119.4C63.5 119.3 63.3 118.7 63.2 118.3C63.1 117.6 63.2 117.2 63.5 116.5C63.8 115.8 64.3 115.4 65 115.1C65.5 115 66.1 115 66.7 115.2C67.2 115.5 67.5 116 67.7 116.7C67.7 117.4 67.6 118.4 66.7 119.8C66 121.2 65.3 121.9 64.5 122.2C63.8 122.5 63.1 122.5 62.4 122.2C61.9 122.1 61.7 121.7 61.6 121.2C62 120.4 62.2 119.9 62.3 119.2ZM66.4 117.6C66.5 117.1 66.7 116.8 66.7 116.5C66.7 116.2 66.6 116 66.4 115.8C66.2 115.6 66.1 115.7 65.7 115.8C65.6 115.9 65.2 116.1 65 116.6C64.9 117.1 64.7 117.4 64.7 117.7C64.7 118 64.8 118.2 65 118.4C65.1 118.5 65.5 118.5 65.7 118.4C66.1 118.3 66.2 118 66.4 117.6Z" fill="#1B75BB"/>
<path d="M70.2 124.9L69.1 124.4L71.2 118.9C70.5 119.2 70.1 119.4 69.4 119.4L69.9 118C70.2 118 70.7 117.9 71.3 117.7C71.8 117.6 72.1 117.2 72.4 116.9L73.4 117.2L70.2 124.9Z" fill="#1B75BB"/>
<path d="M77.2 124.6L77.5 123.2L79.9 123.5L79.8 125L77.2 124.6Z" fill="#1B75BB"/>
<path d="M87.1 65.7C87.1 65.8 87.1 66 87 66H86.9C86.9 66 86.9 66 86.8 66C86.8 66 86.8 66 86.8 65.9C86.8 65.9 86.8 65.9 86.8 65.8H86.7C86.7 65.8 86.7 65.8 86.7 65.7C86.7 65.7 86.7 65.7 86.7 65.6C86.7 65.6 86.7 65.6 86.7 65.5C86.7 65.5 86.7 65.5 86.8 65.5C86.8 65.5 86.8 65.5 86.8 65.4V65.9V66C86.8 66 86.8 66 86.9 66C86.9 66 86.9 66 86.9 65.9C86.9 65.9 86.9 65.9 86.9 65.8V65.7V65.6C86.9 65.6 86.9 65.6 86.9 65.5V65.4V65.7V65.8C86.9 65.8 86.9 65.8 86.9 65.9C86.9 65.9 86.9 65.9 86.9 66C86.9 65.9 86.9 65.7 87.1 65.7C86.9 65.7 86.9 65.7 87.1 65.7C87 65.6 87 65.6 87 65.6V65.3V65.2C87 65.2 87 65.1 87.1 65.1V65.2V65.3V65.4V65.5V65.7ZM86 65.7C86 65.5 86 65.5 86 65.7C86 65.5 85.9 65.5 86 65.7C85.9 65.5 85.9 65.5 86 65.7C85.9 65.6 85.9 65.6 85.9 65.7C85.9 65.7 85.9 65.7 86 65.7C85.9 65.7 85.9 65.7 86 65.7ZM86.7 64.7C86.7 64.8 86.7 64.8 86.7 64.7C86.7 64.8 86.7 64.8 86.6 64.8C86.6 64.7 86.6 64.7 86.7 64.7C86.7 64.6 86.7 64.6 86.7 64.7ZM86.6 64.6C86.4 64.4 86.4 64.4 86.6 64.6C86.6 64.5 86.5 64.5 86.5 64.5V64.4L86.6 64.6C86.6 64.4 86.6 64.2 86.6 64.6C86.6 64.4 86.6 64.4 86.6 64.6Z" fill="#1B75BB"/>
<path d="M87.6 65.7C87.6 65.8 87.6 65.8 87.6 66C87.6 65.9 87.6 65.7 87.6 65.7C87.6 65.4 87.6 65.4 87.6 65.2C87.6 65.1 87.6 65.1 87.6 65.1V65C87.6 65 87.6 65 87.7 64.9C87.7 65 87.7 65.2 87.7 65.4C87.6 65.5 87.6 65.7 87.6 65.7Z" fill="#1B75BB"/>
<path d="M89.5 66.1H89.4C89.3 66.1 89.3 66.1 89.3 66.1C89.3 66.2 89.3 66.2 89.3 66.2C89.3 66.2 89.3 66.2 89.2 66.2C89.2 66.2 89.1 66.2 89.1 66.1C89.1 66.1 89 66 89.1 65.8C89 65.8 89 65.9 89 65.9V66V66.5V66.6V66.7C89 66.6 89 66.6 89 66.4C89 66.3 89 66.1 89 65.9C89 65.7 89 65.8 89 65.6L89.1 65.5C89.1 65.5 89.1 65.5 89.2 65.5C89.3 65.6 89.3 65.6 89.5 65.6H89.6H89.7V66C89.7 66.1 89.5 66.1 89.5 66.1Z" fill="#1B75BB"/>
<path d="M91.1 66.1H91H90.9C90.9 66.1 90.9 66 90.8 66C90.8 66.1 90.7 66.1 90.7 66.1C90.7 66.1 90.6 66.1 90.6 66C90.6 66.1 90.5 66.1 90.3 66.1C90.2 66.1 90.2 66.1 90.2 66C90.2 66.1 90.1 66.1 90.1 66.1V65.8H90.2H90.3C90.3 65.8 90.3 65.8 90.4 65.7C90.4 65.8 90.4 65.8 90.5 65.8C90.6 65.8 90.8 65.8 90.8 65.7C90.8 65.8 90.8 65.8 90.9 65.8C90.9 65.8 91 65.8 91 65.7C91 65.8 91.1 65.8 91.1 65.8H91.2V66.1H91.1Z" fill="#1B75BB"/>
<path d="M91.4 65.7C91.4 65.8 91.4 65.8 91.3 66L91.2 66.1H91.1V65.8H91.2C91.2 65.9 91.2 65.7 91.4 65.7C91.3 65.7 91.3 65.7 91.3 65.7C91.3 65.7 91.3 65.7 91.3 65.6C91.3 65.6 91.3 65.5 91.4 65.3C91.4 65.4 91.4 65.5 91.4 65.7ZM91.4 66.4L91.3 66.5L91.2 66.4H91.4Z" fill="#1B75BB"/>
<path d="M84.5 69.3H84.4C84.3 69.3 84.3 69.3 84.3 69.3C84.3 69.4 84.3 69.4 84.3 69.4C84.3 69.4 84.3 69.4 84.2 69.4C84.2 69.4 84.1 69.4 84.1 69.3C84.1 69.3 84 69.2 84.1 69C84 69 84 69.1 84 69.1V69.2V69.5V69.8V70C84 69.9 84 69.9 84 69.7C84 69.6 84 69.4 84 69.2C84 69.1 84 69.1 84 68.9L84.1 68.8C84.1 68.8 84.1 68.8 84.2 68.8C84.3 68.9 84.3 68.9 84.5 68.9C84.5 68.9 84.6 68.9 84.8 68.9H84.9V69.4C84.9 69.3 84.5 69.3 84.5 69.3Z" fill="#1B75BB"/>
<path d="M85 69.3H84.9C84.8 69.3 84.8 69.3 84.8 69.2C84.8 69.3 84.7 69.3 84.7 69.3H84.6V69H84.7H84.8C84.8 69 84.8 69 84.9 68.9C84.9 69 84.9 69 85 69H85.1V69.3H85ZM85 69.6L84.9 69.7L84.8 69.6V69.8L84.7 69.7L84.8 69.6L84.9 69.7H85V69.6Z" fill="#1B75BB"/>
<path d="M86.3 68.6L86.2 68.7C86.1 68.7 86.1 68.7 85.9 68.7C85.9 68.7 85.8 68.8 85.6 68.8L85.5 68.9H85.4H85.3V68.6H85.4C85.5 68.6 85.7 68.6 85.9 68.5C85.8 68.5 85.8 68.5 85.6 68.5H85.5C85.5 68.4 85.5 68.4 85.6 68.2H85.7H85.8C85.7 68.6 85.9 68.6 86.3 68.6C86 68.6 86 68.6 86.3 68.6Z" fill="#1B75BB"/>
<path d="M86.9 69.3H86.8C86.8 69.4 86.7 69.6 86.7 69.8C86.7 69.9 86.6 69.9 86.4 69.9H86.3C86.3 69.9 86.2 69.9 86.2 69.8H86.3C86.4 69.7 86.6 69.6 86.9 69.3C86.9 69.3 86.9 69.3 86.9 69.2L86.8 69.1L86.9 69C86.9 69.1 87 69.1 87 69.1H87.1L86.9 69.3Z" fill="#1B75BB"/>
<path d="M87.3 67.9L87.2 68C87.2 68 87.2 68.1 87.2 68.3C87.2 68.4 87.2 68.6 87.2 68.6C87.2 68.7 87.2 68.7 87.2 68.9L87.1 69H87V68.7H87.1H87.2C87.2 68.7 87.2 68.7 87.2 68.6C87.2 68.6 87.2 68.5 87.2 68.1C87.2 68 87.2 67.8 87.2 67.6V67.4C87.2 67.4 87.2 67.4 87.3 67.3C87.3 67.8 87.3 67.9 87.3 67.9Z" fill="#1B75BB"/>
<path d="M87.7 68.9C87.7 69 87.7 69 87.7 69.2V68.9C87.7 68.6 87.7 68.6 87.7 68.4C87.7 68.3 87.7 68.3 87.7 68.3V68.2C87.7 68.2 87.7 68.2 87.8 68.1C87.8 68.2 87.8 68.4 87.8 68.6C87.7 68.8 87.7 68.9 87.7 68.9Z" fill="#1B75BB"/>
<path d="M90 69.3H89.9C89.9 69.4 89.9 69.6 89.8 69.6C89.7 69.7 89.5 69.9 89.3 69.9C89.1 69.9 89.2 69.9 89 69.8L88.9 69.7C88.9 69.6 88.9 69.4 89 69.2C89 69.3 88.9 69.3 88.9 69.5C88.9 69.5 88.9 69.6 89 69.6C89 69.6 89.1 69.6 89.3 69.6C89.6 69.6 89.8 69.5 89.8 69.3V69.2V69.1C89.8 69.1 89.8 69 89.9 68.8C89.9 68.9 90 68.9 90 68.9H90.1V69.4C90.2 69.3 90 69.3 90 69.3ZM89.4 68.8L89.3 68.9L89.2 68.8H89.4Z" fill="#1B75BB"/>
<path d="M91.1 69.3H91H90.9C90.9 69.4 90.9 69.4 90.8 69.4C90.8 69.4 90.7 69.3 90.5 69.1C90.5 69.2 90.4 69.2 90.4 69.2H90.3V68.9H90.4C90.5 68.9 90.5 68.9 90.7 68.8C90.7 68.8 90.7 68.7 90.8 68.7C90.8 68.7 90.8 68.7 90.9 68.7C90.9 68.7 90.9 68.7 91 68.8C91 68.9 91.1 68.9 91.1 68.9H91.2H91.3V69.2C91.4 69.3 91.1 69.3 91.1 69.3ZM90.5 69.2C90.5 68.9 90.5 68.9 90.5 69.2C90.4 69.2 90.4 69.2 90.5 69.2Z" fill="#1B75BB"/>
<path d="M92.1 68.6L92 68.7C91.9 68.7 91.9 68.7 91.7 68.7C91.7 68.7 91.6 68.8 91.4 68.8L91.3 68.9H91.2H91V68.6H91.1C91.2 68.6 91.4 68.6 91.6 68.5C91.5 68.5 91.5 68.5 91.3 68.5H91.2C91.2 68.4 91.2 68.4 91.3 68.2H91.4H91.5C91.8 68.6 91.9 68.6 92.1 68.6Z" fill="#1B75BB"/>
<path d="M92.9 69.3H92.8C92.8 69.4 92.7 69.6 92.7 69.8C92.7 69.9 92.6 69.9 92.4 69.9H92.3C92.3 69.9 92.2 69.9 92.2 69.8H92.3C92.3 69.7 92.6 69.6 92.9 69.3C92.9 69.3 92.9 69.3 92.9 69.2L92.8 69.1L92.9 69C92.9 69.1 93 69.1 93 69.1H93.1L92.9 69.3Z" fill="#1B75BB"/>
<path d="M93.2 67.9L93.1 68C93.1 68 93.1 68.1 93.1 68.3C93.1 68.4 93.1 68.6 93.1 68.6C93.1 68.7 93.1 68.7 93.1 68.9L93 69H92.8V68.7H92.9H93C93 68.7 93 68.7 93 68.6C93 68.6 93 68.5 93 68.1C93 68 93 67.8 93 67.6V67.4C93 67.4 93 67.4 93.1 67.3C93.1 67.8 93.1 67.9 93.2 67.9Z" fill="#1B75BB"/>
<path d="M93.7 68.9C93.7 69 93.7 69 93.7 69.2V68.9C93.7 68.6 93.7 68.6 93.7 68.4C93.7 68.3 93.7 68.3 93.7 68.3V68.2C93.7 68.2 93.7 68.2 93.8 68.1C93.8 68.2 93.8 68.4 93.8 68.6C93.7 68.8 93.7 68.9 93.7 68.9Z" fill="#1B75BB"/>
<path d="M87.3 72.6H87.1C87.1 72.7 87.1 72.7 87 72.9C86.9 73 86.7 73.2 86.5 73.2C86.3 73.2 86.4 73.2 86.2 73.1L86.1 73C86.1 72.9 86.1 72.7 86.2 72.5C86.2 72.6 86.1 72.6 86.1 72.8C86.1 72.8 86.1 72.9 86.2 72.9C86.2 72.9 86.3 72.9 86.5 72.9C86.8 72.9 87 72.8 87 72.6V72.5V72.4C87 72.4 87 72.3 87.1 72.1C87.1 72.2 87.2 72.2 87.2 72.2H87.3V72.7C87.4 72.6 87.3 72.6 87.3 72.6ZM86.7 72L86.6 72.1L86.5 72H86.7Z" fill="#1B75BB"/>
<path d="M88.3 72.6H88.2H88.1C88.1 72.7 88.1 72.7 88 72.7C88 72.7 87.9 72.6 87.7 72.4C87.7 72.5 87.6 72.5 87.6 72.5H87.1V72.2H87.2C87.3 72.2 87.3 72.2 87.5 72.1C87.5 72.1 87.5 72 87.6 72C87.6 72 87.6 72 87.7 72C87.7 72 87.7 72 87.8 72.1C87.8 72.2 87.9 72.2 87.9 72.2H88H88.1V72.5C88.7 72.6 88.3 72.6 88.3 72.6ZM87.7 72.4C87.7 72.3 87.7 72.3 87.7 72.4Z" fill="#1B75BB"/>
<path d="M89.5 71.9L89.4 72C89.3 72 89.3 72 89.1 72C89.1 72 89 72.1 88.8 72.1L88.7 72.2H88.6H88.5V71.9H88.6C88.7 71.9 88.9 71.9 89.1 71.8C89 71.8 89 71.8 88.8 71.8H88.7C88.7 71.7 88.7 71.7 88.8 71.5H88.9H89C89 71.9 89.1 72 89.5 71.9C89.4 72 89.4 71.9 89.5 71.9Z" fill="#1B75BB"/>
<path d="M90.4 72.6H90.3C90.3 72.7 90.2 72.9 90.2 73.1C90.2 73.2 90.1 73.2 89.9 73.2H89.8C89.8 73.2 89.7 73.2 89.7 73.1H89.8C89.8 73.1 90 73 90.4 72.6C90.4 72.6 90.4 72.6 90.4 72.5L90.3 72.4L90.4 72.3C90.4 72.4 90.5 72.4 90.5 72.4H90.6L90.4 72.6Z" fill="#1B75BB"/>
<path d="M90.5 71.2L90.4 71.3C90.4 71.3 90.4 71.4 90.4 71.6C90.4 71.7 90.4 71.9 90.4 71.9C90.4 72 90.4 72 90.4 72.2L90.3 72.3H90.2V72H90.3H90.4C90.4 72 90.4 72 90.4 71.9C90.4 71.9 90.4 71.8 90.4 71.4C90.4 71.3 90.4 71.1 90.4 70.9V71C90.4 71 90.4 71 90.5 70.9C90.5 71 90.5 71.2 90.5 71.2Z" fill="#1B75BB"/>
<path d="M91.1 72.3C91.1 72.4 91.1 72.4 91.1 72.6C91.1 72.4 91.1 72.3 91.1 72.3C91.1 72 91.1 72 91.1 71.8C91.1 71.7 91.1 71.7 91.1 71.7V71.6C91.1 71.6 91.1 71.6 91.2 71.5C91.2 71.6 91.2 71.8 91.2 72C91.1 72 91.1 72.3 91.1 72.3Z" fill="#1B75BB"/>
<path d="M85.7 75.5C85.7 75.6 85.7 75.8 85.6 75.8C85.5 75.9 85.5 75.9 85.3 75.9C85.2 75.9 85.2 75.9 85 75.8L84.9 75.7C84.9 75.6 84.9 75.6 84.9 75.6C84.9 75.6 84.9 75.5 85 75.3C85 75.4 84.9 75.4 84.9 75.6C84.9 75.6 84.9 75.7 85 75.7C85 75.7 85.1 75.7 85.3 75.7C85.4 75.7 85.4 75.7 85.6 75.7C85.6 75.5 85.6 75.5 85.7 75.5C85.6 75.5 85.6 75.4 85.6 75.4C85.6 75.3 85.5 75.3 85.5 75.3C85.5 75.3 85.5 75.2 85.6 75C85.6 74.9 85.7 75.1 85.7 75.5Z" fill="#1B75BB"/>
<path d="M86.6 74.2C86.6 74.3 86.5 74.3 86.3 74.3H86.2H86C86 74.3 86 74.3 85.9 74.3C85.9 74.2 86 74.2 86 74.2H86.1C86.2 74.2 86.2 74.2 86.2 74.2C86.4 74.2 86.4 74.2 86.6 74.2ZM86.3 75.5C86.3 75.6 86.3 75.6 86.3 75.8C86.3 75.6 86.3 75.5 86.3 75.5C86.3 75.2 86.3 75.2 86.3 75C86.3 74.9 86.3 74.9 86.3 74.9V74.8C86.3 74.8 86.3 74.8 86.4 74.7C86.4 74.8 86.4 75 86.4 75.2C86.3 75.2 86.3 75.5 86.3 75.5Z" fill="#1B75BB"/>
<path d="M87.4 75.8H87.3C87.3 75.9 87.2 76.1 87.2 76.3C87.2 76.5 87.1 76.4 86.9 76.4H86.8C86.8 76.4 86.7 76.4 86.7 76.3H86.8C86.8 76.3 87.1 76.2 87.4 75.8C87.4 75.8 87.4 75.8 87.4 75.7L87.3 75.6L87.4 75.5C87.4 75.6 87.5 75.6 87.5 75.6H87.6L87.4 75.8Z" fill="#1B75BB"/>
<path d="M88.1 75.8H88C87.9 75.8 87.9 75.8 87.7 75.7C87.6 75.7 87.6 75.8 87.4 75.8H87.2V75.5H87.3C87.3 75.5 87.3 75.5 87.4 75.5C87.4 75.4 87.4 75.4 87.5 75.2C87.6 75 87.6 75.1 87.6 75.1C87.6 75.1 87.7 75.1 87.7 75.2C87.7 75.2 87.7 75.3 87.7 75.5C87.7 75.7 87.7 75.6 87.6 75.8C87.6 75.8 87.6 75.8 87.7 75.8H88.1ZM88 74.6L87.9 74.7L87.8 74.6V74.7L87.7 74.6L87.8 74.5L87.9 74.6H88ZM88 75.2C87.7 75.2 87.7 75.1 88 75.2C87.9 75.1 87.9 75.1 87.7 75.1C87.7 75.1 87.7 75.2 87.8 75.2C87.7 75.5 88 75.5 88 75.2Z" fill="#1B75BB"/>
<path d="M88.4 74.4L88.3 74.5C88.3 74.5 88.3 74.6 88.3 74.8C88.3 75 88.3 75.1 88.3 75.1C88.3 75.2 88.3 75.2 88.3 75.4L88.2 75.5H88.1V75.2H88.2H88.3C88.3 75.2 88.3 75.2 88.3 75.1C88.3 75.1 88.3 75 88.3 74.6C88.3 74.5 88.3 74.3 88.3 74.1V74C88.3 74 88.3 74 88.4 73.9C88.4 74.2 88.4 74.4 88.4 74.4Z" fill="#1B75BB"/>
<path d="M89 75.5C89 75.6 89 75.6 89 75.8C89 75.6 89 75.5 89 75.5C89 75.2 89 75.2 89 75C89 74.9 89 74.9 89 74.9V74.8C89 74.8 89 74.8 89.1 74.7C89.1 74.8 89.1 75 89.1 75.2C89 75.2 89 75.5 89 75.5Z" fill="#1B75BB"/>
<path d="M91.1 75.8H91C90.9 75.8 90.9 75.8 90.9 75.8C90.9 75.9 90.9 75.9 90.9 75.9C90.9 75.9 90.9 75.9 90.8 75.9C90.8 75.9 90.7 75.9 90.7 75.8C90.7 75.8 90.6 75.7 90.7 75.5C90.6 75.5 90.6 75.6 90.6 75.6V75.7V76V76.1V76.2C90.6 76.1 90.6 76.1 90.6 75.9C90.6 75.8 90.6 75.6 90.6 75.4C90.6 75.2 90.6 75.3 90.6 75.1L90.7 75C90.7 75 90.7 75 90.8 75C90.9 75.1 90.9 75.1 91.1 75.1C91.1 75.1 91.2 75.1 91.4 75.1H91.5V75.6C91.4 75.8 91.1 75.8 91.1 75.8Z" fill="#1B75BB"/>
<path d="M91.8 75.8H91.7H91.6C91.6 75.8 91.6 75.7 91.5 75.7C91.5 75.8 91.4 76 91.4 76H91.3V75.5H91.4C91.5 75.5 91.5 75.4 91.5 75.2C91.5 75.2 91.5 75.1 91.5 74.9C91.5 74.8 91.5 74.6 91.5 74.6V74.5C91.5 74.5 91.5 74.5 91.5 74.6V74.7C91.5 75 91.5 75.2 91.5 75.4C91.5 75.6 91.5 75.7 91.6 75.7H91.7H91.8V75.8Z" fill="#1B75BB"/>
<path d="M92.6 75.2C92.5 75.3 92.3 75.5 92.1 75.5C91.9 75.5 92 75.6 91.8 75.6H91.7V75.3H91.8H91.9C91.8 75.3 91.8 75.2 91.8 75.2C91.8 75.2 91.8 75.1 91.9 74.9C92 74.8 92 74.8 92.2 74.8C92.2 74.8 92.2 74.9 92.6 75.2C92.5 75.1 92.3 75.1 92.3 75.1C92.2 75.1 92.2 75.1 92 75.1C92 75.1 91.9 75.1 91.9 75.2C91.9 75.2 91.9 75.2 92 75.3H92.1C92.2 75.5 92.4 75.2 92.6 75.2Z" fill="#1B75BB"/>
<path d="M73 65.5C73 65.6 73 65.8 72.9 65.8C72.8 65.9 72.8 65.9 72.6 65.9C72.5 65.9 72.5 65.9 72.3 65.8L72.2 65.7C72.2 65.6 72.2 65.6 72.2 65.6C72.2 65.6 72.2 65.5 72.3 65.3C72.3 65.4 72.2 65.4 72.2 65.6C72.2 65.6 72.2 65.7 72.3 65.7C72.3 65.7 72.4 65.7 72.6 65.7C72.7 65.7 72.7 65.7 72.9 65.7C72.7 65.5 72.7 65.5 73 65.5C72.9 65.5 72.9 65.4 72.9 65.4C72.9 65.3 72.8 65.3 72.8 65.3C72.8 65.3 72.8 65.2 72.9 65C72.7 65.1 73 65.2 73 65.5Z" fill="#1B75BB"/>
<path d="M73.7 65.9H73.6C73.5 65.9 73.5 65.9 73.5 65.8C73.5 65.8 73.5 65.7 73.5 65.5C73.5 65.4 73.5 65.2 73.5 65C73.5 64.9 73.5 64.9 73.5 64.9C73.5 64.9 73.5 64.9 73.5 64.8C73.5 64.8 73.5 64.8 73.6 64.7C73.6 64.7 73.6 64.8 73.6 65.2C73.6 65.3 73.6 65.5 73.6 65.7C73.6 65.8 73.6 65.8 73.7 65.8H73.8V66C73.8 65.9 73.7 65.9 73.7 65.9Z" fill="#1B75BB"/>
<path d="M75.1 65.9H75H74.9C74.9 65.9 74.9 65.8 74.8 65.8C74.8 65.9 74.7 65.9 74.7 65.9C74.7 65.9 74.6 65.9 74.6 65.8C74.6 65.9 74.5 65.9 74.3 65.9C74.2 65.9 74.2 65.9 74.2 65.8C74.2 65.9 74.1 65.9 74.1 65.9H74V65.6H74.1H74.2C74.2 65.6 74.2 65.6 74.3 65.5C74.3 65.6 74.3 65.6 74.4 65.6C74.5 65.6 74.7 65.6 74.7 65.5C74.7 65.6 74.7 65.6 74.8 65.6C74.8 65.6 74.9 65.6 74.9 65.5C74.9 65.6 75 65.6 75 65.6H75.1V65.9Z" fill="#1B75BB"/>
<path d="M75.5 65.5C75.5 65.6 75.5 65.6 75.4 65.8L75.3 65.9H75.2V65.6H75.3C75.3 65.7 75.3 65.5 75.5 65.5C75.4 65.5 75.4 65.5 75.4 65.5C75.4 65.5 75.4 65.5 75.4 65.4C75.4 65.4 75.4 65.3 75.5 65.1C75.5 65.2 75.5 65.4 75.5 65.5ZM75.5 64.8L75.4 64.9L75.3 64.8H75.5Z" fill="#1B75BB"/>
<path d="M76.6 64.7C76.6 64.8 76.6 64.8 76.6 65C76.6 65.1 76.6 65.3 76.6 65.3C76.6 65.3 76.6 65.4 76.5 65.4C76.5 65.5 76.6 65.7 76.6 65.7V66C76.6 66 76.5 66 76.3 66H76.2V65.7H76.3L76.4 65.6C76.3 65.5 76.1 65.3 76.1 65.1C76.1 65.1 76.1 65.2 76 65.2C76 65.2 76 65.2 75.9 65.1C75.8 65.1 75.8 65 75.8 65C75.8 65 75.8 64.9 75.9 64.7L76 64.8C76 64.8 76 64.9 76.1 64.9C76.2 65 76.2 65 76.2 65C76.2 65 76.2 65.1 76.3 65.3V65.2C76.3 65.2 76.3 65.2 76.3 65.1C76.3 65 76.3 65 76.3 64.8C76.3 64.7 76.3 64.7 76.3 64.7C76.3 64.7 76.3 64.6 76.4 64.6C76.6 64.6 76.6 64.6 76.6 64.7ZM76.2 66.4C76.2 66.5 76.2 66.5 76.2 66.4L75.9 66.5C75.9 66.5 75.9 66.5 75.9 66.4C75.9 66.4 75.9 66.4 76 66.3L76.2 66.4C76.1 66.3 76.1 66.3 76.1 66.3C76.1 66.3 76.1 66.3 76 66.3C76 66.4 76.2 66.4 76.2 66.4ZM76.5 65.7C76.4 65.7 76.4 65.7 76.4 65.7H76.5C76.5 65.9 76.5 65.9 76.5 65.7Z" fill="#1B75BB"/>
<path d="M77.2 65.5C77.2 65.6 77.2 65.6 77.2 65.8C77.2 65.7 77.2 65.5 77.2 65.5C77.2 65.2 77.2 65.2 77.2 65C77.2 64.8 77.2 64.9 77.2 64.9V64.8C77.2 64.8 77.2 64.8 77.3 64.7C77.3 64.8 77.3 65 77.3 65.2C77.2 65.4 77.2 65.5 77.2 65.5Z" fill="#1B75BB"/>
<path d="M79.4 65.9H79.3C79.3 66 79.2 66.2 79.2 66.4C79.1 66.5 78.9 66.5 78.7 66.5C78.4 66.5 78.4 66.4 78.4 66C78.4 65.9 78.4 65.9 78.4 65.7C78.4 65.7 78.4 65.6 78.5 65.4C78.4 65.5 78.4 65.7 78.4 65.7V65.8C78.4 65.8 78.4 65.8 78.4 65.9C78.4 65.9 78.4 65.9 78.5 65.9H78.6C78.9 65.9 79.1 65.8 79.1 65.6H79C78.9 65.6 78.9 65.6 78.9 65.6C78.9 65.6 78.9 65.6 78.9 65.5C78.9 65.5 78.9 65.5 78.9 65.4C78.9 65.4 78.9 65.4 78.9 65.3C78.9 65.3 78.9 65.3 78.9 65.2C78.9 65.2 78.9 65.1 79 65.1C79 65.1 79 65.1 79.1 65.1C79.1 65.1 79.2 65.1 79.2 65.2C79.2 65.2 79.2 65.2 79.2 65.3V65.4H79.3V66H79.4V65.9ZM79.3 64.8L79.2 64.9L79.1 64.8V64.9L79 64.8L79.1 64.7L79.2 64.8H79.3ZM79 65.7L78.9 65.6C78.9 65.5 78.9 65.7 79 65.7Z" fill="#1B75BB"/>
<path d="M80.1 65.9H80H79.9C79.9 65.9 79.9 65.8 79.8 65.8C79.8 65.9 79.7 66.1 79.7 66.1H79.6V65.8H79.7C79.8 65.8 79.8 65.7 79.8 65.5C79.8 65.5 79.8 65.4 79.8 65.2C79.8 65.1 79.8 64.9 79.8 64.9V64.8C79.8 64.8 79.8 64.8 79.8 64.9V65C79.8 65.3 79.8 65.5 79.8 65.7C79.8 65.8 79.8 66 79.9 66H80.1V65.9Z" fill="#1B75BB"/>
<path d="M81.1 65.2L81 65.3C80.9 65.3 80.9 65.3 80.7 65.3C80.7 65.3 80.6 65.4 80.4 65.4L80.3 65.5H80.2H80V65.2H80.1C80.2 65.2 80.4 65.2 80.6 65.1C80.5 65.1 80.5 65.1 80.3 65.1H80.2C80.2 65 80.2 65 80.3 64.8H80.4H80.5C80.8 65.2 80.8 65.2 81.1 65.2ZM80.8 64.8L80.7 64.9L80.6 64.8H80.8Z" fill="#1B75BB"/>
<path d="M73.7 68.8C73.7 68.9 73.7 69.1 73.6 69.1C73.5 69.2 73.5 69.2 73.3 69.2C73.2 69.2 73.2 69.2 73 69.1L72.9 69C72.9 68.9 72.9 68.9 72.9 68.9C72.9 68.9 72.9 68.8 73 68.6C73 68.7 72.9 68.7 72.9 68.9C72.9 68.9 72.9 69 73 69C73 69 73.1 69 73.3 69C73.4 69 73.4 69 73.6 69C73.4 68.8 73.4 68.8 73.7 68.8C73.6 68.8 73.6 68.7 73.6 68.7C73.6 68.6 73.5 68.6 73.5 68.6C73.5 68.6 73.5 68.5 73.6 68.3C73.4 68.3 73.7 68.5 73.7 68.8Z" fill="#1B75BB"/>
<path d="M74.3 69.2H74.2C74.1 69.2 74.1 69.2 74.1 69.1C74.1 69.1 74.1 69 74.1 68.8C74.1 68.7 74.1 68.5 74.1 68.3C74.1 68.2 74.1 68.2 74.1 68.2C74.1 68.2 74.1 68.2 74.1 68.1C74.1 68.1 74.1 68.1 74.2 68C74.2 68 74.2 68.1 74.2 68.5C74.2 68.6 74.2 68.8 74.2 69C74.2 69.1 74.2 69.1 74.3 69.1H74.4V69.4C74.5 69.2 74.3 69.2 74.3 69.2Z" fill="#1B75BB"/>
<path d="M74.8 69.2H74.7C74.6 69.2 74.6 69.2 74.6 69.1C74.6 69.2 74.5 69.2 74.5 69.2H74.4V68.9H74.5H74.6C74.6 68.9 74.6 68.9 74.7 68.8C74.7 68.9 74.7 68.9 74.8 68.9H74.9V69.2H74.8ZM74.8 69.5L74.7 69.6L74.6 69.5V69.6L74.5 69.5L74.6 69.4L74.7 69.5H74.8Z" fill="#1B75BB"/>
<path d="M75.5 69.2H75.4C75.3 69.2 75.3 69.2 75.3 69.1C75.3 69.2 75.2 69.2 75.2 69.2H75V68.9H75.1H75.2C75.2 68.9 75.2 68.9 75.3 68.8C75.3 68.9 75.3 68.9 75.4 68.9H75.5V69.2ZM75.1 69.5L75 69.6L74.9 69.5H75.1Z" fill="#1B75BB"/>
<path d="M75.6 67.8L75.5 67.9C75.5 67.9 75.5 68 75.5 68.2C75.5 68.3 75.5 68.5 75.5 68.5C75.5 68.6 75.5 68.6 75.5 68.8L75.4 68.9H75.3V68.6H75.4H75.5C75.5 68.6 75.5 68.6 75.5 68.5C75.5 68.5 75.5 68.4 75.5 68C75.5 67.9 75.5 67.7 75.5 67.5V67.4C75.5 67.4 75.5 67.4 75.6 67.3C75.6 67.6 75.6 67.8 75.6 67.8Z" fill="#1B75BB"/>
<path d="M76.2 68.8C76.2 68.9 76.2 68.9 76.2 69.1C76.2 68.9 76.2 68.8 76.2 68.8C76.2 68.5 76.2 68.5 76.2 68.3C76.2 68.2 76.2 68.2 76.2 68.2V68.1C76.2 68.1 76.2 68.1 76.3 68C76.3 68.1 76.3 68.3 76.3 68.5C76.2 68.6 76.2 68.8 76.2 68.8Z" fill="#1B75BB"/>
<path d="M77.8 69.2H77.7C77.7 69.2 77.7 69.1 77.7 68.9C77.6 69 77.6 69 77.6 69C77.6 69 77.6 69 77.5 69C77.5 69 77.5 69 77.5 68.9V68.8V68.7C77.5 68.7 77.6 68.7 77.6 68.6C77.6 68.6 77.6 68.5 77.7 68.5C77.7 68.5 77.7 68.6 77.7 68.8C77.7 68.9 77.7 69.1 77.7 69.1C77.7 69.1 77.7 69.2 77.8 69.2ZM77.6 68.8C77.5 68.7 77.5 68.8 77.5 68.8C77.2 68.8 77.3 68.8 77.6 68.8Z" fill="#1B75BB"/>
<path d="M78.9 69.2H78.8H78.7C78.7 69.3 78.7 69.3 78.6 69.3C78.6 69.3 78.5 69.2 78.3 69C78.3 69.1 78.2 69.1 78.2 69.1H78V68.8H78.1C78.2 68.8 78.2 68.8 78.4 68.7C78.4 68.7 78.4 68.6 78.5 68.6C78.5 68.6 78.5 68.6 78.6 68.6C78.6 68.6 78.6 68.6 78.7 68.7C78.7 68.8 78.8 68.8 78.8 68.8H78.9H79V69.1C79.3 69.2 78.9 69.2 78.9 69.2ZM78.4 68.9C78.4 68.8 78.4 68.8 78.4 68.9Z" fill="#1B75BB"/>
<path d="M79.6 69.2H79.5H79.4C79.4 69.2 79.4 69.1 79.3 69.1C79.3 69.2 79.2 69.4 79.2 69.4H79V69.1H79.1C79.2 69.1 79.2 69 79.2 68.8C79.2 68.8 79.2 68.7 79.2 68.5C79.2 68.4 79.2 68.2 79.2 68.2V68.1C79.2 68.1 79.2 68.1 79.2 68.2V68.3C79.2 68.6 79.2 68.8 79.2 69C79.2 69.1 79.2 69.3 79.3 69.3H79.4H79.6V69.2Z" fill="#1B75BB"/>
<path d="M80.4 68.6C80.3 68.7 80.1 68.9 79.9 68.9C79.7 68.9 79.6 69 79.6 69H79.5V68.7H79.6H79.7C79.6 68.7 79.6 68.6 79.6 68.6C79.6 68.6 79.6 68.5 79.7 68.3C79.8 68.2 79.8 68.2 80 68.2C80.1 68.1 80.3 68.3 80.4 68.6C80.3 68.5 80.1 68.5 80.1 68.5C80 68.5 80 68.5 79.8 68.5C79.8 68.5 79.7 68.5 79.7 68.6C79.7 68.6 79.7 68.6 79.8 68.7H79.9C80.1 68.8 80.3 68.6 80.4 68.6Z" fill="#1B75BB"/>
<path d="M75.8 72C75.8 72.1 75.8 72.1 75.8 72.3C75.8 72.4 75.7 72.4 75.7 72.4L75.6 72.5C75.5 72.5 75.5 72.5 75.3 72.5C75.2 72.5 75 72.5 75 72.4C75 72.4 74.9 72.3 74.9 72.1C74.9 72 74.9 71.8 75 71.6C75 71.7 74.9 71.9 74.9 71.9C74.9 72 75 72.2 75.4 72.2C75.5 72.2 75.7 72.2 75.7 72.1C75.6 72.3 75.6 72.3 75.8 72C75.7 72 75.7 72 75.7 72H75.6V71.9C75.6 71.9 75.6 71.9 75.6 71.8V71.7C75.6 71.6 75.7 71.4 75.7 71.4C75.7 71.4 75.7 71.4 75.8 71.4C75.8 71.4 75.8 71.4 75.8 71.5C75.8 71.5 75.8 71.5 75.8 71.6V71.7C75.6 71.9 75.6 71.9 75.8 72ZM75.6 71L75.5 71.1L75.4 71V71.1L75.3 71L75.4 70.9L75.5 71H75.6ZM75.5 71.7C75.4 71.7 75.4 71.7 75.4 71.7C75.3 71.9 75.3 71.9 75.5 71.7C75.5 71.9 75.5 71.9 75.5 71.7Z" fill="#1B75BB"/>
<path d="M77 72.4H76.9C76.8 72.4 76.8 72.3 76.6 72.1C76.5 72.2 76.5 72.4 76.3 72.4C76.2 72.4 76.2 72.4 76.2 72.3C76.2 72.3 76.2 72.2 76.2 72C76.2 72.1 76.3 72.1 76.3 72.1C76.4 72.1 76.4 72.1 76.4 72.1C76.4 72.1 76.4 72.1 76.4 72V71.9C76.4 71.8 76.4 71.8 76.4 71.8C76.4 71.8 76.4 71.7 76.5 71.5C76.5 71.6 76.5 71.8 76.5 72V72.1C76.5 72.2 76.5 72.2 76.6 72.2H76.7V72.5C76.6 72.4 77 72.4 77 72.4Z" fill="#1B75BB"/>
<path d="M78.6 71.9C78.6 72 78.6 72.2 78.5 72.2C78.4 72.3 78.2 72.3 77.8 72.3V72.4C77.8 72.4 77.8 72.4 77.7 72.4C77.6 72.4 77.6 72.4 77.6 72.3C77.6 72.4 77.5 72.4 77.5 72.4H77.4V72.1H77.5H77.6C77.6 72.1 77.6 72.1 77.7 72C77.7 72.1 77.7 72.1 77.8 72.1H77.9C78 71.8 78.2 71.6 78.4 71.6H78.5V71.8H78.6V71.9ZM78.4 72C78.4 71.9 78.4 71.9 78.4 72C78.3 71.9 78.3 71.9 78.3 71.9H78.2L78 72C78 72 78.2 72 78.4 72Z" fill="#1B75BB"/>
<path d="M74 75.6H73.9C73.8 75.6 73.8 75.6 73.8 75.6C73.8 75.7 73.8 75.7 73.8 75.7C73.8 75.7 73.8 75.7 73.7 75.7C73.7 75.7 73.6 75.7 73.6 75.6C73.6 75.6 73.5 75.5 73.6 75.3C73.5 75.3 73.5 75.4 73.5 75.4V75.6V75.9V76V76.1C73.5 76 73.5 76 73.5 75.8C73.5 75.6 73.5 75.5 73.5 75.3C73.5 75.1 73.5 75.2 73.5 75L73.6 74.9C73.6 74.9 73.6 74.9 73.7 74.9C73.8 75 73.8 75 74 75H74.1H74.2V75.6C74.1 75.6 74 75.6 74 75.6Z" fill="#1B75BB"/>
<path d="M74.7 75.6H74.5C74.4 75.6 74.4 75.6 74.4 75.5C74.4 75.6 74.3 75.6 74.3 75.6H74.2V75.5H74.3H74.4C74.4 75.5 74.4 75.5 74.5 75.4C74.5 75.5 74.5 75.5 74.7 75.6L74.8 75.5V75.6H74.7ZM74.5 75.9L74.4 76L74.3 75.9V76L74.2 75.9L74.3 75.8L74.4 75.9H74.5Z" fill="#1B75BB"/>
<path d="M75.8 75.6H75.6C75.6 75.6 75.5 75.6 75.3 75.6C75.1 75.6 75.2 75.6 75.2 75.6H75C74.9 75.6 74.9 75.6 74.9 75.6V75.5H75V75.4C75 75.3 75 75.3 75 74.9C75 74.8 75 74.6 75 74.6C75 74.5 75 74.5 75.1 74.3C75.1 74.3 75.1 74.4 75.2 74.4C75.2 74.5 75.1 74.5 75.1 74.5C75.1 74.5 75.1 74.5 75.1 74.6C75.1 74.7 75.1 74.7 75.1 74.7C75.1 74.8 75.1 74.8 75.1 75C75.2 74.7 75.4 74.7 75.6 74.7H75.7V74.8V74.9C75.7 74.9 75.7 74.9 75.6 75H75.7H75.8V75.6ZM75.5 75.2C75.4 75.1 75.4 75.1 75.4 75.1C75.3 75.1 75.1 75.2 75.1 75.4C75.1 75.4 75.2 75.4 75.4 75.4C75.1 75.2 75.3 75.2 75.5 75.2ZM75.1 74.6L75 74.7L74.9 74.6H75.1Z" fill="#1B75BB"/>
<path d="M76.5 75.6H76.4H76.3L76.2 75.5L76.1 75.6H75.6H75.5V75.5H75.6H75.7C75.7 75.5 75.6 75.5 75.6 75.4C75.6 75.3 75.7 75.1 75.9 75.1C76.1 75.1 76 75.1 76 75.1L76.1 75.2C76.1 75.3 76.1 75.3 76 75.3H76.1H76.2V75.6H76.5Z" fill="#1B75BB"/>
<path d="M76.9 74.2L76.8 74.3C76.8 74.3 76.8 74.4 76.8 74.6C76.8 74.8 76.8 74.9 76.8 74.9C76.8 75 76.8 75 76.8 75.2L76.7 75.3H76.6V75.2H76.7H76.8C76.8 75.2 76.8 75.2 76.8 75.1C76.8 75.1 76.8 75 76.8 74.6C76.8 74.5 76.8 74.3 76.8 74.1V74C76.8 74 76.8 74 76.9 73.9C76.6 74.1 76.9 74.2 76.9 74.2Z" fill="#1B75BB"/>
<path d="M77.3 75.2C77.3 75.3 77.3 75.3 77.3 75.5V75.2C77.3 74.9 77.3 74.9 77.3 74.7C77.3 74.6 77.3 74.6 77.3 74.6V74.4C77.3 74.4 77.3 74.4 77.4 74.3C77.4 74.4 77.4 74.6 77.4 74.8C77.3 75.1 77.3 75.2 77.3 75.2Z" fill="#1B75BB"/>
<path d="M79.6 75.5C79.6 75.6 79.6 75.6 79.6 75.5C79.6 75.6 79.6 75.8 79.5 75.8H79.4C79.4 75.8 79.4 75.8 79.3 75.8C79.3 75.8 79.3 75.8 79.3 75.7C79.3 75.7 79.3 75.7 79.3 75.6H79.2C79.2 75.6 79.2 75.6 79.2 75.5C79.2 75.5 79.2 75.5 79.2 75.4C79.2 75.4 79.2 75.4 79.2 75.3C79.2 75.3 79.2 75.3 79.3 75.3C79.3 75.3 79.3 75.3 79.3 75.2V75.7V75.8C79.3 75.8 79.3 75.8 79.4 75.8C79.4 75.8 79.4 75.8 79.4 75.7C79.4 75.7 79.4 75.7 79.4 75.6V75.5V75.4C79.4 75.4 79.4 75.4 79.4 75.3C79.4 75.2 79.4 75.2 79.4 75.2V75.5V75.6C79.4 75.6 79.4 75.6 79.4 75.7C79.4 75.7 79.4 75.7 79.4 75.8C79.4 75.5 79.4 75.5 79.6 75.5C79.4 75.5 79.4 75.5 79.6 75.5C79.5 75.4 79.5 75.4 79.5 75.4V75V74.9C79.5 74.9 79.5 74.8 79.6 74.8V74.9V75V75.1V75.2C79.6 75.2 79.6 75.2 79.6 75.5C79.6 75.2 79.6 75.2 79.6 75.5ZM78.6 75.2C78.6 75.1 78.6 75.1 78.6 75.2C78.6 75.1 78.4 75.1 78.6 75.2C78.4 75.1 78.4 75.1 78.6 75.2C78.5 75.1 78.5 75.1 78.5 75.2C78.4 75.2 78.4 75.2 78.6 75.2C78.4 75.2 78.4 75.2 78.6 75.2ZM79.3 74.2C79.3 74.4 79.3 74.4 79.3 74.2C79.3 74.3 79.3 74.3 79.2 74.3C79 74.2 79 74.2 79.3 74.2C79.3 74.1 79.3 74.1 79.3 74.2ZM79 74.1C78.9 74.1 78.9 74.1 79 74.1C78.9 73.9 78.9 73.9 79 74.1C79 74 78.9 74 78.9 74V73.9L79 74.1C79 73.9 79 73.8 79 74.1C79 73.9 79 73.9 79 74.1Z" fill="#1B75BB"/>
<path d="M80.1 75.2C80.1 75.3 80.1 75.3 80.1 75.5V75.2C80.1 74.9 80.1 74.9 80.1 74.7C80.1 74.6 80.1 74.6 80.1 74.6V74.4C80.1 74.4 80.1 74.4 80.2 74.3C80.2 74.4 80.2 74.6 80.2 74.8C80.1 75.1 80.1 75.2 80.1 75.2Z" fill="#1B75BB"/>
</svg>
