<svg xmlns="http://www.w3.org/2000/svg" xmlns:xlink="http://www.w3.org/1999/xlink" xmlns:lucid="lucid" width="1827.32" height="2340"><g transform="translate(-26.68518518518519 0)" lucid:page-tab-id="0_0"><path d="M0 0h1870.87v2581.67H0z" fill="#fff"/><path d="M215.43 26a6 6 0 0 1 6-6H1674a6 6 0 0 1 6 6v2288a6 6 0 0 1-6 6H221.43a6 6 0 0 1-6-6z" stroke="#fcce14" stroke-width="6" fill-opacity="0"/><path d="M1799.75 799.75c0 10.9-8.84 19.75-19.75 19.75-10.9 0-19.75-8.84-19.75-19.75 0-10.9 8.84-19.75 19.75-19.75 10.9 0 19.75 8.84 19.75 19.75z" stroke="#3a414a" stroke-width="6" fill="#fff"/><path d="M1780 819.5v49.3a20.7 20.7 0 0 0 3.2 11.07L1820 938m-40-63.2l-40 63.2m0-98.75h80" stroke="#3a414a" stroke-width="6" fill="none"/><path d="M1740 786a6 6 0 0 1 6-6h68a6 6 0 0 1 6 6v168a6 6 0 0 1-6 6h-68a6 6 0 0 1-6-6z" fill="none"/><use xlink:href="#a" transform="matrix(1,0,0,1,1660,938) translate(67.00617283950618 17.77777777777778)"/><path d="M119.75 1729.75c0 10.9-8.84 19.75-19.75 19.75-10.9 0-19.75-8.84-19.75-19.75 0-10.9 8.84-19.75 19.75-19.75 10.9 0 19.75 8.84 19.75 19.75z" stroke="#3a414a" stroke-width="6" fill="#fff"/><path d="M100 1749.5v49.3a20.7 20.7 0 0 0 3.2 11.07L140 1868m-40-63.2L60 1868m0-98.75h80" stroke="#3a414a" stroke-width="6" fill="none"/><path d="M60 1716a6 6 0 0 1 6-6h68a6 6 0 0 1 6 6v168a6 6 0 0 1-6 6H66a6 6 0 0 1-6-6z" fill="none"/><use xlink:href="#b" transform="matrix(1,0,0,1,-20,1868) translate(67.68518518518519 17.77777777777778)"/><path d="M101 1788.93h39.5H101M101 1788.93h-3.5M101 1788.93h-3.5" stroke="#3a414a" fill="none"/><path d="M660 1880c0 33.14-35.82 60-80 60s-80-26.86-80-60 35.82-60 80-60 80 26.86 80 60z" stroke="#3a414a" fill="#fff"/><use xlink:href="#c" transform="matrix(1,0,0,1,500,1820) translate(13.229999999999999 63.15)"/><use xlink:href="#d" transform="matrix(1,0,0,1,500,1820) translate(86.83 63.15)"/><path d="M640 1720c0 33.14-35.82 60-80 60s-80-26.86-80-60 35.82-60 80-60 80 26.86 80 60z" stroke="#3a414a" fill="#fff"/><use xlink:href="#e" transform="matrix(1,0,0,1,480,1660) translate(57.529999999999994 51.9)"/><use xlink:href="#f" transform="matrix(1,0,0,1,480,1660) translate(32.57999999999999 73.5)"/><path d="M100 1810.4" stroke="#3a414a" fill="none"/><path d="M141 1800h433a6 6 0 0 1 6 6v12.5" stroke="#00f" stroke-width="2" fill="none"/><path d="M141.03 1801H137v-2h4.03zM581 1819.53l-1-.03h-1v-1.03h2z" stroke="#00f" stroke-width=".05" fill="#00f"/><path d="M820 1720c0 33.14-35.82 60-80 60s-80-26.86-80-60 35.82-60 80-60 80 26.86 80 60z" stroke="#3a414a" fill="#fff"/><use xlink:href="#g" transform="matrix(1,0,0,1,660,1660) translate(21.054999999999986 51.9)"/><use xlink:href="#h" transform="matrix(1,0,0,1,660,1660) translate(79.955 51.9)"/><use xlink:href="#i" transform="matrix(1,0,0,1,660,1660) translate(63.029999999999994 73.5)"/><path d="M1000 1720c0 33.14-35.82 60-80 60s-80-26.86-80-60 35.82-60 80-60 80 26.86 80 60z" stroke="#3a414a" fill="#fff"/><use xlink:href="#j" transform="matrix(1,0,0,1,840,1660) translate(32.005 51.9)"/><use xlink:href="#h" transform="matrix(1,0,0,1,840,1660) translate(69.005 51.9)"/><use xlink:href="#k" transform="matrix(1,0,0,1,840,1660) translate(54.555 73.5)"/><path d="M850 1880c0 33.14-35.82 60-80 60s-80-26.86-80-60 35.82-60 80-60 80 26.86 80 60z" stroke="#3a414a" fill="#fff"/><use xlink:href="#l" transform="matrix(1,0,0,1,690,1820) translate(36.53 40.65)"/><use xlink:href="#m" transform="matrix(1,0,0,1,690,1820) translate(108.48 40.65)"/><use xlink:href="#n" transform="matrix(1,0,0,1,690,1820) translate(9.079999999999993 62.25)"/><use xlink:href="#o" transform="matrix(1,0,0,1,690,1820) translate(53.07999999999999 62.25)"/><use xlink:href="#p" transform="matrix(1,0,0,1,690,1820) translate(68.07999999999998 62.25)"/><use xlink:href="#m" transform="matrix(1,0,0,1,690,1820) translate(135.93 62.25)"/><use xlink:href="#q" transform="matrix(1,0,0,1,690,1820) translate(35.504999999999995 83.85000000000001)"/><use xlink:href="#r" transform="matrix(1,0,0,1,690,1820) translate(65.505 83.85000000000001)"/><path d="M1020 1880c0 33.14-35.82 60-80 60s-80-26.86-80-60 35.82-60 80-60 80 26.86 80 60z" stroke="#3a414a" fill="#635dff"/><use xlink:href="#s" transform="matrix(1,0,0,1,860,1820) translate(28.529999999999994 51.9)"/><use xlink:href="#t" transform="matrix(1,0,0,1,860,1820) translate(106.48 51.9)"/><use xlink:href="#r" transform="matrix(1,0,0,1,860,1820) translate(50.504999999999995 73.5)"/><path d="M141 1800h398.75a.25.25 0 0 1 .25.25.25.25 0 0 0 .25.25H914a6 6 0 0 0 6-6v-13" stroke="#00f" stroke-width="2" fill="none"/><path d="M141.03 1801H137v-2h4.03zM920 1780.5h1v1.03h-2v-1.06z" stroke="#00f" stroke-width=".05" fill="#00f"/><path d="M141 1800h313.75a.25.25 0 0 1 .25.25.25.25 0 0 0 .25.25H734a6 6 0 0 0 6-6v-13" stroke="#00f" stroke-width="2" fill="none"/><path d="M141.03 1801H137v-2h4.03zM740 1780.5h1v1.03h-2v-1.06z" stroke="#00f" stroke-width=".05" fill="#00f"/><path d="M141 1800h623a6 6 0 0 1 6 6v12.5" stroke="#00f" stroke-width="2" fill="none"/><path d="M141.03 1801H137v-2h4.03zM771 1819.53l-1-.03h-1v-1.03h2z" stroke="#00f" stroke-width=".05" fill="#00f"/><path d="M141 1800h793a6 6 0 0 1 6 6v12.5" stroke="#00f" stroke-width="2" fill="none"/><path d="M141.03 1801H137v-2h4.03zM941 1819.53l-1-.03h-1v-1.03h2z" stroke="#00f" stroke-width=".05" fill="#00f"/><path d="M1028.16 2040c0 33.14-35.8 60-80 60-44.18 0-80-26.86-80-60s35.82-60 80-60c44.2 0 80 26.86 80 60z" stroke="#3a414a" fill="#fff"/><use xlink:href="#u" transform="matrix(1,0,0,1,868.1638388576484,1980) translate(38.055 51.9)"/><use xlink:href="#v" transform="matrix(1,0,0,1,868.1638388576484,1980) translate(85.055 51.9)"/><use xlink:href="#w" transform="matrix(1,0,0,1,868.1638388576484,1980) translate(40.529999999999994 73.5)"/><path d="M844.57 2220c0 33.14-35.82 60-80 60-44.2 0-80-26.86-80-60s35.8-60 80-60c44.18 0 80 26.86 80 60z" stroke="#3a414a" fill="#00f"/><use xlink:href="#x" transform="matrix(1,0,0,1,684.5669291338584,2160) translate(35.005 63.15)"/><use xlink:href="#o" transform="matrix(1,0,0,1,684.5669291338584,2160) translate(81.005 63.15)"/><use xlink:href="#y" transform="matrix(1,0,0,1,684.5669291338584,2160) translate(96.005 63.15)"/><path d="M660.97 2220c0 33.14-35.82 60-80 60s-80-26.86-80-60 35.82-60 80-60 80 26.86 80 60z" stroke="#3a414a" fill="#fff"/><use xlink:href="#z" transform="matrix(1,0,0,1,500.9700194100684,2160) translate(34.504999999999995 63.15)"/><path d="M844.57 2040c0 33.14-35.82 60-80 60-44.2 0-80-26.86-80-60s35.8-60 80-60c44.18 0 80 26.86 80 60z" stroke="#3a414a" fill="#00f"/><use xlink:href="#A" transform="matrix(1,0,0,1,684.5669291338584,1980) translate(15.029999999999996 63.15)"/><use xlink:href="#B" transform="matrix(1,0,0,1,684.5669291338584,1980) translate(50.98 63.15)"/><use xlink:href="#C" transform="matrix(1,0,0,1,684.5669291338584,1980) translate(109.98 63.15)"/><path d="M1420 740c0 33.14-35.82 60-80 60s-80-26.86-80-60 35.82-60 80-60 80 26.86 80 60z" stroke="#3a414a" fill="#ba23f6"/><use xlink:href="#D" transform="matrix(1,0,0,1,1260,680) translate(25.555 63.15)"/><use xlink:href="#E" transform="matrix(1,0,0,1,1260,680) translate(80.45500000000001 63.15)"/><path d="M660 2040c0 33.14-35.82 60-80 60s-80-26.86-80-60 35.82-60 80-60 80 26.86 80 60z" stroke="#3a414a" fill="#00f"/><use xlink:href="#u" transform="matrix(1,0,0,1,500,1980) translate(38.05500000000001 40.65)"/><use xlink:href="#v" transform="matrix(1,0,0,1,500,1980) translate(85.055 40.65)"/><use xlink:href="#F" transform="matrix(1,0,0,1,500,1980) translate(26.554999999999993 62.25)"/><use xlink:href="#G" transform="matrix(1,0,0,1,500,1980) translate(110.505 62.25)"/><use xlink:href="#H" transform="matrix(1,0,0,1,500,1980) translate(60.53 83.85000000000001)"/><path d="M141 1800h143a6 6 0 0 1 6 6v328a6 6 0 0 0 6 6h278.97a6 6 0 0 1 6 6v12.5" stroke="#00f" stroke-width="2" fill="none"/><path d="M141.03 1801H137v-2h4.03zM581.97 2159.53l-1-.03h-1v-1.03h2z" stroke="#00f" stroke-width=".05" fill="#00f"/><path d="M141 1800h143a6 6 0 0 1 6 6v328.5a6 6 0 0 0 6 6h462.57a6 6 0 0 0 6-6v-33" stroke="#00f" stroke-width="2" fill="none"/><path d="M141.03 1801H137v-2h4.03zM764.56 2100.5h1.02v1.03h-2v-1.06z" stroke="#00f" stroke-width=".05" fill="#00f"/><path d="M141 1800h143a6 6 0 0 1 6 6v328.5a6 6 0 0 0 6 6h646.16a6 6 0 0 0 6-6v-33" stroke="#00f" stroke-width="2" fill="none"/><path d="M141.03 1801H137v-2h4.03zM948.16 2100.5h1v1.03h-2v-1.06z" stroke="#00f" stroke-width=".05" fill="#00f"/><path d="M141 1800h143a6 6 0 0 1 6 6v328a6 6 0 0 0 6 6h278a6 6 0 0 0 6-6v-32.5" stroke="#00f" stroke-width="2" fill="none"/><path d="M141.03 1801H137v-2h4.03zM580 2100.5h1v1.03h-2v-1.06z" stroke="#00f" stroke-width=".05" fill="#00f"/><path d="M1799.75 1339.75c0 10.9-8.84 19.75-19.75 19.75-10.9 0-19.75-8.84-19.75-19.75 0-10.9 8.84-19.75 19.75-19.75 10.9 0 19.75 8.84 19.75 19.75z" stroke="#3a414a" stroke-width="6" fill="#fff"/><path d="M1780 1359.5v49.3a20.7 20.7 0 0 0 3.2 11.07L1820 1478m-40-63.2l-40 63.2m0-98.75h80" stroke="#3a414a" stroke-width="6" fill="none"/><path d="M1740 1326a6 6 0 0 1 6-6h68a6 6 0 0 1 6 6v168a6 6 0 0 1-6 6h-68a6 6 0 0 1-6-6z" fill="none"/><use xlink:href="#I" transform="matrix(1,0,0,1,1660,1478) translate(76.23456790123456 17.77777777777778)"/><path d="M1778.5 1398.93h-664.34a6 6 0 0 1-6-6V1201.5M1778.47 1398.93h4.03" stroke="#e81313" stroke-width="2" fill="none"/><path d="M1108.16 1200.5h1v1.03h-2v-1.06z" stroke="#e81313" stroke-width=".05" fill="#e81313"/><path d="M1640 1686.07c0 33.13-35.82 60-80 60s-80-26.87-80-60c0-33.14 35.82-60 80-60s80 26.86 80 60z" stroke="#3a414a" fill="#635dff"/><use xlink:href="#J" transform="matrix(1,0,0,1,1480,1626.0683751048377) translate(10.055000000000001 63.15)"/><use xlink:href="#K" transform="matrix(1,0,0,1,1480,1626.0683751048377) translate(60.005 63.15)"/><path d="M1520 1840c0 33.14-35.82 60-80 60s-80-26.86-80-60 35.82-60 80-60 80 26.86 80 60z" stroke="#3a414a" fill="#fff"/><use xlink:href="#e" transform="matrix(1,0,0,1,1360,1780) translate(57.529999999999994 51.9)"/><use xlink:href="#f" transform="matrix(1,0,0,1,1360,1780) translate(32.57999999999999 73.5)"/><path d="M1620 1060c0 33.14-35.82 60-80 60s-80-26.86-80-60 35.82-60 80-60 80 26.86 80 60z" stroke="#3a414a" fill="#fff"/><use xlink:href="#u" transform="matrix(1,0,0,1,1460,1000) translate(9.079999999999993 63.15)"/><use xlink:href="#f" transform="matrix(1,0,0,1,1460,1000) translate(56.07999999999999 63.15)"/><path d="M1776 1398.6h-320a6 6 0 0 1-6-6V1066a6 6 0 0 1 6-6h2.5M1775.97 1398.6h4.03" stroke="#e81313" stroke-width="2" fill="none"/><path d="M1459.5 1060v.4l.03.6h-1.06v-2h1.06z" stroke="#e81313" stroke-width=".05" fill="#e81313"/><path d="M1640 1526.07c0 33.13-35.82 60-80 60s-80-26.87-80-60c0-33.14 35.82-60 80-60s80 26.86 80 60z" stroke="#54c45e" fill="#00f"/><use xlink:href="#L" transform="matrix(1,0,0,1,1480,1466.0683751048377) translate(24.55499999999999 40.65)"/><use xlink:href="#M" transform="matrix(1,0,0,1,1480,1466.0683751048377) translate(110.455 40.65)"/><use xlink:href="#N" transform="matrix(1,0,0,1,1480,1466.0683751048377) translate(10.529999999999996 62.25)"/><use xlink:href="#O" transform="matrix(1,0,0,1,1480,1466.0683751048377) translate(75.48 62.25)"/><use xlink:href="#P" transform="matrix(1,0,0,1,1480,1466.0683751048377) translate(95.48 62.25)"/><use xlink:href="#Q" transform="matrix(1,0,0,1,1480,1466.0683751048377) translate(139.48000000000002 62.25)"/><use xlink:href="#R" transform="matrix(1,0,0,1,1480,1466.0683751048377) translate(48.58 83.85000000000001)"/><path d="M1400 1500c0 33.14-35.82 60-80 60s-80-26.86-80-60 35.82-60 80-60 80 26.86 80 60z" stroke="#3a414a" fill="#ba23f6"/><use xlink:href="#S" transform="matrix(1,0,0,1,1240,1440) translate(28.73253906250002 45.25607638888888)"/><use xlink:href="#T" transform="matrix(1,0,0,1,1240,1440) translate(108.13640190972222 45.25607638888888)"/><use xlink:href="#U" transform="matrix(1,0,0,1,1240,1440) translate(25.532777777777802 64.5269097222222)"/><use xlink:href="#V" transform="matrix(1,0,0,1,1240,1440) translate(119.38976562499998 64.5269097222222)"/><use xlink:href="#W" transform="matrix(1,0,0,1,1240,1440) translate(20.95194010416669 83.79774305555553)"/><use xlink:href="#X" transform="matrix(1,0,0,1,1240,1440) translate(60.34473524305557 83.79774305555553)"/><path d="M1776 1398.6h-320a6 6 0 0 0-6 6v89.4a6 6 0 0 1-6 6h-42.5M1775.97 1398.6h4.03" stroke="#e81313" stroke-width="2" fill="none"/><path d="M1401.53 1501h-1.06l.03-1v-.4l-.03-.6h1.06z" stroke="#e81313" stroke-width=".05" fill="#e81313"/><path d="M1776 1398.6h-320a6 6 0 0 0-6 6v106a6 6 0 0 0 6 6h23.5M1775.97 1398.6h4.03" stroke="#e81313" stroke-width="2" fill="none"/><path d="M1480.3 1517.45v.16h-.83v-2h1.25z" stroke="#e81313" stroke-width=".05" fill="#e81313"/><path d="M141 1800h413a6 6 0 0 0 6-6v-12.5" stroke="#00f" stroke-width="2" fill="none"/><path d="M141.03 1801H137v-2h4.03zM560 1780.5h1v1.03h-2v-1.06z" stroke="#00f" stroke-width=".05" fill="#00f"/><path d="M1640 1213.57c0 33.13-35.82 60-80 60s-80-26.87-80-60c0-33.14 35.82-60 80-60s80 26.86 80 60z" stroke="#3a414a" fill="#fff"/><use xlink:href="#Y" transform="matrix(1,0,0,1,1480,1153.5683751048377) translate(30.60499999999999 51.9)"/><use xlink:href="#Z" transform="matrix(1,0,0,1,1480,1153.5683751048377) translate(85.45500000000001 51.9)"/><use xlink:href="#aa" transform="matrix(1,0,0,1,1480,1153.5683751048377) translate(26.03 73.5)"/><use xlink:href="#ab" transform="matrix(1,0,0,1,1480,1153.5683751048377) translate(66.03 73.5)"/><use xlink:href="#ac" transform="matrix(1,0,0,1,1480,1153.5683751048377) translate(90.03 73.5)"/><path d="M1776 858.6h-320a6 6 0 0 1-6-6V746a6 6 0 0 0-6-6h-22.5M1775.97 858.6h4.03" stroke="#008a0e" stroke-width="2" fill="none"/><path d="M1421.53 741h-1.06l.03-1v-.4l-.03-.6h1.06z" stroke="#008a0e" stroke-width=".05" fill="#008a0e"/><path d="M1380 1650c0 33.14-35.82 60-80 60s-80-26.86-80-60 35.82-60 80-60 80 26.86 80 60z" stroke="#3a414a" fill="#fff"/><use xlink:href="#ad" transform="matrix(1,0,0,1,1220,1590) translate(41.55499999999999 40.65)"/><use xlink:href="#ae" transform="matrix(1,0,0,1,1220,1590) translate(16.12999999999999 62.25)"/><use xlink:href="#Z" transform="matrix(1,0,0,1,1220,1590) translate(99.93 62.25)"/><use xlink:href="#af" transform="matrix(1,0,0,1,1220,1590) translate(31.605 83.85000000000001)"/><use xlink:href="#ag" transform="matrix(1,0,0,1,1220,1590) translate(105.50500000000001 83.85000000000001)"/><path d="M1400 1140c0 33.14-35.82 60-80 60s-80-26.86-80-60 35.82-60 80-60 80 26.86 80 60z" stroke="#3a414a" fill="#fff"/><use xlink:href="#ah" transform="matrix(1,0,0,1,1240,1080) translate(30.554999999999993 51.9)"/><use xlink:href="#Z" transform="matrix(1,0,0,1,1240,1080) translate(85.505 51.9)"/><use xlink:href="#aa" transform="matrix(1,0,0,1,1240,1080) translate(26.03 73.5)"/><use xlink:href="#ab" transform="matrix(1,0,0,1,1240,1080) translate(66.03 73.5)"/><use xlink:href="#ac" transform="matrix(1,0,0,1,1240,1080) translate(90.03 73.5)"/><path d="M1778.5 1398.93H1456a6 6 0 0 0-6 6V1644a6 6 0 0 1-6 6h-62.5M1778.47 1398.93h4.03" stroke="#e81313" stroke-width="2" fill="none"/><path d="M1381.53 1651h-1.06l.03-1v-.4l-.03-.6h1.06z" stroke="#e81313" stroke-width=".05" fill="#e81313"/><path d="M1776 1398.6h-321a6 6 0 0 1-6-6v-173.03a6 6 0 0 1 6-6h23.5M1775.97 1398.6h4.03" stroke="#e81313" stroke-width="2" fill="none"/><path d="M1479.5 1213.56v.4l.03.6h-1.06v-2h1.06z" stroke="#e81313" stroke-width=".05" fill="#e81313"/><path d="M1778.5 1398.93h-323a6 6 0 0 1-6-6V1146a6 6 0 0 0-6-6h-42M1778.47 1398.93h4.03" stroke="#e81313" stroke-width="2" fill="none"/><path d="M1401.53 1141h-1.06l.03-1v-.4l-.03-.6h1.06z" stroke="#e81313" stroke-width=".05" fill="#e81313"/><path d="M119.75 825.82c0 10.9-8.84 19.75-19.75 19.75-10.9 0-19.75-8.84-19.75-19.75 0-10.9 8.84-19.75 19.75-19.75 10.9 0 19.75 8.84 19.75 19.75z" stroke="#3a414a" stroke-width="6" fill="#fff"/><path d="M100 845.57v49.3a20.7 20.7 0 0 0 3.2 11.07l36.8 58.13m-40-63.2l-40 63.2m0-98.75h80" stroke="#3a414a" stroke-width="6" fill="none"/><path d="M60 812.07a6 6 0 0 1 6-6h68a6 6 0 0 1 6 6v168a6 6 0 0 1-6 6H66a6 6 0 0 1-6-6z" fill="none"/><use xlink:href="#ai" transform="matrix(1,0,0,1,-20,964.0683751048377) translate(81.7283950617284 17.77777777777778)"/><path d="M940 1340c0 33.14-35.82 60-80 60s-80-26.86-80-60 35.82-60 80-60 80 26.86 80 60z" stroke="#3a414a" fill="#fff"/><use xlink:href="#aj" transform="matrix(1,0,0,1,780,1280) translate(52.505 63.15)"/><path d="M612.5 816.07c0 33.13-35.82 60-80 60s-80-26.87-80-60c0-33.14 35.82-60 80-60s80 26.86 80 60z" stroke="#3a414a" fill="#635dff"/><use xlink:href="#ak" transform="matrix(1,0,0,1,452.5,756.0683751048377) translate(34.029999999999994 51.9)"/><use xlink:href="#t" transform="matrix(1,0,0,1,452.5,756.0683751048377) translate(100.98 51.9)"/><use xlink:href="#al" transform="matrix(1,0,0,1,452.5,756.0683751048377) translate(37.62999999999999 73.5)"/><path d="M612.5 973.57c0 33.13-35.82 60-80 60s-80-26.86-80-60 35.82-60 80-60 80 26.86 80 60z" stroke="#3a414a" fill="#fff"/><use xlink:href="#am" transform="matrix(1,0,0,1,452.5,913.5683751048377) translate(28.729999999999997 51.9)"/><use xlink:href="#h" transform="matrix(1,0,0,1,452.5,913.5683751048377) translate(72.28 51.9)"/><use xlink:href="#an" transform="matrix(1,0,0,1,452.5,913.5683751048377) translate(50.05499999999999 73.5)"/><path d="M612.5 540c0 33.14-35.82 60-80 60s-80-26.86-80-60 35.82-60 80-60 80 26.86 80 60z" stroke="#3a414a" fill="#fff"/><use xlink:href="#am" transform="matrix(1,0,0,1,452.5,480) translate(9.255000000000004 63.15)"/><use xlink:href="#ao" transform="matrix(1,0,0,1,452.5,480) translate(52.80500000000001 63.15)"/><use xlink:href="#i" transform="matrix(1,0,0,1,452.5,480) translate(116.805 63.15)"/><path d="M1188.16 1140c0 33.14-35.8 60-80 60-44.18 0-80-26.86-80-60s35.82-60 80-60c44.2 0 80 26.86 80 60z" stroke="#3a414a" fill="#635dff"/><use xlink:href="#A" transform="matrix(1,0,0,1,1028.1638388576484,1080) translate(37.605 63.15)"/><use xlink:href="#ap" transform="matrix(1,0,0,1,1028.1638388576484,1080) translate(73.555 63.15)"/><path d="M140.5 1610" stroke="#3a414a" fill="none"/><path d="M612.5 1566.07c0 33.13-35.82 60-80 60s-80-26.87-80-60c0-33.14 35.82-60 80-60s80 26.86 80 60z" stroke="#3a414a" fill="#fff"/><use xlink:href="#c" transform="matrix(1,0,0,1,452.5,1506.0683751048377) translate(13.229999999999999 63.15)"/><use xlink:href="#d" transform="matrix(1,0,0,1,452.5,1506.0683751048377) translate(86.83 63.15)"/><path d="M612.5 1118.57c0 33.13-35.82 60-80 60s-80-26.87-80-60c0-33.14 35.82-60 80-60s80 26.86 80 60z" stroke="#3a414a" fill="#635dff"/><use xlink:href="#aq" transform="matrix(1,0,0,1,452.5,1058.5683751048377) translate(44.05499999999999 63.15)"/><path d="M612.5 1266.07c0 33.13-35.82 60-80 60s-80-26.87-80-60c0-33.14 35.82-60 80-60s80 26.86 80 60z" stroke="#3a414a" fill="#635dff"/><use xlink:href="#ar" transform="matrix(1,0,0,1,452.5,1206.0683751048377) translate(35.029999999999994 63.15)"/><path d="M612.5 1420c0 33.14-35.82 60-80 60s-80-26.86-80-60 35.82-60 80-60 80 26.86 80 60z" stroke="#3a414a" fill="#fff"/><use xlink:href="#e" transform="matrix(1,0,0,1,452.5,1360) translate(57.529999999999994 51.9)"/><use xlink:href="#f" transform="matrix(1,0,0,1,452.5,1360) translate(32.57999999999999 73.5)"/><path d="M140 1631.48" stroke="#3a414a" fill="none"/><path d="M101.5 885h295a6 6 0 0 1 6 6v523a6 6 0 0 0 6 6H451M101.53 885H97.5" stroke="#000" stroke-width="2" fill="none"/><path d="M452 1420v.4l.03.6h-1.06v-2h1.06z" stroke="#000" stroke-width=".05"/><path d="M101.5 885h295a6 6 0 0 1 6 6v369.07a6 6 0 0 0 6 6H451M101.53 885H97.5" stroke="#000" stroke-width="2" fill="none"/><path d="M452 1266.06v.4l.03.6h-1.06v-2h1.06z" stroke="#000" stroke-width=".05"/><path d="M101.5 885h295a6 6 0 0 1 6 6v221.57a6 6 0 0 0 6 6H451M101.53 885H97.5" stroke="#000" stroke-width="2" fill="none"/><path d="M452 1118.56v.4l.03.6h-1.06v-2h1.06z" stroke="#000" stroke-width=".05"/><path d="M101.5 885h295a6 6 0 0 1 6 6v65.8a6 6 0 0 0 6 6h43.8M101.53 885H97.5" stroke="#000" stroke-width="2" fill="none"/><path d="M453.45 962.1l-.38 1.7h-.8v-2h1.26z" stroke="#000" stroke-width=".05"/><path d="M101.5 885h295a6 6 0 0 1 6 6v669.07a6 6 0 0 0 6 6H451M101.53 885H97.5" stroke="#000" stroke-width="2" fill="none"/><path d="M452 1566.06v.4l.03.6h-1.06v-2h1.06z" stroke="#000" stroke-width=".05"/><path d="M101.5 885h295a6 6 0 0 0 6-6v-56.93a6 6 0 0 1 6-6H451M101.53 885H97.5" stroke="#000" stroke-width="2" fill="none"/><path d="M452 816.06v.4l.03.6h-1.06v-2h1.06z" stroke="#000" stroke-width=".05"/><path d="M101.5 885h295a6 6 0 0 0 6-6V546a6 6 0 0 1 6-6H451M101.53 885H97.5" stroke="#000" stroke-width="2" fill="none"/><path d="M452 540v.4l.03.6h-1.06v-2h1.06z" stroke="#000" stroke-width=".05"/><path d="M101.5 885h295a6 6 0 0 1 6 6v443a6 6 0 0 0 6 6h370M101.53 885H97.5" stroke="#000" stroke-width="2" fill="none"/><path d="M779.5 1340v.4l.03.6h-1.06v-2h1.06z" stroke="#000" stroke-width=".05"/><path d="M101.5 885h890a6 6 0 0 1 6 6v243a6 6 0 0 0 6 6h23.16M101.53 885H97.5" stroke="#000" stroke-width="2" fill="none"/><path d="M1027.66 1140v.4l.03.6h-1.06v-2h1.05z" stroke="#000" stroke-width=".05"/><path d="M240.5 1710" stroke="#3a414a" fill="none"/><path d="M141 1800h143a6 6 0 0 1 6 6v328a6 6 0 0 0 6 6h462.57a6 6 0 0 1 6 6v12.5" stroke="#00f" stroke-width="2" fill="none"/><path d="M141.03 1801H137v-2h4.03zM765.57 2159.53l-1-.03h-1v-1.03h2z" stroke="#00f" stroke-width=".05" fill="#00f"/><path d="M102 885h292a6 6 0 0 0 6-6V726a6 6 0 0 1 6-6h392M102.04 885H97.5" stroke="#3a414a" stroke-width="3" fill="none"/><path d="M799.5 720v1.37l.02.13h-1.56v-3h1.58z" stroke="#3a414a" stroke-width=".05" fill="#3a414a"/><path d="M1776.03 870H1723a5 5 0 0 1-5-5 5 5 0 0 0-5-5H906a6 6 0 0 1-6-6v-52.5M1776 870h4.03" stroke="#008a0e" stroke-width="2" fill="none"/><path d="M900 800.5h1v1.03h-2v-1.05z" stroke="#008a0e" stroke-width=".05" fill="#008a0e"/><path d="M1776 858.6h-570a6 6 0 0 0-6 6V1334a6 6 0 0 1-6 6H941.5M1775.97 858.6h4.03" stroke="#008a0e" stroke-width="2" fill="none"/><path d="M941.53 1341h-1.06l.03-1v-.4l-.03-.6h1.06z" stroke="#008a0e" stroke-width=".05" fill="#008a0e"/><path d="M1776 858.6H746a6 6 0 0 0-6 6V1414a6 6 0 0 1-6 6H614M1775.97 858.6h4.03" stroke="#008a0e" stroke-width="2" fill="none"/><path d="M614.03 1421h-1.06l.03-1v-.4l-.03-.6h1.06z" stroke="#008a0e" stroke-width=".05" fill="#008a0e"/><path d="M1776 858.6h-450a6 6 0 0 0-6 6v213.9M1775.97 858.6h4.03" stroke="#008a0e" stroke-width="2" fill="none"/><path d="M1321 1079.53l-1-.03h-1v-1.03h2z" stroke="#008a0e" stroke-width=".05" fill="#008a0e"/><path d="M1776 858.6h-230a6 6 0 0 0-6 6v133.9M1775.97 858.6h4.03" stroke="#008a0e" stroke-width="2" fill="none"/><path d="M1541 999.53l-1-.03h-1v-1.03h2z" stroke="#008a0e" stroke-width=".05" fill="#008a0e"/><path d="M1776 858.6h-120a6 6 0 0 0-6 6v342.97a6 6 0 0 1-6 6h-2.5M1775.97 858.6h4.03" stroke="#008a0e" stroke-width="2" fill="none"/><path d="M1641.53 1214.57h-1.06l.03-1v-.4l-.03-.6h1.06z" stroke="#008a0e" stroke-width=".05" fill="#008a0e"/><path d="M1776 858.6h-661.84a6 6 0 0 0-6 6v213.9M1775.97 858.6h4.03" stroke="#008a0e" stroke-width="2" fill="none"/><path d="M1109.16 1079.53l-1-.03h-1v-1.03h2z" stroke="#008a0e" stroke-width=".05" fill="#008a0e"/><path d="M1776 1398.6h-320a6 6 0 0 0-6 6v348.9a5 5 0 0 1-5 5 5 5 0 0 0-5 5v15M1775.97 1398.6h4.03" stroke="#e81313" stroke-width="2" fill="none"/><path d="M1441 1779.53l-1-.03h-1v-1.03h2z" stroke="#e81313" stroke-width=".05" fill="#e81313"/><path d="M1776 1398.6h-320a6 6 0 0 0-6 6v275.47a6 6 0 0 0 6 6h22.5M1775.97 1398.6h4.03" stroke="#e81313" stroke-width="2" fill="none"/><path d="M1479.5 1686.06v.4l.03.6h-1.06v-2h1.06z" stroke="#e81313" stroke-width=".05" fill="#e81313"/><path d="M1640 660c0 33.14-35.82 60-80 60s-80-26.86-80-60 35.82-60 80-60 80 26.86 80 60z" stroke="#3a414a" fill="#ba23f6"/><g><use xlink:href="#as" transform="matrix(1,0,0,1,1480,600) translate(26.554999999999993 51.9)"/><use xlink:href="#t" transform="matrix(1,0,0,1,1480,600) translate(108.45500000000001 51.9)"/><use xlink:href="#at" transform="matrix(1,0,0,1,1480,600) translate(17.07999999999999 73.5)"/><use xlink:href="#au" transform="matrix(1,0,0,1,1480,600) translate(72.03 73.5)"/></g><path d="M1420 580c0 33.14-35.82 60-80 60s-80-26.86-80-60 35.82-60 80-60 80 26.86 80 60z" stroke="#3a414a" fill="#ba23f6"/><g><use xlink:href="#av" transform="matrix(1,0,0,1,1260,520) translate(24.454999999999995 40.65)"/><use xlink:href="#aw" transform="matrix(1,0,0,1,1260,520) translate(125.555 40.65)"/><use xlink:href="#ax" transform="matrix(1,0,0,1,1260,520) translate(27.62999999999999 62.25)"/><use xlink:href="#m" transform="matrix(1,0,0,1,1260,520) translate(117.38000000000001 62.25)"/><use xlink:href="#ay" transform="matrix(1,0,0,1,1260,520) translate(22.05499999999999 83.85000000000001)"/><use xlink:href="#az" transform="matrix(1,0,0,1,1260,520) translate(88.005 83.85000000000001)"/></g><path d="M1620 500c0 33.14-35.82 60-80 60s-80-26.86-80-60 35.82-60 80-60 80 26.86 80 60z" stroke="#3a414a" fill="#ba23f6"/><g><use xlink:href="#av" transform="matrix(1,0,0,1,1460,440) translate(24.454999999999995 40.65)"/><use xlink:href="#aw" transform="matrix(1,0,0,1,1460,440) translate(125.555 40.65)"/><use xlink:href="#aA" transform="matrix(1,0,0,1,1460,440) translate(39.004999999999995 62.25)"/><use xlink:href="#m" transform="matrix(1,0,0,1,1460,440) translate(106.005 62.25)"/><use xlink:href="#ay" transform="matrix(1,0,0,1,1460,440) translate(22.05499999999999 83.85000000000001)"/><use xlink:href="#az" transform="matrix(1,0,0,1,1460,440) translate(88.005 83.85000000000001)"/></g><path d="M1776 858.6h-320a6 6 0 0 1-6-6V586a6 6 0 0 0-6-6h-22.5M1775.97 858.6h4.03" stroke="#008a0e" stroke-width="2" fill="none"/><path d="M1421.53 581h-1.06l.03-1v-.4l-.03-.6h1.06z" stroke="#008a0e" stroke-width=".05" fill="#008a0e"/><path d="M1776 858.6h-320a6 6 0 0 1-6-6V666a6 6 0 0 1 6-6h22.5M1775.97 858.6h4.03" stroke="#008a0e" stroke-width="2" fill="none"/><path d="M1479.5 660v.4l.03.6h-1.06v-2h1.06z" stroke="#008a0e" stroke-width=".05" fill="#008a0e"/><path d="M1776 858.6h-320a6 6 0 0 1-6-6V506a6 6 0 0 1 6-6h2.5M1775.97 858.6h4.03" stroke="#008a0e" stroke-width="2" fill="none"/><path d="M1459.5 500v.4l.03.6h-1.06v-2h1.06z" stroke="#008a0e" stroke-width=".05" fill="#008a0e"/><path d="M1188.16 380c0 33.14-35.8 60-80 60-44.18 0-80-26.86-80-60s35.82-60 80-60c44.2 0 80 26.86 80 60z" stroke="#3a414a" fill="#fff"/><g><use xlink:href="#aB" transform="matrix(1,0,0,1,1028.1638388576484,320) translate(22.505000000000003 51.9)"/><use xlink:href="#aC" transform="matrix(1,0,0,1,1028.1638388576484,320) translate(74.50500000000001 51.9)"/><use xlink:href="#aa" transform="matrix(1,0,0,1,1028.1638388576484,320) translate(25.505000000000003 73.5)"/><use xlink:href="#aD" transform="matrix(1,0,0,1,1028.1638388576484,320) translate(65.505 73.5)"/><use xlink:href="#aE" transform="matrix(1,0,0,1,1028.1638388576484,320) translate(100.505 73.5)"/></g><path d="M989.27 676.15h-4.9v-1h4.9zm14.72 0h-9.82v-1h9.8zm14.72 0h-9.82v-1h9.82zm14.72 0h-9.8v-1h9.8zm14.73 0h-9.82v-1h9.82zm14.73 0h-9.82v-1h9.82zm14.72 0h-9.82v-1h9.82zm14.73 0h-9.82v-1h9.82zm16.3-6.48l-.07 1-.23 1-.4.93-.53.87-.66.78-.78.66-.87.55-.93.38-1 .24-1 .08h-4.9v-1h4.87l.88-.07.84-.2.8-.33.74-.45.65-.56.56-.66.46-.73.33-.8.2-.84.06-.87v-5.04h1zm0-10.15h-1v-1.16h1zm0-22.5h-1v-2.83h1zm0-7.9h-1V619h1zm0-15.2h-1V603.8h1zm0-15.2h-1V588.6h1zm0-15.2h-1V573.4h1zm0-15.2h-1V558.2h1zm0-15.18h-1V543h1zm0-15.2h-1V527.8h1zm0-15.2h-1V512.6h1zm0-15.2h-1V497.4h1zm0-15.2h-1v-10.13h1zm0-15.2h-1v-10.12h1zm0-15.2h-1v-5.06h1z" stroke="#3a414a" stroke-width=".05" fill="#3a414a"/><path d="M984.37 676.15l-.93-1h.93z" fill="#3a414a"/><path d="M984.4 676.22l-1.02-1.1h1.02zm-.9-1.04l.85.9v-.9z" stroke="#3a414a" stroke-width=".05" fill="#3a414a"/><path d="M1112.8 456.38h-9.27l4.63-14.26z" fill="#3a414a"/><path d="M1113.5 456.88h-10.66l5.32-16.38zm-9.28-1h7.9l-3.96-12.14z" stroke="#3a414a" stroke-width=".05" fill="#3a414a"/><g><use xlink:href="#aF" transform="matrix(1,0,0,1,1056.3860610798706,637.025740174145) translate(0 14.222222222222223)"/></g><path d="M980 380c0 33.14-35.82 60-80 60s-80-26.86-80-60 35.82-60 80-60 80 26.86 80 60z" stroke="#3a414a" fill="#fff"/><g><use xlink:href="#aG" transform="matrix(1,0,0,1,820,320) translate(35.555 63.15)"/><use xlink:href="#C" transform="matrix(1,0,0,1,820,320) translate(89.45500000000001 63.15)"/></g><path d="M900.5 623.12h-1v-5.06h1zm0-10.12h-1v-10.12h1zm0-15.18h-1V587.7h1zm0-15.17h-1v-10.12h1zm0-33.34h-1v-7.12h1zm0-12.18h-1V527h1zm0-15.18h-1v-10.12h1zm0-15.18h-1v-10.1h1zm0-15.17h-1v-10.13h1zm0-15.2h-1v-10.1h1zm0-15.16h-1V451.1h1zm0-15.18h-1V441h1z" stroke="#3a414a" stroke-width=".05" fill="#3a414a"/><path d="M900 440.5h.5v.5h-1v-.5z" fill="#3a414a"/><path d="M900 440.48h.52v.56h-1.04v-.58zm-.48.5h.96v-.46h-.96z" stroke="#3a414a" stroke-width=".05" fill="#3a414a"/><path d="M900 637.88l-4.63-14.26h9.26z" fill="#3a414a"/><path d="M900 639.5l-5.32-16.38h10.64zm-3.95-15.38l3.95 12.14 3.95-12.14z" stroke="#3a414a" stroke-width=".05" fill="#3a414a"/><g><use xlink:href="#aH" transform="matrix(1,0,0,1,845.7530864197531,549.3101535136751) translate(0 14.222222222222223)"/></g><path d="M1000 720c0 44.18-44.77 80-100 80s-100-35.82-100-80 44.77-80 100-80 100 35.82 100 80zm-200 0h200" stroke="#3a414a" fill="#fff"/><g><use xlink:href="#aI" transform="matrix(1,0,0,1,830,656) translate(48.025 35.6)"/></g><g><use xlink:href="#aG" transform="matrix(1,0,0,1,830,744) translate(25.549999999999997 19.6)"/><use xlink:href="#C" transform="matrix(1,0,0,1,830,744) translate(79.45 19.6)"/></g><g><use xlink:href="#aJ" transform="matrix(1,0,0,1,800,720) translate(27.174999999999983 15.6)"/><use xlink:href="#aK" transform="matrix(1,0,0,1,800,720) translate(117.975 15.6)"/></g><path d="M104 1788.6h15.3a5.7 5.7 0 0 1 5.7 5.7 5.7 5.7 0 0 0 5.7 5.7H1014a6 6 0 0 0 6-6v-487.64a6 6 0 0 1 6-6h55.02a6 6 0 0 0 6-6v-95M104.03 1788.6H100" stroke="#00f" stroke-width="2" fill="none"/><path d="M1088.02 1198.58v.8h-2v-1.24z" stroke="#00f" stroke-width=".05" fill="#00f"/><path d="M104 1788.6h15.3a5.7 5.7 0 0 1 5.7 5.7 5.7 5.7 0 0 0 5.7 5.7H1014a6 6 0 0 0 6-6v-448a6 6 0 0 0-6-6h-72.5M104.03 1788.6H100" stroke="#00f" stroke-width="2" fill="none"/><path d="M941.53 1341h-1.06l.03-1v-.4l-.03-.6h1.06z" stroke="#00f" stroke-width=".05" fill="#00f"/><path d="M104 1788.6h15.3a5.7 5.7 0 0 1 5.7 5.7 5.7 5.7 0 0 0 5.7 5.7H1014a6 6 0 0 0 6-6V764.15a6 6 0 0 0-6-6h-24.5M104.03 1788.6H100" stroke="#00f" stroke-width="2" fill="none"/><path d="M989.53 759.15h-1.7l.36-.5.95-1.5h.38z" stroke="#00f" stroke-width=".05" fill="#00f"/><path d="M1776 1398.6H880.98M1775.97 1398.6h4.03" stroke="#e81313" stroke-width="2" fill="none"/><path d="M881 1399.6H877v-.5l3.62-.6.4-.1z" stroke="#e81313" stroke-width=".05" fill="#e81313"/><path d="M1776 1398.6H964.77a6 6 0 0 1-6-6V786.3M1775.97 1398.6h4.03" stroke="#e81313" stroke-width="2" fill="none"/><path d="M959.77 786.33h-2v-.47l.68-.37 1.32-.8z" stroke="#e81313" stroke-width=".05" fill="#e81313"/><path d="M1776 1398.6H876a6 6 0 0 0-6 6v9.4a6 6 0 0 1-6 6H614M1775.97 1398.6h4.03" stroke="#e81313" stroke-width="2" fill="none"/><path d="M614.03 1421h-1.06l.03-1v-.4l-.03-.6h1.06z" stroke="#e81313" stroke-width=".05" fill="#e81313"/><path d="M1420 1300c0 33.14-35.82 60-80 60s-80-26.86-80-60 35.82-60 80-60 80 26.86 80 60z" stroke="#3a414a" fill="#fff"/><g><use xlink:href="#aL" transform="matrix(1,0,0,1,1260,1240) translate(18.551115451388917 64.00607638888889)"/><use xlink:href="#aM" transform="matrix(1,0,0,1,1260,1240) translate(51.89768663194446 64.00607638888889)"/><use xlink:href="#aN" transform="matrix(1,0,0,1,1260,1240) translate(86.1114453125 64.00607638888889)"/></g><path d="M1776 1398.6h-430a6 6 0 0 1-6-6v-31.1M1775.97 1398.6h4.03" stroke="#e81313" stroke-width="2" fill="none"/><path d="M1340 1360.5h1v1.03h-2v-1.06z" stroke="#e81313" stroke-width=".05" fill="#e81313"/><defs><path fill="#3a414a" d="M185-189c-5-48-123-54-124 2 14 75 158 14 163 119 3 78-121 87-175 55-17-10-28-26-33-46l33-7c5 56 141 63 141-1 0-78-155-14-162-118-5-82 145-84 179-34 5 7 8 16 11 25" id="aO"/><path fill="#3a414a" d="M84 4C-5 8 30-112 23-190h32v120c0 31 7 50 39 49 72-2 45-101 50-169h31l1 190h-30c-1-10 1-25-2-33-11 22-28 36-60 37" id="aP"/><path fill="#3a414a" d="M115-194c55 1 70 41 70 98S169 2 115 4C84 4 66-9 55-30l1 105H24l-1-265h31l2 30c10-21 28-34 59-34zm-8 174c40 0 45-34 45-75s-6-73-45-74c-42 0-51 32-51 76 0 43 10 73 51 73" id="aQ"/><path fill="#3a414a" d="M100-194c63 0 86 42 84 106H49c0 40 14 67 53 68 26 1 43-12 49-29l28 8c-11 28-37 45-77 45C44 4 14-33 15-96c1-61 26-98 85-98zm52 81c6-60-76-77-97-28-3 7-6 17-6 28h103" id="aR"/><path fill="#3a414a" d="M114-163C36-179 61-72 57 0H25l-1-190h30c1 12-1 29 2 39 6-27 23-49 58-41v29" id="aS"/><path fill="#3a414a" d="M108 0H70L1-190h34L89-25l56-165h34" id="aT"/><path fill="#3a414a" d="M24-231v-30h32v30H24zM24 0v-190h32V0H24" id="aU"/><path fill="#3a414a" d="M135-143c-3-34-86-38-87 0 15 53 115 12 119 90S17 21 10-45l28-5c4 36 97 45 98 0-10-56-113-15-118-90-4-57 82-63 122-42 12 7 21 19 24 35" id="aV"/><path fill="#3a414a" d="M100-194c62-1 85 37 85 99 1 63-27 99-86 99S16-35 15-95c0-66 28-99 85-99zM99-20c44 1 53-31 53-75 0-43-8-75-51-75s-53 32-53 75 10 74 51 75" id="aW"/><g id="a"><use transform="matrix(0.06172839506172839,0,0,0.06172839506172839,0,0)" xlink:href="#aO"/><use transform="matrix(0.06172839506172839,0,0,0.06172839506172839,14.814814814814813,0)" xlink:href="#aP"/><use transform="matrix(0.06172839506172839,0,0,0.06172839506172839,27.160493827160494,0)" xlink:href="#aQ"/><use transform="matrix(0.06172839506172839,0,0,0.06172839506172839,39.50617283950617,0)" xlink:href="#aR"/><use transform="matrix(0.06172839506172839,0,0,0.06172839506172839,51.85185185185185,0)" xlink:href="#aS"/><use transform="matrix(0.06172839506172839,0,0,0.06172839506172839,59.197530864197525,0)" xlink:href="#aT"/><use transform="matrix(0.06172839506172839,0,0,0.06172839506172839,70.30864197530863,0)" xlink:href="#aU"/><use transform="matrix(0.06172839506172839,0,0,0.06172839506172839,75.18518518518518,0)" xlink:href="#aV"/><use transform="matrix(0.06172839506172839,0,0,0.06172839506172839,86.29629629629629,0)" xlink:href="#aW"/><use transform="matrix(0.06172839506172839,0,0,0.06172839506172839,98.64197530864197,0)" xlink:href="#aS"/></g><path fill="#3a414a" d="M240 0l2-218c-23 76-54 145-80 218h-23L58-218 59 0H30v-248h44l77 211c21-75 51-140 76-211h43V0h-30" id="aX"/><path fill="#3a414a" d="M210-169c-67 3-38 105-44 169h-31v-121c0-29-5-50-35-48C34-165 62-65 56 0H25l-1-190h30c1 10-1 24 2 32 10-44 99-50 107 0 11-21 27-35 58-36 85-2 47 119 55 194h-31v-121c0-29-5-49-35-48" id="aY"/><path fill="#3a414a" d="M9 0v-24l116-142H16v-24h144v24L44-24h123V0H9" id="aZ"/><g id="b"><use transform="matrix(0.06172839506172839,0,0,0.06172839506172839,0,0)" xlink:href="#aX"/><use transform="matrix(0.06172839506172839,0,0,0.06172839506172839,18.456790123456788,0)" xlink:href="#aR"/><use transform="matrix(0.06172839506172839,0,0,0.06172839506172839,30.80246913580247,0)" xlink:href="#aY"/><use transform="matrix(0.06172839506172839,0,0,0.06172839506172839,49.25925925925925,0)" xlink:href="#aW"/><use transform="matrix(0.06172839506172839,0,0,0.06172839506172839,61.60493827160493,0)" xlink:href="#aS"/><use transform="matrix(0.06172839506172839,0,0,0.06172839506172839,68.9506172839506,0)" xlink:href="#aU"/><use transform="matrix(0.06172839506172839,0,0,0.06172839506172839,73.82716049382715,0)" xlink:href="#aZ"/><use transform="matrix(0.06172839506172839,0,0,0.06172839506172839,84.93827160493827,0)" xlink:href="#aR"/><use transform="matrix(0.06172839506172839,0,0,0.06172839506172839,97.28395061728395,0)" xlink:href="#aS"/></g><path d="M137 0h-34L2-248h35l83 218 83-218h36" id="ba"/><path d="M141-36C126-15 110 5 73 4 37 3 15-17 15-53c-1-64 63-63 125-63 3-35-9-54-41-54-24 1-41 7-42 31l-33-3c5-37 33-52 76-52 45 0 72 20 72 64v82c-1 20 7 32 28 27v20c-31 9-61-2-59-35zM48-53c0 20 12 33 32 33 41-3 63-29 60-74-43 2-92-5-92 41" id="bb"/><path d="M96-169c-40 0-48 33-48 73s9 75 48 75c24 0 41-14 43-38l32 2c-6 37-31 61-74 61-59 0-76-41-82-99-10-93 101-131 147-64 4 7 5 14 7 22l-32 3c-4-21-16-35-41-35" id="bc"/><path d="M59-47c-2 24 18 29 38 22v24C64 9 27 4 27-40v-127H5v-23h24l9-43h21v43h35v23H59v120" id="bd"/><path d="M24-231v-30h32v30H24zM24 0v-190h32V0H24" id="be"/><path d="M100-194c62-1 85 37 85 99 1 63-27 99-86 99S16-35 15-95c0-66 28-99 85-99zM99-20c44 1 53-31 53-75 0-43-8-75-51-75s-53 32-53 75 10 74 51 75" id="bf"/><path d="M117-194c89-4 53 116 60 194h-32v-121c0-31-8-49-39-48C34-167 62-67 57 0H25l-1-190h30c1 10-1 24 2 32 11-22 29-35 61-36" id="bg"/><g id="c"><use transform="matrix(0.05,0,0,0.05,0,0)" xlink:href="#ba"/><use transform="matrix(0.05,0,0,0.05,10.65,0)" xlink:href="#bb"/><use transform="matrix(0.05,0,0,0.05,20.65,0)" xlink:href="#bc"/><use transform="matrix(0.05,0,0,0.05,29.649999999999995,0)" xlink:href="#bb"/><use transform="matrix(0.05,0,0,0.05,39.65,0)" xlink:href="#bd"/><use transform="matrix(0.05,0,0,0.05,44.65,0)" xlink:href="#be"/><use transform="matrix(0.05,0,0,0.05,48.6,0)" xlink:href="#bf"/><use transform="matrix(0.05,0,0,0.05,58.6,0)" xlink:href="#bg"/></g><path d="M114-163C36-179 61-72 57 0H25l-1-190h30c1 12-1 29 2 39 6-27 23-49 58-41v29" id="bh"/><path d="M100-194c63 0 86 42 84 106H49c0 40 14 67 53 68 26 1 43-12 49-29l28 8c-11 28-37 45-77 45C44 4 14-33 15-96c1-61 26-98 85-98zm52 81c6-60-76-77-97-28-3 7-6 17-6 28h103" id="bi"/><path d="M145-31C134-9 116 4 85 4 32 4 16-35 15-94c0-59 17-99 70-100 32-1 48 14 60 33 0-11-1-24 2-32h30l-1 268h-32zM93-21c41 0 51-33 51-76s-8-73-50-73c-40 0-46 35-46 75s5 74 45 74" id="bj"/><path d="M84 4C-5 8 30-112 23-190h32v120c0 31 7 50 39 49 72-2 45-101 50-169h31l1 190h-30c-1-10 1-25-2-33-11 22-28 36-60 37" id="bk"/><path d="M135-143c-3-34-86-38-87 0 15 53 115 12 119 90S17 21 10-45l28-5c4 36 97 45 98 0-10-56-113-15-118-90-4-57 82-63 122-42 12 7 21 19 24 35" id="bl"/><g id="d"><use transform="matrix(0.05,0,0,0.05,0,0)" xlink:href="#bh"/><use transform="matrix(0.05,0,0,0.05,5.95,0)" xlink:href="#bi"/><use transform="matrix(0.05,0,0,0.05,15.949999999999998,0)" xlink:href="#bj"/><use transform="matrix(0.05,0,0,0.05,25.950000000000003,0)" xlink:href="#bk"/><use transform="matrix(0.05,0,0,0.05,35.95,0)" xlink:href="#bi"/><use transform="matrix(0.05,0,0,0.05,45.95,0)" xlink:href="#bl"/><use transform="matrix(0.05,0,0,0.05,54.95,0)" xlink:href="#bd"/></g><path d="M185-189c-5-48-123-54-124 2 14 75 158 14 163 119 3 78-121 87-175 55-17-10-28-26-33-46l33-7c5 56 141 63 141-1 0-78-155-14-162-118-5-82 145-84 179-34 5 7 8 16 11 25" id="bm"/><path d="M106-169C34-169 62-67 57 0H25v-261h32l-1 103c12-21 28-36 61-36 89 0 53 116 60 194h-32v-121c2-32-8-49-39-48" id="bn"/><path d="M206 0h-36l-40-164L89 0H53L-1-190h32L70-26l43-164h34l41 164 42-164h31" id="bo"/><g id="e"><use transform="matrix(0.05,0,0,0.05,0,0)" xlink:href="#bm"/><use transform="matrix(0.05,0,0,0.05,12,0)" xlink:href="#bn"/><use transform="matrix(0.05,0,0,0.05,22,0)" xlink:href="#bf"/><use transform="matrix(0.05,0,0,0.05,32,0)" xlink:href="#bo"/></g><path d="M101-234c-31-9-42 10-38 44h38v23H63V0H32v-167H5v-23h27c-7-52 17-82 69-68v24" id="bp"/><g id="f"><use transform="matrix(0.05,0,0,0.05,0,0)" xlink:href="#bg"/><use transform="matrix(0.05,0,0,0.05,10,0)" xlink:href="#bf"/><use transform="matrix(0.05,0,0,0.05,20,0)" xlink:href="#bd"/><use transform="matrix(0.05,0,0,0.05,25,0)" xlink:href="#be"/><use transform="matrix(0.05,0,0,0.05,28.950000000000003,0)" xlink:href="#bp"/><use transform="matrix(0.05,0,0,0.05,33.95,0)" xlink:href="#be"/><use transform="matrix(0.05,0,0,0.05,37.900000000000006,0)" xlink:href="#bc"/><use transform="matrix(0.05,0,0,0.05,46.900000000000006,0)" xlink:href="#bb"/><use transform="matrix(0.05,0,0,0.05,56.900000000000006,0)" xlink:href="#bd"/><use transform="matrix(0.05,0,0,0.05,61.900000000000006,0)" xlink:href="#be"/><use transform="matrix(0.05,0,0,0.05,65.85000000000001,0)" xlink:href="#bf"/><use transform="matrix(0.05,0,0,0.05,75.85000000000001,0)" xlink:href="#bg"/><use transform="matrix(0.05,0,0,0.05,85.85000000000001,0)" xlink:href="#bl"/></g><path d="M212-179c-10-28-35-45-73-45-59 0-87 40-87 99 0 60 29 101 89 101 43 0 62-24 78-52l27 14C228-24 195 4 139 4 59 4 22-46 18-125c-6-104 99-153 187-111 19 9 31 26 39 46" id="bq"/><g id="g"><use transform="matrix(0.05,0,0,0.05,0,0)" xlink:href="#bq"/><use transform="matrix(0.05,0,0,0.05,12.950000000000001,0)" xlink:href="#bh"/><use transform="matrix(0.05,0,0,0.05,18.900000000000002,0)" xlink:href="#bi"/><use transform="matrix(0.05,0,0,0.05,28.900000000000002,0)" xlink:href="#bb"/><use transform="matrix(0.05,0,0,0.05,38.900000000000006,0)" xlink:href="#bd"/><use transform="matrix(0.05,0,0,0.05,43.900000000000006,0)" xlink:href="#bi"/></g><path d="M85-194c31 0 48 13 60 33l-1-100h32l1 261h-30c-2-10 0-23-3-31C134-8 116 4 85 4 32 4 16-35 15-94c0-66 23-100 70-100zm9 24c-40 0-46 34-46 75 0 40 6 74 45 74 42 0 51-32 51-76 0-42-9-74-50-73" id="br"/><g id="h"><use transform="matrix(0.05,0,0,0.05,0,0)" xlink:href="#bl"/><use transform="matrix(0.05,0,0,0.05,9,0)" xlink:href="#bd"/><use transform="matrix(0.05,0,0,0.05,14,0)" xlink:href="#bk"/><use transform="matrix(0.05,0,0,0.05,24,0)" xlink:href="#br"/><use transform="matrix(0.05,0,0,0.05,34,0)" xlink:href="#bi"/><use transform="matrix(0.05,0,0,0.05,44,0)" xlink:href="#bg"/><use transform="matrix(0.05,0,0,0.05,54,0)" xlink:href="#bd"/></g><path d="M115-194c55 1 70 41 70 98S169 2 115 4C84 4 66-9 55-30l1 105H24l-1-265h31l2 30c10-21 28-34 59-34zm-8 174c40 0 45-34 45-75s-6-73-45-74c-42 0-51 32-51 76 0 43 10 73 51 73" id="bs"/><path d="M24 0v-261h32V0H24" id="bt"/><g id="i"><use transform="matrix(0.05,0,0,0.05,0,0)" xlink:href="#bs"/><use transform="matrix(0.05,0,0,0.05,10,0)" xlink:href="#bt"/><use transform="matrix(0.05,0,0,0.05,13.949999999999998,0)" xlink:href="#bb"/><use transform="matrix(0.05,0,0,0.05,23.95,0)" xlink:href="#bg"/></g><path d="M205 0l-28-72H64L36 0H1l101-248h38L239 0h-34zm-38-99l-47-123c-12 45-31 82-46 123h93" id="bu"/><g id="j"><use transform="matrix(0.05,0,0,0.05,0,0)" xlink:href="#bu"/><use transform="matrix(0.05,0,0,0.05,12,0)" xlink:href="#br"/><use transform="matrix(0.05,0,0,0.05,22,0)" xlink:href="#br"/></g><g id="k"><use transform="matrix(0.05,0,0,0.05,0,0)" xlink:href="#bh"/><use transform="matrix(0.05,0,0,0.05,5.95,0)" xlink:href="#bi"/><use transform="matrix(0.05,0,0,0.05,15.949999999999998,0)" xlink:href="#bc"/><use transform="matrix(0.05,0,0,0.05,24.95,0)" xlink:href="#bf"/><use transform="matrix(0.05,0,0,0.05,34.95,0)" xlink:href="#bh"/><use transform="matrix(0.05,0,0,0.05,40.900000000000006,0)" xlink:href="#br"/></g><path d="M233-177c-1 41-23 64-60 70L243 0h-38l-65-103H63V0H30v-248c88 3 205-21 203 71zM63-129c60-2 137 13 137-47 0-61-80-42-137-45v92" id="bv"/><g id="l"><use transform="matrix(0.05,0,0,0.05,0,0)" xlink:href="#bv"/><use transform="matrix(0.05,0,0,0.05,12.950000000000001,0)" xlink:href="#bi"/><use transform="matrix(0.05,0,0,0.05,22.950000000000003,0)" xlink:href="#bj"/><use transform="matrix(0.05,0,0,0.05,32.95,0)" xlink:href="#bk"/><use transform="matrix(0.05,0,0,0.05,42.95,0)" xlink:href="#bi"/><use transform="matrix(0.05,0,0,0.05,52.95,0)" xlink:href="#bl"/><use transform="matrix(0.05,0,0,0.05,61.95,0)" xlink:href="#bd"/></g><g id="m"><use transform="matrix(0.05,0,0,0.05,0,0)" xlink:href="#bd"/><use transform="matrix(0.05,0,0,0.05,5,0)" xlink:href="#bf"/></g><g id="n"><use transform="matrix(0.05,0,0,0.05,0,0)" xlink:href="#bl"/><use transform="matrix(0.05,0,0,0.05,9,0)" xlink:href="#bi"/><use transform="matrix(0.05,0,0,0.05,19,0)" xlink:href="#bg"/><use transform="matrix(0.05,0,0,0.05,29,0)" xlink:href="#br"/></g><use transform="matrix(0.05,0,0,0.05,0,0)" xlink:href="#bb" id="o"/><path d="M177-190C167-65 218 103 67 71c-23-6-38-20-44-43l32-5c15 47 100 32 89-28v-30C133-14 115 1 83 1 29 1 15-40 15-95c0-56 16-97 71-98 29-1 48 16 59 35 1-10 0-23 2-32h30zM94-22c36 0 50-32 50-73 0-42-14-75-50-75-39 0-46 34-46 75s6 73 46 73" id="bw"/><g id="p"><use transform="matrix(0.05,0,0,0.05,0,0)" xlink:href="#bo"/><use transform="matrix(0.05,0,0,0.05,12.950000000000001,0)" xlink:href="#bb"/><use transform="matrix(0.05,0,0,0.05,22.950000000000003,0)" xlink:href="#bh"/><use transform="matrix(0.05,0,0,0.05,28.900000000000002,0)" xlink:href="#bg"/><use transform="matrix(0.05,0,0,0.05,38.900000000000006,0)" xlink:href="#be"/><use transform="matrix(0.05,0,0,0.05,42.85000000000001,0)" xlink:href="#bg"/><use transform="matrix(0.05,0,0,0.05,52.85,0)" xlink:href="#bw"/></g><g id="q"><use transform="matrix(0.05,0,0,0.05,0,0)" xlink:href="#bd"/><use transform="matrix(0.05,0,0,0.05,5,0)" xlink:href="#bn"/><use transform="matrix(0.05,0,0,0.05,15,0)" xlink:href="#bi"/></g><g id="r"><use transform="matrix(0.05,0,0,0.05,0,0)" xlink:href="#bl"/><use transform="matrix(0.05,0,0,0.05,9,0)" xlink:href="#bd"/><use transform="matrix(0.05,0,0,0.05,14,0)" xlink:href="#bk"/><use transform="matrix(0.05,0,0,0.05,24,0)" xlink:href="#br"/><use transform="matrix(0.05,0,0,0.05,34,0)" xlink:href="#bi"/><use transform="matrix(0.05,0,0,0.05,44,0)" xlink:href="#bg"/><use transform="matrix(0.05,0,0,0.05,54,0)" xlink:href="#bd"/></g><path d="M240 0l2-218c-23 76-54 145-80 218h-23L58-218 59 0H30v-248h44l77 211c21-75 51-140 76-211h43V0h-30" id="bx"/><g id="s"><use transform="matrix(0.05,0,0,0.05,0,0)" xlink:href="#bx"/><use transform="matrix(0.05,0,0,0.05,14.950000000000001,0)" xlink:href="#bi"/><use transform="matrix(0.05,0,0,0.05,24.950000000000003,0)" xlink:href="#bl"/><use transform="matrix(0.05,0,0,0.05,33.95,0)" xlink:href="#bl"/><use transform="matrix(0.05,0,0,0.05,42.95,0)" xlink:href="#bb"/><use transform="matrix(0.05,0,0,0.05,52.95,0)" xlink:href="#bw"/><use transform="matrix(0.05,0,0,0.05,62.95,0)" xlink:href="#bi"/></g><g id="t"><use transform="matrix(0.05,0,0,0.05,0,0)" xlink:href="#bd"/><use transform="matrix(0.05,0,0,0.05,5,0)" xlink:href="#bn"/><use transform="matrix(0.05,0,0,0.05,15,0)" xlink:href="#bi"/></g><g id="u"><use transform="matrix(0.05,0,0,0.05,0,0)" xlink:href="#bm"/><use transform="matrix(0.05,0,0,0.05,12,0)" xlink:href="#bi"/><use transform="matrix(0.05,0,0,0.05,22,0)" xlink:href="#bg"/><use transform="matrix(0.05,0,0,0.05,32,0)" xlink:href="#br"/></g><path d="M179-190L93 31C79 59 56 82 12 73V49c39 6 53-20 64-50L1-190h34L92-34l54-156h33" id="by"/><g id="v"><use transform="matrix(0.05,0,0,0.05,0,0)" xlink:href="#br"/><use transform="matrix(0.05,0,0,0.05,10,0)" xlink:href="#bb"/><use transform="matrix(0.05,0,0,0.05,20,0)" xlink:href="#be"/><use transform="matrix(0.05,0,0,0.05,23.95,0)" xlink:href="#bt"/><use transform="matrix(0.05,0,0,0.05,27.899999999999995,0)" xlink:href="#by"/></g><path d="M210-169c-67 3-38 105-44 169h-31v-121c0-29-5-50-35-48C34-165 62-65 56 0H25l-1-190h30c1 10-1 24 2 32 10-44 99-50 107 0 11-21 27-35 58-36 85-2 47 119 55 194h-31v-121c0-29-5-49-35-48" id="bz"/><g id="w"><use transform="matrix(0.05,0,0,0.05,0,0)" xlink:href="#bl"/><use transform="matrix(0.05,0,0,0.05,9,0)" xlink:href="#bd"/><use transform="matrix(0.05,0,0,0.05,14,0)" xlink:href="#bb"/><use transform="matrix(0.05,0,0,0.05,24,0)" xlink:href="#bd"/><use transform="matrix(0.05,0,0,0.05,29,0)" xlink:href="#bi"/><use transform="matrix(0.05,0,0,0.05,39,0)" xlink:href="#bz"/><use transform="matrix(0.05,0,0,0.05,53.95,0)" xlink:href="#bi"/><use transform="matrix(0.05,0,0,0.05,63.95,0)" xlink:href="#bg"/><use transform="matrix(0.05,0,0,0.05,73.95,0)" xlink:href="#bd"/></g><path d="M160-131c35 5 61 23 61 61C221 17 115-2 30 0v-248c76 3 177-17 177 60 0 33-19 50-47 57zm-97-11c50-1 110 9 110-42 0-47-63-36-110-37v79zm0 115c55-2 124 14 124-45 0-56-70-42-124-44v89" id="bA"/><path d="M143 0L79-87 56-68V0H24v-261h32v163l83-92h37l-77 82L181 0h-38" id="bB"/><g id="x"><use transform="matrix(0.05,0,0,0.05,0,0)" xlink:href="#bA"/><use transform="matrix(0.05,0,0,0.05,12,0)" xlink:href="#bf"/><use transform="matrix(0.05,0,0,0.05,22,0)" xlink:href="#bf"/><use transform="matrix(0.05,0,0,0.05,32,0)" xlink:href="#bB"/></g><g id="y"><use transform="matrix(0.05,0,0,0.05,0,0)" xlink:href="#bd"/><use transform="matrix(0.05,0,0,0.05,5,0)" xlink:href="#bi"/><use transform="matrix(0.05,0,0,0.05,15,0)" xlink:href="#bl"/><use transform="matrix(0.05,0,0,0.05,24,0)" xlink:href="#bd"/></g><g id="z"><use transform="matrix(0.05,0,0,0.05,0,0)" xlink:href="#bu"/><use transform="matrix(0.05,0,0,0.05,12,0)" xlink:href="#bd"/><use transform="matrix(0.05,0,0,0.05,17,0)" xlink:href="#bd"/><use transform="matrix(0.05,0,0,0.05,22,0)" xlink:href="#bi"/><use transform="matrix(0.05,0,0,0.05,32,0)" xlink:href="#bg"/><use transform="matrix(0.05,0,0,0.05,42,0)" xlink:href="#br"/><use transform="matrix(0.05,0,0,0.05,52,0)" xlink:href="#bb"/><use transform="matrix(0.05,0,0,0.05,62,0)" xlink:href="#bg"/><use transform="matrix(0.05,0,0,0.05,72,0)" xlink:href="#bc"/><use transform="matrix(0.05,0,0,0.05,81,0)" xlink:href="#bi"/></g><path d="M30 0v-248h187v28H63v79h144v27H63v87h162V0H30" id="bC"/><g id="A"><use transform="matrix(0.05,0,0,0.05,0,0)" xlink:href="#bC"/><use transform="matrix(0.05,0,0,0.05,12,0)" xlink:href="#br"/><use transform="matrix(0.05,0,0,0.05,22,0)" xlink:href="#be"/><use transform="matrix(0.05,0,0,0.05,25.950000000000003,0)" xlink:href="#bd"/></g><g id="B"><use transform="matrix(0.05,0,0,0.05,0,0)" xlink:href="#bl"/><use transform="matrix(0.05,0,0,0.05,9,0)" xlink:href="#bk"/><use transform="matrix(0.05,0,0,0.05,19,0)" xlink:href="#br"/><use transform="matrix(0.05,0,0,0.05,29,0)" xlink:href="#bi"/><use transform="matrix(0.05,0,0,0.05,39,0)" xlink:href="#bg"/><use transform="matrix(0.05,0,0,0.05,49,0)" xlink:href="#bd"/></g><g id="C"><use transform="matrix(0.05,0,0,0.05,0,0)" xlink:href="#br"/><use transform="matrix(0.05,0,0,0.05,10,0)" xlink:href="#bb"/><use transform="matrix(0.05,0,0,0.05,20,0)" xlink:href="#bd"/><use transform="matrix(0.05,0,0,0.05,25,0)" xlink:href="#bb"/></g><path d="M108 0H70L1-190h34L89-25l56-165h34" id="bD"/><g id="D"><use transform="matrix(0.05,0,0,0.05,0,0)" xlink:href="#bu"/><use transform="matrix(0.05,0,0,0.05,12,0)" xlink:href="#bh"/><use transform="matrix(0.05,0,0,0.05,17.95,0)" xlink:href="#bc"/><use transform="matrix(0.05,0,0,0.05,26.950000000000003,0)" xlink:href="#bn"/><use transform="matrix(0.05,0,0,0.05,36.95,0)" xlink:href="#be"/><use transform="matrix(0.05,0,0,0.05,40.900000000000006,0)" xlink:href="#bD"/></g><g id="E"><use transform="matrix(0.05,0,0,0.05,0,0)" xlink:href="#bl"/><use transform="matrix(0.05,0,0,0.05,9,0)" xlink:href="#bk"/><use transform="matrix(0.05,0,0,0.05,19,0)" xlink:href="#br"/><use transform="matrix(0.05,0,0,0.05,29,0)" xlink:href="#bi"/><use transform="matrix(0.05,0,0,0.05,39,0)" xlink:href="#bg"/><use transform="matrix(0.05,0,0,0.05,49,0)" xlink:href="#bd"/></g><g id="F"><use transform="matrix(0.05,0,0,0.05,0,0)" xlink:href="#bl"/><use transform="matrix(0.05,0,0,0.05,9,0)" xlink:href="#bd"/><use transform="matrix(0.05,0,0,0.05,14,0)" xlink:href="#bb"/><use transform="matrix(0.05,0,0,0.05,24,0)" xlink:href="#bd"/><use transform="matrix(0.05,0,0,0.05,29,0)" xlink:href="#bi"/><use transform="matrix(0.05,0,0,0.05,39,0)" xlink:href="#bz"/><use transform="matrix(0.05,0,0,0.05,53.95,0)" xlink:href="#bi"/><use transform="matrix(0.05,0,0,0.05,63.95,0)" xlink:href="#bg"/><use transform="matrix(0.05,0,0,0.05,73.95,0)" xlink:href="#bd"/></g><g id="G"><use transform="matrix(0.05,0,0,0.05,0,0)" xlink:href="#bD"/><use transform="matrix(0.05,0,0,0.05,9,0)" xlink:href="#be"/><use transform="matrix(0.05,0,0,0.05,12.949999999999998,0)" xlink:href="#bb"/></g><g id="H"><use transform="matrix(0.05,0,0,0.05,0,0)" xlink:href="#bm"/><use transform="matrix(0.05,0,0,0.05,12,0)" xlink:href="#bx"/><use transform="matrix(0.05,0,0,0.05,26.950000000000003,0)" xlink:href="#bm"/></g><path fill="#3a414a" d="M141-36C126-15 110 5 73 4 37 3 15-17 15-53c-1-64 63-63 125-63 3-35-9-54-41-54-24 1-41 7-42 31l-33-3c5-37 33-52 76-52 45 0 72 20 72 64v82c-1 20 7 32 28 27v20c-31 9-61-2-59-35zM48-53c0 20 12 33 32 33 41-3 63-29 60-74-43 2-92-5-92 41" id="bE"/><path fill="#3a414a" d="M117-194c89-4 53 116 60 194h-32v-121c0-31-8-49-39-48C34-167 62-67 57 0H25l-1-190h30c1 10-1 24 2 32 11-22 29-35 61-36" id="bF"/><path fill="#3a414a" d="M177-190C167-65 218 103 67 71c-23-6-38-20-44-43l32-5c15 47 100 32 89-28v-30C133-14 115 1 83 1 29 1 15-40 15-95c0-56 16-97 71-98 29-1 48 16 59 35 1-10 0-23 2-32h30zM94-22c36 0 50-32 50-73 0-42-14-75-50-75-39 0-46 34-46 75s6 73 46 73" id="bG"/><g id="I"><use transform="matrix(0.06172839506172839,0,0,0.06172839506172839,0,0)" xlink:href="#aX"/><use transform="matrix(0.06172839506172839,0,0,0.06172839506172839,18.456790123456788,0)" xlink:href="#bE"/><use transform="matrix(0.06172839506172839,0,0,0.06172839506172839,30.80246913580247,0)" xlink:href="#bF"/><use transform="matrix(0.06172839506172839,0,0,0.06172839506172839,43.148148148148145,0)" xlink:href="#bE"/><use transform="matrix(0.06172839506172839,0,0,0.06172839506172839,55.49382716049382,0)" xlink:href="#bG"/><use transform="matrix(0.06172839506172839,0,0,0.06172839506172839,67.8395061728395,0)" xlink:href="#aR"/><use transform="matrix(0.06172839506172839,0,0,0.06172839506172839,80.18518518518519,0)" xlink:href="#aS"/></g><g id="J"><use transform="matrix(0.05,0,0,0.05,0,0)" xlink:href="#bm"/><use transform="matrix(0.05,0,0,0.05,12,0)" xlink:href="#bn"/><use transform="matrix(0.05,0,0,0.05,22,0)" xlink:href="#bf"/><use transform="matrix(0.05,0,0,0.05,32,0)" xlink:href="#bo"/></g><g id="K"><use transform="matrix(0.05,0,0,0.05,0,0)" xlink:href="#bm"/><use transform="matrix(0.05,0,0,0.05,12,0)" xlink:href="#bk"/><use transform="matrix(0.05,0,0,0.05,22,0)" xlink:href="#bw"/><use transform="matrix(0.05,0,0,0.05,32,0)" xlink:href="#bw"/><use transform="matrix(0.05,0,0,0.05,42,0)" xlink:href="#bi"/><use transform="matrix(0.05,0,0,0.05,52,0)" xlink:href="#bl"/><use transform="matrix(0.05,0,0,0.05,61,0)" xlink:href="#bd"/><use transform="matrix(0.05,0,0,0.05,66,0)" xlink:href="#be"/><use transform="matrix(0.05,0,0,0.05,69.95,0)" xlink:href="#bf"/><use transform="matrix(0.05,0,0,0.05,79.95,0)" xlink:href="#bg"/></g><path fill="#fff" d="M205 0l-28-72H64L36 0H1l101-248h38L239 0h-34zm-38-99l-47-123c-12 45-31 82-46 123h93" id="bH"/><path fill="#fff" d="M115-194c55 1 70 41 70 98S169 2 115 4C84 4 66-9 55-30l1 105H24l-1-265h31l2 30c10-21 28-34 59-34zm-8 174c40 0 45-34 45-75s-6-73-45-74c-42 0-51 32-51 76 0 43 10 73 51 73" id="bI"/><path fill="#fff" d="M114-163C36-179 61-72 57 0H25l-1-190h30c1 12-1 29 2 39 6-27 23-49 58-41v29" id="bJ"/><path fill="#fff" d="M100-194c62-1 85 37 85 99 1 63-27 99-86 99S16-35 15-95c0-66 28-99 85-99zM99-20c44 1 53-31 53-75 0-43-8-75-51-75s-53 32-53 75 10 74 51 75" id="bK"/><path fill="#fff" d="M108 0H70L1-190h34L89-25l56-165h34" id="bL"/><path fill="#fff" d="M24-231v-30h32v30H24zM24 0v-190h32V0H24" id="bM"/><path fill="#fff" d="M117-194c89-4 53 116 60 194h-32v-121c0-31-8-49-39-48C34-167 62-67 57 0H25l-1-190h30c1 10-1 24 2 32 11-22 29-35 61-36" id="bN"/><path fill="#fff" d="M177-190C167-65 218 103 67 71c-23-6-38-20-44-43l32-5c15 47 100 32 89-28v-30C133-14 115 1 83 1 29 1 15-40 15-95c0-56 16-97 71-98 29-1 48 16 59 35 1-10 0-23 2-32h30zM94-22c36 0 50-32 50-73 0-42-14-75-50-75-39 0-46 34-46 75s6 73 46 73" id="bO"/><g id="L"><use transform="matrix(0.05,0,0,0.05,0,0)" xlink:href="#bH"/><use transform="matrix(0.05,0,0,0.05,12,0)" xlink:href="#bI"/><use transform="matrix(0.05,0,0,0.05,22,0)" xlink:href="#bI"/><use transform="matrix(0.05,0,0,0.05,32,0)" xlink:href="#bJ"/><use transform="matrix(0.05,0,0,0.05,37.95,0)" xlink:href="#bK"/><use transform="matrix(0.05,0,0,0.05,47.95,0)" xlink:href="#bL"/><use transform="matrix(0.05,0,0,0.05,56.95,0)" xlink:href="#bM"/><use transform="matrix(0.05,0,0,0.05,60.900000000000006,0)" xlink:href="#bN"/><use transform="matrix(0.05,0,0,0.05,70.9,0)" xlink:href="#bO"/></g><path fill="#fff" d="M59-47c-2 24 18 29 38 22v24C64 9 27 4 27-40v-127H5v-23h24l9-43h21v43h35v23H59v120" id="bP"/><path fill="#fff" d="M106-169C34-169 62-67 57 0H25v-261h32l-1 103c12-21 28-36 61-36 89 0 53 116 60 194h-32v-121c2-32-8-49-39-48" id="bQ"/><path fill="#fff" d="M100-194c63 0 86 42 84 106H49c0 40 14 67 53 68 26 1 43-12 49-29l28 8c-11 28-37 45-77 45C44 4 14-33 15-96c1-61 26-98 85-98zm52 81c6-60-76-77-97-28-3 7-6 17-6 28h103" id="bR"/><g id="M"><use transform="matrix(0.05,0,0,0.05,0,0)" xlink:href="#bP"/><use transform="matrix(0.05,0,0,0.05,5,0)" xlink:href="#bQ"/><use transform="matrix(0.05,0,0,0.05,15,0)" xlink:href="#bR"/></g><path fill="#fff" d="M145-31C134-9 116 4 85 4 32 4 16-35 15-94c0-59 17-99 70-100 32-1 48 14 60 33 0-11-1-24 2-32h30l-1 268h-32zM93-21c41 0 51-33 51-76s-8-73-50-73c-40 0-46 35-46 75s5 74 45 74" id="bS"/><path fill="#fff" d="M84 4C-5 8 30-112 23-190h32v120c0 31 7 50 39 49 72-2 45-101 50-169h31l1 190h-30c-1-10 1-25-2-33-11 22-28 36-60 37" id="bT"/><path fill="#fff" d="M135-143c-3-34-86-38-87 0 15 53 115 12 119 90S17 21 10-45l28-5c4 36 97 45 98 0-10-56-113-15-118-90-4-57 82-63 122-42 12 7 21 19 24 35" id="bU"/><g id="N"><use transform="matrix(0.05,0,0,0.05,0,0)" xlink:href="#bJ"/><use transform="matrix(0.05,0,0,0.05,5.95,0)" xlink:href="#bR"/><use transform="matrix(0.05,0,0,0.05,15.949999999999998,0)" xlink:href="#bS"/><use transform="matrix(0.05,0,0,0.05,25.950000000000003,0)" xlink:href="#bT"/><use transform="matrix(0.05,0,0,0.05,35.95,0)" xlink:href="#bR"/><use transform="matrix(0.05,0,0,0.05,45.95,0)" xlink:href="#bU"/><use transform="matrix(0.05,0,0,0.05,54.95,0)" xlink:href="#bP"/></g><g id="O"><use transform="matrix(0.05,0,0,0.05,0,0)" xlink:href="#bP"/><use transform="matrix(0.05,0,0,0.05,5,0)" xlink:href="#bK"/></g><path fill="#fff" d="M85-194c31 0 48 13 60 33l-1-100h32l1 261h-30c-2-10 0-23-3-31C134-8 116 4 85 4 32 4 16-35 15-94c0-66 23-100 70-100zm9 24c-40 0-46 34-46 75 0 40 6 74 45 74 42 0 51-32 51-76 0-42-9-74-50-73" id="bV"/><g id="P"><use transform="matrix(0.05,0,0,0.05,0,0)" xlink:href="#bU"/><use transform="matrix(0.05,0,0,0.05,9,0)" xlink:href="#bR"/><use transform="matrix(0.05,0,0,0.05,19,0)" xlink:href="#bN"/><use transform="matrix(0.05,0,0,0.05,29,0)" xlink:href="#bV"/></g><path fill="#fff" d="M141-36C126-15 110 5 73 4 37 3 15-17 15-53c-1-64 63-63 125-63 3-35-9-54-41-54-24 1-41 7-42 31l-33-3c5-37 33-52 76-52 45 0 72 20 72 64v82c-1 20 7 32 28 27v20c-31 9-61-2-59-35zM48-53c0 20 12 33 32 33 41-3 63-29 60-74-43 2-92-5-92 41" id="bW"/><use transform="matrix(0.05,0,0,0.05,0,0)" xlink:href="#bW" id="Q"/><path fill="#fff" d="M206 0h-36l-40-164L89 0H53L-1-190h32L70-26l43-164h34l41 164 42-164h31" id="bX"/><g id="R"><use transform="matrix(0.05,0,0,0.05,0,0)" xlink:href="#bX"/><use transform="matrix(0.05,0,0,0.05,12.950000000000001,0)" xlink:href="#bW"/><use transform="matrix(0.05,0,0,0.05,22.950000000000003,0)" xlink:href="#bJ"/><use transform="matrix(0.05,0,0,0.05,28.900000000000002,0)" xlink:href="#bN"/><use transform="matrix(0.05,0,0,0.05,38.900000000000006,0)" xlink:href="#bM"/><use transform="matrix(0.05,0,0,0.05,42.85000000000001,0)" xlink:href="#bN"/><use transform="matrix(0.05,0,0,0.05,52.85,0)" xlink:href="#bO"/></g><path d="M1222-777c17 480-206 763-650 777H169v-1456h411c408 9 627 269 642 679zm-190 4c3-312-149-522-447-525H361v1141h202c308 0 473-209 469-531v-85" id="bY"/><path d="M599-131c141 0 220-65 285-146l113 88C906-50 770 20 589 20 281 21 93-214 93-545c0-223 93-397 233-485 74-48 154-72 240-72 300 2 449 218 445 537v77H278c0 197 129 357 321 357zm227-509c-3-180-88-310-260-310-170 0-264 140-282 310h542" id="bZ"/><path d="M456 20C285 20 205-92 206-268v-671H9v-143h197v-262h185v262h202v143H391v671c-9 125 92 149 207 118V0c-49 13-96 20-142 20" id="ca"/><path d="M663-916c-163-27-288 18-338 148V0H140v-1082h180l3 125c61-97 147-145 258-145 36 0 63 5 82 14v172" id="cb"/><path d="M1240-945c-141 0-250 95-250 227V0H804v-709c0-157-77-236-231-236-121 0-204 52-249 155V0H139v-1082h175l5 120c79-93 186-140 321-140 151 0 254 58 309 174 69-98 181-174 345-174 237 0 362 126 362 377V0h-185v-714c-2-159-67-231-231-231" id="cc"/><path d="M341 0H156v-1082h185V0zm-91-1264c-68 0-108-42-109-105 0-62 41-107 109-107s110 44 110 107-42 105-110 105" id="cd"/><path d="M589-945c-131 0-219 81-264 174V0H140v-1082h175l6 136c83-104 191-156 324-156 229 0 346 129 346 387V0H806v-716c-2-153-65-229-217-229" id="ce"/><g id="S"><use transform="matrix(0.008029513888888885,0,0,0.008029513888888885,0,0)" xlink:href="#bY"/><use transform="matrix(0.008029513888888885,0,0,0.008029513888888885,10.783637152777771,0)" xlink:href="#bZ"/><use transform="matrix(0.008029513888888885,0,0,0.008029513888888885,19.49565972222221,0)" xlink:href="#ca"/><use transform="matrix(0.008029513888888885,0,0,0.008029513888888885,24.867404513888875,0)" xlink:href="#bZ"/><use transform="matrix(0.008029513888888885,0,0,0.008029513888888885,33.579427083333314,0)" xlink:href="#cb"/><use transform="matrix(0.008029513888888885,0,0,0.008029513888888885,39.143880208333314,0)" xlink:href="#cc"/><use transform="matrix(0.008029513888888885,0,0,0.008029513888888885,53.556857638888864,0)" xlink:href="#cd"/><use transform="matrix(0.008029513888888885,0,0,0.008029513888888885,57.54752604166664,0)" xlink:href="#ce"/><use transform="matrix(0.008029513888888885,0,0,0.008029513888888885,66.62087673611109,0)" xlink:href="#bZ"/></g><path d="M589-945c-131 0-219 81-264 174V0H140v-1536h185v585c82-101 189-151 320-151 229 0 346 129 346 387V0H806v-716c-2-153-65-229-217-229" id="cf"/><g id="T"><use transform="matrix(0.008029513888888885,0,0,0.008029513888888885,0,0)" xlink:href="#ca"/><use transform="matrix(0.008029513888888885,0,0,0.008029513888888885,5.371744791666663,0)" xlink:href="#cf"/><use transform="matrix(0.008029513888888885,0,0,0.008029513888888885,14.429036458333325,0)" xlink:href="#bZ"/></g><path d="M632-1102c291 0 422 251 422 573 0 297-141 548-419 549-131 0-235-42-310-125v521H140v-1498h169l9 120c75-93 180-140 314-140zm-53 971c207 0 290-180 290-419 0-218-92-395-292-395-112 0-196 50-252 149v517c55 99 140 148 254 148" id="cg"/><path d="M538-131c121 0 232-49 232-156 0-50-20-88-56-117-73-60-334-92-420-143-92-55-162-110-162-238 0-190 192-317 400-317 223 0 414 129 413 338H759c0-108-110-186-227-186-119 0-215 53-215 159 0 45 18 78 53 101 76 52 331 90 416 139 98 57 169 115 169 251C955-92 760 20 538 20c-176 0-314-68-386-174-38-55-57-115-57-179h185c6 129 116 202 258 202" id="ch"/><path d="M584 20C278 26 81-227 91-551c10-320 175-545 491-551 308-5 503 247 494 573-9 322-175 543-492 549zm-2-970c-208 0-305 185-305 421 0 216 106 398 307 398 211 0 307-186 307-420 0-214-109-399-309-399" id="ci"/><g id="U"><use transform="matrix(0.008029513888888885,0,0,0.008029513888888885,0,0)" xlink:href="#cg"/><use transform="matrix(0.008029513888888885,0,0,0.008029513888888885,9.225911458333329,0)" xlink:href="#bZ"/><use transform="matrix(0.008029513888888885,0,0,0.008029513888888885,17.937934027777768,0)" xlink:href="#cb"/><use transform="matrix(0.008029513888888885,0,0,0.008029513888888885,23.502387152777764,0)" xlink:href="#cc"/><use transform="matrix(0.008029513888888885,0,0,0.008029513888888885,37.915364583333314,0)" xlink:href="#cd"/><use transform="matrix(0.008029513888888885,0,0,0.008029513888888885,41.90603298611109,0)" xlink:href="#ch"/><use transform="matrix(0.008029513888888885,0,0,0.008029513888888885,50.38519965277776,0)" xlink:href="#ch"/><use transform="matrix(0.008029513888888885,0,0,0.008029513888888885,58.86436631944442,0)" xlink:href="#cd"/><use transform="matrix(0.008029513888888885,0,0,0.008029513888888885,62.8550347222222,0)" xlink:href="#ci"/><use transform="matrix(0.008029513888888885,0,0,0.008029513888888885,72.23350694444441,0)" xlink:href="#ce"/><use transform="matrix(0.008029513888888885,0,0,0.008029513888888885,81.30685763888886,0)" xlink:href="#ch"/></g><path d="M704-1390c-164-38-297 28-288 194v114h231v143H416V0H231v-939H60v-143h171v-111c-12-274 208-416 483-347" id="cj"/><g id="V"><use transform="matrix(0.008029513888888885,0,0,0.008029513888888885,0,0)" xlink:href="#ci"/><use transform="matrix(0.008029513888888885,0,0,0.008029513888888885,9.378472222222218,0)" xlink:href="#cj"/></g><path d="M561-1102c238-4 403 126 403 351v498c0 99 13 178 38 237V0H808c-11-21-19-59-26-114C696-25 593 20 474 20c-199 0-368-130-365-320 4-251 214-359 490-356h180v-85c-1-135-86-212-229-212-115 0-232 67-233 171H131c20-205 206-316 430-320zM294-326c0 117 90 185 207 185 122 0 239-75 278-162v-222H634c-227 0-340 66-340 199" id="ck"/><path d="M277-555c0 244 77 420 297 424 127 2 249-93 255-210h175C980-127 805 20 574 20 258 20 81-222 92-562c11-319 164-533 481-540 237-5 426 165 431 392H829c-7-133-115-242-256-240-209 4-296 166-296 395" id="cl"/><g id="W"><use transform="matrix(0.008029513888888885,0,0,0.008029513888888885,0,0)" xlink:href="#bZ"/><use transform="matrix(0.008029513888888885,0,0,0.008029513888888885,8.71202256944444,0)" xlink:href="#ck"/><use transform="matrix(0.008029513888888885,0,0,0.008029513888888885,17.656901041666657,0)" xlink:href="#cl"/><use transform="matrix(0.008029513888888885,0,0,0.008029513888888885,26.264539930555543,0)" xlink:href="#cf"/></g><path d="M417-1456L893-268l476-1188h249V0h-192c-4-403 4-794 18-1179L966 0H819L342-1176c15 384 23 773 19 1176H169v-1456h248" id="cm"/><path d="M314-151h633V0H88v-136l597-793H97v-153h820v131" id="cn"/><g id="X"><use transform="matrix(0.008029513888888885,0,0,0.008029513888888885,0,0)" xlink:href="#cm"/><use transform="matrix(0.008029513888888885,0,0,0.008029513888888885,14.356770833333325,0)" xlink:href="#bZ"/><use transform="matrix(0.008029513888888885,0,0,0.008029513888888885,23.068793402777764,0)" xlink:href="#cc"/><use transform="matrix(0.008029513888888885,0,0,0.008029513888888885,37.481770833333314,0)" xlink:href="#ci"/><use transform="matrix(0.008029513888888885,0,0,0.008029513888888885,46.86024305555553,0)" xlink:href="#cb"/><use transform="matrix(0.008029513888888885,0,0,0.008029513888888885,52.42469618055553,0)" xlink:href="#cd"/><use transform="matrix(0.008029513888888885,0,0,0.008029513888888885,56.415364583333314,0)" xlink:href="#cn"/><use transform="matrix(0.008029513888888885,0,0,0.008029513888888885,64.4368489583333,0)" xlink:href="#bZ"/><use transform="matrix(0.008029513888888885,0,0,0.008029513888888885,73.14887152777774,0)" xlink:href="#cb"/></g><g id="Y"><use transform="matrix(0.05,0,0,0.05,0,0)" xlink:href="#be"/><use transform="matrix(0.05,0,0,0.05,3.95,0)" xlink:href="#bz"/><use transform="matrix(0.05,0,0,0.05,18.900000000000002,0)" xlink:href="#bs"/><use transform="matrix(0.05,0,0,0.05,28.900000000000002,0)" xlink:href="#bf"/><use transform="matrix(0.05,0,0,0.05,38.900000000000006,0)" xlink:href="#bh"/><use transform="matrix(0.05,0,0,0.05,44.85000000000001,0)" xlink:href="#bd"/></g><g id="Z"><use transform="matrix(0.05,0,0,0.05,0,0)" xlink:href="#bk"/><use transform="matrix(0.05,0,0,0.05,10,0)" xlink:href="#bl"/><use transform="matrix(0.05,0,0,0.05,19,0)" xlink:href="#bi"/><use transform="matrix(0.05,0,0,0.05,29,0)" xlink:href="#bh"/><use transform="matrix(0.05,0,0,0.05,34.95,0)" xlink:href="#bl"/></g><g id="aa"><use transform="matrix(0.05,0,0,0.05,0,0)" xlink:href="#br"/><use transform="matrix(0.05,0,0,0.05,10,0)" xlink:href="#bb"/><use transform="matrix(0.05,0,0,0.05,20,0)" xlink:href="#bd"/><use transform="matrix(0.05,0,0,0.05,25,0)" xlink:href="#bb"/></g><g id="ab"><use transform="matrix(0.05,0,0,0.05,0,0)" xlink:href="#bb"/><use transform="matrix(0.05,0,0,0.05,10,0)" xlink:href="#bl"/></g><path d="M141 0L90-78 38 0H4l68-98-65-92h35l48 74 47-74h35l-64 92 68 98h-35" id="co"/><g id="ac"><use transform="matrix(0.05,0,0,0.05,0,0)" xlink:href="#bC"/><use transform="matrix(0.05,0,0,0.05,12,0)" xlink:href="#co"/><use transform="matrix(0.05,0,0,0.05,21,0)" xlink:href="#bc"/><use transform="matrix(0.05,0,0,0.05,30,0)" xlink:href="#bi"/><use transform="matrix(0.05,0,0,0.05,40,0)" xlink:href="#bt"/></g><g id="ad"><use transform="matrix(0.05,0,0,0.05,0,0)" xlink:href="#br"/><use transform="matrix(0.05,0,0,0.05,10,0)" xlink:href="#bf"/><use transform="matrix(0.05,0,0,0.05,20,0)" xlink:href="#bo"/><use transform="matrix(0.05,0,0,0.05,32.95,0)" xlink:href="#bg"/><use transform="matrix(0.05,0,0,0.05,42.95,0)" xlink:href="#bt"/><use transform="matrix(0.05,0,0,0.05,46.900000000000006,0)" xlink:href="#bf"/><use transform="matrix(0.05,0,0,0.05,56.900000000000006,0)" xlink:href="#bb"/><use transform="matrix(0.05,0,0,0.05,66.9,0)" xlink:href="#br"/></g><g id="ae"><use transform="matrix(0.05,0,0,0.05,0,0)" xlink:href="#be"/><use transform="matrix(0.05,0,0,0.05,3.95,0)" xlink:href="#bz"/><use transform="matrix(0.05,0,0,0.05,18.900000000000002,0)" xlink:href="#bs"/><use transform="matrix(0.05,0,0,0.05,28.900000000000002,0)" xlink:href="#bf"/><use transform="matrix(0.05,0,0,0.05,38.900000000000006,0)" xlink:href="#bh"/><use transform="matrix(0.05,0,0,0.05,44.85000000000001,0)" xlink:href="#bd"/><use transform="matrix(0.05,0,0,0.05,49.85000000000001,0)" xlink:href="#be"/><use transform="matrix(0.05,0,0,0.05,53.80000000000001,0)" xlink:href="#bg"/><use transform="matrix(0.05,0,0,0.05,63.80000000000001,0)" xlink:href="#bw"/></g><g id="af"><use transform="matrix(0.05,0,0,0.05,0,0)" xlink:href="#bd"/><use transform="matrix(0.05,0,0,0.05,5,0)" xlink:href="#bi"/><use transform="matrix(0.05,0,0,0.05,15,0)" xlink:href="#bz"/><use transform="matrix(0.05,0,0,0.05,29.950000000000003,0)" xlink:href="#bs"/><use transform="matrix(0.05,0,0,0.05,39.95,0)" xlink:href="#bt"/><use transform="matrix(0.05,0,0,0.05,43.900000000000006,0)" xlink:href="#bb"/><use transform="matrix(0.05,0,0,0.05,53.900000000000006,0)" xlink:href="#bd"/><use transform="matrix(0.05,0,0,0.05,58.900000000000006,0)" xlink:href="#bi"/></g><g id="ag"><use transform="matrix(0.05,0,0,0.05,0,0)" xlink:href="#bp"/><use transform="matrix(0.05,0,0,0.05,5,0)" xlink:href="#be"/><use transform="matrix(0.05,0,0,0.05,8.95,0)" xlink:href="#bt"/><use transform="matrix(0.05,0,0,0.05,12.899999999999999,0)" xlink:href="#bi"/></g><g id="ah"><use transform="matrix(0.05,0,0,0.05,0,0)" xlink:href="#bi"/><use transform="matrix(0.05,0,0,0.05,10,0)" xlink:href="#co"/><use transform="matrix(0.05,0,0,0.05,19,0)" xlink:href="#bs"/><use transform="matrix(0.05,0,0,0.05,29,0)" xlink:href="#bf"/><use transform="matrix(0.05,0,0,0.05,39,0)" xlink:href="#bh"/><use transform="matrix(0.05,0,0,0.05,44.95,0)" xlink:href="#bd"/></g><path fill="#3a414a" d="M59-47c-2 24 18 29 38 22v24C64 9 27 4 27-40v-127H5v-23h24l9-43h21v43h35v23H59v120" id="cp"/><path fill="#3a414a" d="M85-194c31 0 48 13 60 33l-1-100h32l1 261h-30c-2-10 0-23-3-31C134-8 116 4 85 4 32 4 16-35 15-94c0-66 23-100 70-100zm9 24c-40 0-46 34-46 75 0 40 6 74 45 74 42 0 51-32 51-76 0-42-9-74-50-73" id="cq"/><g id="ai"><use transform="matrix(0.06172839506172839,0,0,0.06172839506172839,0,0)" xlink:href="#aO"/><use transform="matrix(0.06172839506172839,0,0,0.06172839506172839,14.814814814814813,0)" xlink:href="#cp"/><use transform="matrix(0.06172839506172839,0,0,0.06172839506172839,20.98765432098765,0)" xlink:href="#aP"/><use transform="matrix(0.06172839506172839,0,0,0.06172839506172839,33.33333333333333,0)" xlink:href="#cq"/><use transform="matrix(0.06172839506172839,0,0,0.06172839506172839,45.679012345679006,0)" xlink:href="#aR"/><use transform="matrix(0.06172839506172839,0,0,0.06172839506172839,58.02469135802468,0)" xlink:href="#bF"/><use transform="matrix(0.06172839506172839,0,0,0.06172839506172839,70.37037037037037,0)" xlink:href="#cp"/></g><path d="M30 0v-248h33v221h125V0H30" id="cr"/><g id="aj"><use transform="matrix(0.05,0,0,0.05,0,0)" xlink:href="#cr"/><use transform="matrix(0.05,0,0,0.05,10,0)" xlink:href="#bf"/><use transform="matrix(0.05,0,0,0.05,20,0)" xlink:href="#bw"/><use transform="matrix(0.05,0,0,0.05,30,0)" xlink:href="#bf"/><use transform="matrix(0.05,0,0,0.05,40,0)" xlink:href="#bk"/><use transform="matrix(0.05,0,0,0.05,50,0)" xlink:href="#bd"/></g><g id="ak"><use transform="matrix(0.05,0,0,0.05,0,0)" xlink:href="#bq"/><use transform="matrix(0.05,0,0,0.05,12.950000000000001,0)" xlink:href="#bf"/><use transform="matrix(0.05,0,0,0.05,22.950000000000003,0)" xlink:href="#bg"/><use transform="matrix(0.05,0,0,0.05,32.95,0)" xlink:href="#bd"/><use transform="matrix(0.05,0,0,0.05,37.95,0)" xlink:href="#bb"/><use transform="matrix(0.05,0,0,0.05,47.95,0)" xlink:href="#bc"/><use transform="matrix(0.05,0,0,0.05,56.95,0)" xlink:href="#bd"/></g><path d="M9 0v-24l116-142H16v-24h144v24L44-24h123V0H9" id="cs"/><g id="al"><use transform="matrix(0.05,0,0,0.05,0,0)" xlink:href="#bx"/><use transform="matrix(0.05,0,0,0.05,14.950000000000001,0)" xlink:href="#bi"/><use transform="matrix(0.05,0,0,0.05,24.950000000000003,0)" xlink:href="#bz"/><use transform="matrix(0.05,0,0,0.05,39.900000000000006,0)" xlink:href="#bf"/><use transform="matrix(0.05,0,0,0.05,49.900000000000006,0)" xlink:href="#bh"/><use transform="matrix(0.05,0,0,0.05,55.85,0)" xlink:href="#be"/><use transform="matrix(0.05,0,0,0.05,59.80000000000001,0)" xlink:href="#cs"/><use transform="matrix(0.05,0,0,0.05,68.80000000000001,0)" xlink:href="#bi"/><use transform="matrix(0.05,0,0,0.05,78.80000000000001,0)" xlink:href="#bh"/></g><g id="am"><use transform="matrix(0.05,0,0,0.05,0,0)" xlink:href="#ba"/><use transform="matrix(0.05,0,0,0.05,11.65,0)" xlink:href="#be"/><use transform="matrix(0.05,0,0,0.05,15.600000000000001,0)" xlink:href="#bi"/><use transform="matrix(0.05,0,0,0.05,25.6,0)" xlink:href="#bo"/></g><g id="an"><use transform="matrix(0.05,0,0,0.05,0,0)" xlink:href="#bh"/><use transform="matrix(0.05,0,0,0.05,5.95,0)" xlink:href="#bi"/><use transform="matrix(0.05,0,0,0.05,15.949999999999998,0)" xlink:href="#bc"/><use transform="matrix(0.05,0,0,0.05,24.95,0)" xlink:href="#bf"/><use transform="matrix(0.05,0,0,0.05,34.95,0)" xlink:href="#bh"/><use transform="matrix(0.05,0,0,0.05,40.900000000000006,0)" xlink:href="#br"/><use transform="matrix(0.05,0,0,0.05,50.900000000000006,0)" xlink:href="#bl"/></g><g id="ao"><use transform="matrix(0.05,0,0,0.05,0,0)" xlink:href="#bl"/><use transform="matrix(0.05,0,0,0.05,9,0)" xlink:href="#bd"/><use transform="matrix(0.05,0,0,0.05,14,0)" xlink:href="#bk"/><use transform="matrix(0.05,0,0,0.05,24,0)" xlink:href="#br"/><use transform="matrix(0.05,0,0,0.05,34,0)" xlink:href="#bi"/><use transform="matrix(0.05,0,0,0.05,44,0)" xlink:href="#bg"/><use transform="matrix(0.05,0,0,0.05,54,0)" xlink:href="#bd"/></g><g id="ap"><use transform="matrix(0.05,0,0,0.05,0,0)" xlink:href="#bs"/><use transform="matrix(0.05,0,0,0.05,10,0)" xlink:href="#bh"/><use transform="matrix(0.05,0,0,0.05,15.949999999999998,0)" xlink:href="#bf"/><use transform="matrix(0.05,0,0,0.05,25.950000000000003,0)" xlink:href="#bp"/><use transform="matrix(0.05,0,0,0.05,30.950000000000003,0)" xlink:href="#be"/><use transform="matrix(0.05,0,0,0.05,34.9,0)" xlink:href="#bt"/><use transform="matrix(0.05,0,0,0.05,38.85,0)" xlink:href="#bi"/></g><path d="M30-248c118-7 216 8 213 122C240-48 200 0 122 0H30v-248zM63-27c89 8 146-16 146-99s-60-101-146-95v194" id="ct"/><g id="aq"><use transform="matrix(0.05,0,0,0.05,0,0)" xlink:href="#ct"/><use transform="matrix(0.05,0,0,0.05,12.950000000000001,0)" xlink:href="#bf"/><use transform="matrix(0.05,0,0,0.05,22.950000000000003,0)" xlink:href="#bg"/><use transform="matrix(0.05,0,0,0.05,32.95,0)" xlink:href="#bb"/><use transform="matrix(0.05,0,0,0.05,42.95,0)" xlink:href="#bd"/><use transform="matrix(0.05,0,0,0.05,47.95,0)" xlink:href="#be"/><use transform="matrix(0.05,0,0,0.05,51.900000000000006,0)" xlink:href="#bf"/><use transform="matrix(0.05,0,0,0.05,61.900000000000006,0)" xlink:href="#bg"/></g><g id="ar"><use transform="matrix(0.05,0,0,0.05,0,0)" xlink:href="#bm"/><use transform="matrix(0.05,0,0,0.05,12,0)" xlink:href="#bk"/><use transform="matrix(0.05,0,0,0.05,22,0)" xlink:href="#bw"/><use transform="matrix(0.05,0,0,0.05,32,0)" xlink:href="#bw"/><use transform="matrix(0.05,0,0,0.05,42,0)" xlink:href="#bi"/><use transform="matrix(0.05,0,0,0.05,52,0)" xlink:href="#bl"/><use transform="matrix(0.05,0,0,0.05,61,0)" xlink:href="#bd"/><use transform="matrix(0.05,0,0,0.05,66,0)" xlink:href="#be"/><use transform="matrix(0.05,0,0,0.05,69.95,0)" xlink:href="#bf"/><use transform="matrix(0.05,0,0,0.05,79.95,0)" xlink:href="#bg"/></g><g id="as"><use transform="matrix(0.05,0,0,0.05,0,0)" xlink:href="#bq"/><use transform="matrix(0.05,0,0,0.05,12.950000000000001,0)" xlink:href="#bn"/><use transform="matrix(0.05,0,0,0.05,22.950000000000003,0)" xlink:href="#bb"/><use transform="matrix(0.05,0,0,0.05,32.95,0)" xlink:href="#bg"/><use transform="matrix(0.05,0,0,0.05,42.95,0)" xlink:href="#bw"/><use transform="matrix(0.05,0,0,0.05,52.95,0)" xlink:href="#be"/><use transform="matrix(0.05,0,0,0.05,56.900000000000006,0)" xlink:href="#bg"/><use transform="matrix(0.05,0,0,0.05,66.9,0)" xlink:href="#bw"/></g><g id="at"><use transform="matrix(0.05,0,0,0.05,0,0)" xlink:href="#bc"/><use transform="matrix(0.05,0,0,0.05,9,0)" xlink:href="#bi"/><use transform="matrix(0.05,0,0,0.05,19,0)" xlink:href="#bg"/><use transform="matrix(0.05,0,0,0.05,29,0)" xlink:href="#bd"/><use transform="matrix(0.05,0,0,0.05,34,0)" xlink:href="#bi"/><use transform="matrix(0.05,0,0,0.05,44,0)" xlink:href="#bh"/></g><g id="au"><use transform="matrix(0.05,0,0,0.05,0,0)" xlink:href="#bz"/><use transform="matrix(0.05,0,0,0.05,14.950000000000001,0)" xlink:href="#bb"/><use transform="matrix(0.05,0,0,0.05,24.950000000000003,0)" xlink:href="#bg"/><use transform="matrix(0.05,0,0,0.05,34.95,0)" xlink:href="#bb"/><use transform="matrix(0.05,0,0,0.05,44.95,0)" xlink:href="#bw"/><use transform="matrix(0.05,0,0,0.05,54.95,0)" xlink:href="#bi"/><use transform="matrix(0.05,0,0,0.05,64.95,0)" xlink:href="#bh"/></g><path d="M127-220V0H93v-220H8v-28h204v28h-85" id="cu"/><g id="av"><use transform="matrix(0.05,0,0,0.05,0,0)" xlink:href="#cu"/><use transform="matrix(0.05,0,0,0.05,10.3,0)" xlink:href="#bh"/><use transform="matrix(0.05,0,0,0.05,16.25,0)" xlink:href="#bb"/><use transform="matrix(0.05,0,0,0.05,26.25,0)" xlink:href="#bg"/><use transform="matrix(0.05,0,0,0.05,36.25,0)" xlink:href="#bl"/><use transform="matrix(0.05,0,0,0.05,45.25,0)" xlink:href="#bp"/><use transform="matrix(0.05,0,0,0.05,50.25,0)" xlink:href="#bi"/><use transform="matrix(0.05,0,0,0.05,60.25,0)" xlink:href="#bh"/><use transform="matrix(0.05,0,0,0.05,66.2,0)" xlink:href="#bh"/><use transform="matrix(0.05,0,0,0.05,72.15,0)" xlink:href="#be"/><use transform="matrix(0.05,0,0,0.05,76.10000000000001,0)" xlink:href="#bg"/><use transform="matrix(0.05,0,0,0.05,86.10000000000001,0)" xlink:href="#bw"/></g><use transform="matrix(0.05,0,0,0.05,0,0)" xlink:href="#bb" id="aw"/><g id="ax"><use transform="matrix(0.05,0,0,0.05,0,0)" xlink:href="#bx"/><use transform="matrix(0.05,0,0,0.05,14.950000000000001,0)" xlink:href="#bi"/><use transform="matrix(0.05,0,0,0.05,24.950000000000003,0)" xlink:href="#bz"/><use transform="matrix(0.05,0,0,0.05,39.900000000000006,0)" xlink:href="#bf"/><use transform="matrix(0.05,0,0,0.05,49.900000000000006,0)" xlink:href="#bh"/><use transform="matrix(0.05,0,0,0.05,55.85,0)" xlink:href="#be"/><use transform="matrix(0.05,0,0,0.05,59.80000000000001,0)" xlink:href="#cs"/><use transform="matrix(0.05,0,0,0.05,68.80000000000001,0)" xlink:href="#bi"/><use transform="matrix(0.05,0,0,0.05,78.80000000000001,0)" xlink:href="#bh"/></g><g id="ay"><use transform="matrix(0.05,0,0,0.05,0,0)" xlink:href="#bb"/><use transform="matrix(0.05,0,0,0.05,10,0)" xlink:href="#bg"/><use transform="matrix(0.05,0,0,0.05,20,0)" xlink:href="#bf"/><use transform="matrix(0.05,0,0,0.05,30,0)" xlink:href="#bd"/><use transform="matrix(0.05,0,0,0.05,35,0)" xlink:href="#bn"/><use transform="matrix(0.05,0,0,0.05,45,0)" xlink:href="#bi"/><use transform="matrix(0.05,0,0,0.05,55,0)" xlink:href="#bh"/></g><g id="az"><use transform="matrix(0.05,0,0,0.05,0,0)" xlink:href="#bc"/><use transform="matrix(0.05,0,0,0.05,9,0)" xlink:href="#bi"/><use transform="matrix(0.05,0,0,0.05,19,0)" xlink:href="#bg"/><use transform="matrix(0.05,0,0,0.05,29,0)" xlink:href="#bd"/><use transform="matrix(0.05,0,0,0.05,34,0)" xlink:href="#bi"/><use transform="matrix(0.05,0,0,0.05,44,0)" xlink:href="#bh"/></g><g id="aA"><use transform="matrix(0.05,0,0,0.05,0,0)" xlink:href="#bm"/><use transform="matrix(0.05,0,0,0.05,12,0)" xlink:href="#bd"/><use transform="matrix(0.05,0,0,0.05,17,0)" xlink:href="#bk"/><use transform="matrix(0.05,0,0,0.05,27,0)" xlink:href="#br"/><use transform="matrix(0.05,0,0,0.05,37,0)" xlink:href="#bi"/><use transform="matrix(0.05,0,0,0.05,47,0)" xlink:href="#bg"/><use transform="matrix(0.05,0,0,0.05,57,0)" xlink:href="#bd"/></g><g id="aB"><use transform="matrix(0.05,0,0,0.05,0,0)" xlink:href="#bc"/><use transform="matrix(0.05,0,0,0.05,9,0)" xlink:href="#bn"/><use transform="matrix(0.05,0,0,0.05,19,0)" xlink:href="#bi"/><use transform="matrix(0.05,0,0,0.05,29,0)" xlink:href="#bc"/><use transform="matrix(0.05,0,0,0.05,38,0)" xlink:href="#bB"/></g><g id="aC"><use transform="matrix(0.05,0,0,0.05,0,0)" xlink:href="#bb"/><use transform="matrix(0.05,0,0,0.05,10,0)" xlink:href="#bc"/><use transform="matrix(0.05,0,0,0.05,19,0)" xlink:href="#bc"/><use transform="matrix(0.05,0,0,0.05,28,0)" xlink:href="#bf"/><use transform="matrix(0.05,0,0,0.05,38,0)" xlink:href="#bk"/><use transform="matrix(0.05,0,0,0.05,48,0)" xlink:href="#bg"/><use transform="matrix(0.05,0,0,0.05,58,0)" xlink:href="#bd"/></g><g id="aD"><use transform="matrix(0.05,0,0,0.05,0,0)" xlink:href="#bb"/><use transform="matrix(0.05,0,0,0.05,10,0)" xlink:href="#bg"/><use transform="matrix(0.05,0,0,0.05,20,0)" xlink:href="#br"/></g><g id="aE"><use transform="matrix(0.05,0,0,0.05,0,0)" xlink:href="#bd"/><use transform="matrix(0.05,0,0,0.05,5,0)" xlink:href="#by"/><use transform="matrix(0.05,0,0,0.05,14,0)" xlink:href="#bs"/><use transform="matrix(0.05,0,0,0.05,24,0)" xlink:href="#bi"/></g><path fill="#333" d="M15-91v-56l181-69v40L49-119l147 57v40" id="cv"/><path fill="#333" d="M25-224v-37h50v37H25zM25 0v-190h50V0H25" id="cw"/><path fill="#333" d="M135-194c87-1 58 113 63 194h-50c-7-57 23-157-34-157-59 0-34 97-39 157H25l-1-190h47c2 12-1 28 3 38 12-26 28-41 61-42" id="cx"/><path fill="#333" d="M190-63c-7 42-38 67-86 67-59 0-84-38-90-98-12-110 154-137 174-36l-49 2c-2-19-15-32-35-32-30 0-35 28-38 64-6 74 65 87 74 30" id="cy"/><path fill="#333" d="M25 0v-261h50V0H25" id="cz"/><path fill="#333" d="M85 4C-2 5 27-109 22-190h50c7 57-23 150 33 157 60-5 35-97 40-157h50l1 190h-47c-2-12 1-28-3-38-12 25-28 42-61 42" id="cA"/><path fill="#333" d="M88-194c31-1 46 15 58 34l-1-101h50l1 261h-48c-2-10 0-23-3-31C134-8 116 4 84 4 32 4 16-41 15-95c0-56 19-97 73-99zm17 164c33 0 40-30 41-66 1-37-9-64-41-64s-38 30-39 65c0 43 13 65 39 65" id="cB"/><path fill="#333" d="M185-48c-13 30-37 53-82 52C43 2 14-33 14-96s30-98 90-98c62 0 83 45 84 108H66c0 31 8 55 39 56 18 0 30-7 34-22zm-45-69c5-46-57-63-70-21-2 6-4 13-4 21h74" id="cC"/><path fill="#333" d="M15-22v-40l146-57-146-57v-40l181 69v56" id="cD"/><g id="aF"><use transform="matrix(0.04938271604938272,0,0,0.04938271604938272,0,0)" xlink:href="#cv"/><use transform="matrix(0.04938271604938272,0,0,0.04938271604938272,10.370370370370372,0)" xlink:href="#cv"/><use transform="matrix(0.04938271604938272,0,0,0.04938271604938272,20.740740740740744,0)" xlink:href="#cw"/><use transform="matrix(0.04938271604938272,0,0,0.04938271604938272,25.679012345679016,0)" xlink:href="#cx"/><use transform="matrix(0.04938271604938272,0,0,0.04938271604938272,36.49382716049383,0)" xlink:href="#cy"/><use transform="matrix(0.04938271604938272,0,0,0.04938271604938272,46.370370370370374,0)" xlink:href="#cz"/><use transform="matrix(0.04938271604938272,0,0,0.04938271604938272,51.308641975308646,0)" xlink:href="#cA"/><use transform="matrix(0.04938271604938272,0,0,0.04938271604938272,62.12345679012346,0)" xlink:href="#cB"/><use transform="matrix(0.04938271604938272,0,0,0.04938271604938272,72.93827160493828,0)" xlink:href="#cC"/><use transform="matrix(0.04938271604938272,0,0,0.04938271604938272,82.81481481481482,0)" xlink:href="#cD"/><use transform="matrix(0.04938271604938272,0,0,0.04938271604938272,93.18518518518519,0)" xlink:href="#cD"/></g><g id="aG"><use transform="matrix(0.05,0,0,0.05,0,0)" xlink:href="#bo"/><use transform="matrix(0.05,0,0,0.05,12.950000000000001,0)" xlink:href="#bh"/><use transform="matrix(0.05,0,0,0.05,18.900000000000002,0)" xlink:href="#bf"/><use transform="matrix(0.05,0,0,0.05,28.900000000000002,0)" xlink:href="#bg"/><use transform="matrix(0.05,0,0,0.05,38.900000000000006,0)" xlink:href="#bw"/></g><path fill="#333" d="M144 0l-44-69L55 0H2l70-98-66-92h53l41 62 40-62h54l-67 91 71 99h-54" id="cE"/><path fill="#333" d="M115-3C79 11 28 4 28-45v-112H4v-33h27l15-45h31v45h36v33H77v99c-1 23 16 31 38 25v30" id="cF"/><path fill="#333" d="M137-138c1-29-70-34-71-4 15 46 118 7 119 86 1 83-164 76-172 9l43-7c4 19 20 25 44 25 33 8 57-30 24-41C81-84 22-81 20-136c-2-80 154-74 161-7" id="cG"/><g id="aH"><use transform="matrix(0.04938271604938272,0,0,0.04938271604938272,0,0)" xlink:href="#cv"/><use transform="matrix(0.04938271604938272,0,0,0.04938271604938272,10.370370370370372,0)" xlink:href="#cv"/><use transform="matrix(0.04938271604938272,0,0,0.04938271604938272,20.740740740740744,0)" xlink:href="#cC"/><use transform="matrix(0.04938271604938272,0,0,0.04938271604938272,30.617283950617285,0)" xlink:href="#cE"/><use transform="matrix(0.04938271604938272,0,0,0.04938271604938272,40.49382716049384,0)" xlink:href="#cF"/><use transform="matrix(0.04938271604938272,0,0,0.04938271604938272,46.37037037037038,0)" xlink:href="#cC"/><use transform="matrix(0.04938271604938272,0,0,0.04938271604938272,56.24691358024693,0)" xlink:href="#cx"/><use transform="matrix(0.04938271604938272,0,0,0.04938271604938272,67.06172839506173,0)" xlink:href="#cB"/><use transform="matrix(0.04938271604938272,0,0,0.04938271604938272,77.87654320987654,0)" xlink:href="#cG"/><use transform="matrix(0.04938271604938272,0,0,0.04938271604938272,87.75308641975309,0)" xlink:href="#cD"/><use transform="matrix(0.04938271604938272,0,0,0.04938271604938272,98.12345679012346,0)" xlink:href="#cD"/></g><g id="aI"><use transform="matrix(0.05,0,0,0.05,0,0)" xlink:href="#cr"/><use transform="matrix(0.05,0,0,0.05,10,0)" xlink:href="#bf"/><use transform="matrix(0.05,0,0,0.05,20,0)" xlink:href="#bw"/><use transform="matrix(0.05,0,0,0.05,30,0)" xlink:href="#be"/><use transform="matrix(0.05,0,0,0.05,33.95,0)" xlink:href="#bg"/></g><path d="M24 0v-248h195v40H76v63h132v40H76v65h150V0H24" id="cH"/><path d="M144 0l-44-69L55 0H2l70-98-66-92h53l41 62 40-62h54l-67 91 71 99h-54" id="cI"/><path d="M115-3C79 11 28 4 28-45v-112H4v-33h27l15-45h31v45h36v33H77v99c-1 23 16 31 38 25v30" id="cJ"/><path d="M185-48c-13 30-37 53-82 52C43 2 14-33 14-96s30-98 90-98c62 0 83 45 84 108H66c0 31 8 55 39 56 18 0 30-7 34-22zm-45-69c5-46-57-63-70-21-2 6-4 13-4 21h74" id="cK"/><path d="M135-194c87-1 58 113 63 194h-50c-7-57 23-157-34-157-59 0-34 97-39 157H25l-1-190h47c2 12-1 28 3 38 12-26 28-41 61-42" id="cL"/><path d="M137-138c1-29-70-34-71-4 15 46 118 7 119 86 1 83-164 76-172 9l43-7c4 19 20 25 44 25 33 8 57-30 24-41C81-84 22-81 20-136c-2-80 154-74 161-7" id="cM"/><path d="M25-224v-37h50v37H25zM25 0v-190h50V0H25" id="cN"/><path d="M110-194c64 0 96 36 96 99 0 64-35 99-97 99-61 0-95-36-95-99 0-62 34-99 96-99zm-1 164c35 0 45-28 45-65 0-40-10-65-43-65-34 0-45 26-45 65 0 36 10 65 43 65" id="cO"/><g id="aJ"><use transform="matrix(0.05,0,0,0.05,0,0)" xlink:href="#cH"/><use transform="matrix(0.05,0,0,0.05,12,0)" xlink:href="#cI"/><use transform="matrix(0.05,0,0,0.05,22,0)" xlink:href="#cJ"/><use transform="matrix(0.05,0,0,0.05,27.950000000000003,0)" xlink:href="#cK"/><use transform="matrix(0.05,0,0,0.05,37.95,0)" xlink:href="#cL"/><use transform="matrix(0.05,0,0,0.05,48.900000000000006,0)" xlink:href="#cM"/><use transform="matrix(0.05,0,0,0.05,58.900000000000006,0)" xlink:href="#cN"/><use transform="matrix(0.05,0,0,0.05,63.900000000000006,0)" xlink:href="#cO"/><use transform="matrix(0.05,0,0,0.05,74.85000000000001,0)" xlink:href="#cL"/></g><path d="M24-248c93 1 206-16 204 79-1 75-69 88-152 82V0H24v-248zm52 121c47 0 100 7 100-41 0-47-54-39-100-39v80" id="cP"/><g id="aK"><use transform="matrix(0.05,0,0,0.05,0,0)" xlink:href="#cP"/><use transform="matrix(0.05,0,0,0.05,12,0)" xlink:href="#cO"/><use transform="matrix(0.05,0,0,0.05,22.950000000000003,0)" xlink:href="#cN"/><use transform="matrix(0.05,0,0,0.05,27.950000000000003,0)" xlink:href="#cL"/><use transform="matrix(0.05,0,0,0.05,38.900000000000006,0)" xlink:href="#cJ"/><use transform="matrix(0.05,0,0,0.05,44.85000000000001,0)" xlink:href="#cM"/></g><path d="M973-380H363L226 0H28l556-1456h168L1309 0h-197zM421-538h495l-248-681" id="cQ"/><path d="M520 20C244 20 95-247 95-550c0-298 151-550 427-552 127 0 227 43 301 130v-564h185V0H838l-9-116C755-25 652 20 520 20zm48-965c-210 0-288 177-288 416 0 218 87 392 286 392 117 0 203-53 257-158v-497c-55-102-140-153-255-153" id="cR"/><g id="aL"><use transform="matrix(0.008029513888888885,0,0,0.008029513888888885,0,0)" xlink:href="#cQ"/><use transform="matrix(0.008029513888888885,0,0,0.008029513888888885,10.72743055555555,0)" xlink:href="#cR"/><use transform="matrix(0.008029513888888885,0,0,0.008029513888888885,20.001519097222214,0)" xlink:href="#cR"/></g><path d="M1098-255l208-827h185L1176 0h-150L763-820 507 0H357L43-1082h184l213 810 252-810h149" id="cS"/><g id="aM"><use transform="matrix(0.008029513888888885,0,0,0.008029513888888885,0,0)" xlink:href="#ce"/><use transform="matrix(0.008029513888888885,0,0,0.008029513888888885,9.07335069444444,0)" xlink:href="#bZ"/><use transform="matrix(0.008029513888888885,0,0,0.008029513888888885,17.78537326388888,0)" xlink:href="#cS"/></g><path d="M491 20c-241-1-355-148-355-398v-704h185v699c0 164 67 246 200 246 141 0 235-53 282-158v-787h185V0H812l-4-107C736-22 630 20 491 20" id="cT"/><g id="aN"><use transform="matrix(0.008029513888888885,0,0,0.008029513888888885,0,0)" xlink:href="#ch"/><use transform="matrix(0.008029513888888885,0,0,0.008029513888888885,8.479166666666663,0)" xlink:href="#ca"/><use transform="matrix(0.008029513888888885,0,0,0.008029513888888885,13.850911458333325,0)" xlink:href="#cT"/><use transform="matrix(0.008029513888888885,0,0,0.008029513888888885,22.916232638888875,0)" xlink:href="#cR"/><use transform="matrix(0.008029513888888885,0,0,0.008029513888888885,32.190321180555536,0)" xlink:href="#bZ"/><use transform="matrix(0.008029513888888885,0,0,0.008029513888888885,40.90234374999997,0)" xlink:href="#ce"/><use transform="matrix(0.008029513888888885,0,0,0.008029513888888885,49.97569444444442,0)" xlink:href="#ca"/></g></defs></g></svg>