<svg xmlns="http://www.w3.org/2000/svg" xmlns:xlink="http://www.w3.org/1999/xlink" xmlns:lucid="lucid" width="1785.27" height="1820"><g transform="translate(-100 680)" lucid:page-tab-id="0_0"><path d="M0-1258.84h1870.87v2581.68H0z" fill="#fff"/><path d="M480-654a6 6 0 0 1 6-6h1168a6 6 0 0 1 6 6v1768a6 6 0 0 1-6 6H486a6 6 0 0 1-6-6z" stroke="#008a0e" stroke-width="6" fill-opacity="0"/><path d="M1819.75 79.75c0 10.9-8.84 19.75-19.75 19.75-10.9 0-19.75-8.84-19.75-19.75 0-10.9 8.84-19.75 19.75-19.75 10.9 0 19.75 8.84 19.75 19.75z" stroke="#3a414a" fill="#fff"/><path d="M1800 99.5v49.3a20.7 20.7 0 0 0 3.2 11.07L1840 218m-40-63.2l-40 63.2m0-98.75h80" stroke="#3a414a" fill="none"/><path d="M1760 66a6 6 0 0 1 6-6h68a6 6 0 0 1 6 6v168a6 6 0 0 1-6 6h-68a6 6 0 0 1-6-6z" fill="none"/><use xlink:href="#a" transform="matrix(1,0,0,1,1680,218) translate(55.89506172839506 17.77777777777778)"/><use xlink:href="#b" transform="matrix(1,0,0,1,1680,218) translate(121.26543209876543 17.77777777777778)"/><path d="M179.75 79.75c0 10.9-8.84 19.75-19.75 19.75-10.9 0-19.75-8.84-19.75-19.75C140.25 68.85 149.1 60 160 60c10.9 0 19.75 8.84 19.75 19.75z" stroke="#3a414a" fill="#fff"/><path d="M160 99.5v49.3a20.7 20.7 0 0 0 3.2 11.07L200 218m-40-63.2L120 218m0-98.75h80" stroke="#3a414a" fill="none"/><path d="M120 66a6 6 0 0 1 6-6h68a6 6 0 0 1 6 6v168a6 6 0 0 1-6 6h-68a6 6 0 0 1-6-6z" fill="none"/><use xlink:href="#c" transform="matrix(1,0,0,1,40,218) translate(81.75925925925927 17.77777777777778)"/><path d="M219.75 804.75c0 10.9-8.84 19.75-19.75 19.75-10.9 0-19.75-8.84-19.75-19.75 0-10.9 8.84-19.75 19.75-19.75 10.9 0 19.75 8.84 19.75 19.75z" stroke="#3a414a" fill="#fff"/><path d="M200 824.5v49.3a20.7 20.7 0 0 0 3.2 11.07L240 943m-40-63.2L160 943m0-98.75h80" stroke="#3a414a" fill="none"/><path d="M160 791a6 6 0 0 1 6-6h68a6 6 0 0 1 6 6v168a6 6 0 0 1-6 6h-68a6 6 0 0 1-6-6z" fill="none"/><use xlink:href="#d" transform="matrix(1,0,0,1,80,943) translate(67.68518518518519 17.77777777777778)"/><path d="M1779.75 859.75c0 10.9-8.84 19.75-19.75 19.75-10.9 0-19.75-8.84-19.75-19.75 0-10.9 8.84-19.75 19.75-19.75 10.9 0 19.75 8.84 19.75 19.75z" stroke="#3a414a" fill="#fff"/><path d="M1760 879.5v49.3a20.7 20.7 0 0 0 3.2 11.07L1800 998m-40-63.2l-40 63.2m0-98.75h80" stroke="#3a414a" fill="none"/><path d="M1720 846a6 6 0 0 1 6-6h68a6 6 0 0 1 6 6v168a6 6 0 0 1-6 6h-68a6 6 0 0 1-6-6z" fill="none"/><use xlink:href="#e" transform="matrix(1,0,0,1,1640,998) translate(76.23456790123456 17.77777777777778)"/><path d="M1100 0c0 33.14-35.82 60-80 60s-80-26.86-80-60 35.82-60 80-60 80 26.86 80 60z" stroke="#3a414a" fill="#fff"/><use xlink:href="#f" transform="matrix(1,0,0,1,940,-60) translate(58.029999999999994 63.15)"/><path d="M1180 320c0 33.14-35.82 60-80 60s-80-26.86-80-60 35.82-60 80-60 80 26.86 80 60z" stroke="#3a414a" fill="#fff"/><use xlink:href="#g" transform="matrix(1,0,0,1,1020,260) translate(52.505 63.15)"/><path d="M720-120c0 33.14-35.82 60-80 60s-80-26.86-80-60 35.82-60 80-60 80 26.86 80 60z" stroke="#3a414a" fill="#fff"/><use xlink:href="#h" transform="matrix(1,0,0,1,560,-180) translate(49.529999999999994 63.15)"/><use xlink:href="#i" transform="matrix(1,0,0,1,560,-180) translate(90.47999999999999 63.15)"/><path d="M720 230c0 33.14-35.82 60-80 60s-80-26.86-80-60 35.82-60 80-60 80 26.86 80 60z" stroke="#3a414a" fill="#fff"/><use xlink:href="#j" transform="matrix(1,0,0,1,560,170) translate(34.029999999999994 51.9)"/><use xlink:href="#k" transform="matrix(1,0,0,1,560,170) translate(100.98 51.9)"/><use xlink:href="#l" transform="matrix(1,0,0,1,560,170) translate(37.62999999999999 73.5)"/><path d="M720 387.5c0 33.14-35.82 60-80 60s-80-26.86-80-60 35.82-60 80-60 80 26.86 80 60z" stroke="#3a414a" fill="#fff"/><use xlink:href="#m" transform="matrix(1,0,0,1,560,327.5) translate(28.729999999999997 51.9)"/><use xlink:href="#n" transform="matrix(1,0,0,1,560,327.5) translate(72.28 51.9)"/><use xlink:href="#o" transform="matrix(1,0,0,1,560,327.5) translate(50.05499999999999 73.5)"/><path d="M900-90c0 27.6-31.34 50-70 50s-70-22.4-70-50 31.34-50 70-50 70 22.4 70 50z" stroke="#3a414a" fill="#fff"/><use xlink:href="#p" transform="matrix(1,0,0,1,760,-140) translate(12.505000000000004 55.025)"/><use xlink:href="#q" transform="matrix(1,0,0,1,760,-140) translate(64.505 55.025)"/><path d="M939 .5h-4.33v-1H939zm-18.5-6.52l.07.88.2.84.33.8.45.73.56.66.67.55.73.45.8.33.84.2.88.07h4.3v1H926l-1-.08-1-.24-.93-.4-.87-.52-.78-.66-.66-.78-.53-.87-.38-.94-.24-.98-.08-1v-5.4h1zm0-10.77l-1 .02v-10.8h1zm0-16.16h-1v-1.37h1zm0-22.7h-1v-4.26h1zm0-9.66h-1V-76.1h1zm-3.05-25.14l.55.14.53.2.48.3.44.38.37.43.3.47.23.53.13.55.04.55v5.4h-1v-5.36l-.03-.43-.1-.4-.16-.37-.2-.35-.27-.3-.3-.28-.36-.2-.38-.17-.4-.1-.45-.03.07-1z" stroke="#3a414a" stroke-width=".05" fill="#3a414a"/><path d="M939.5 0v.5h-.5v-1h.5z" fill="#3a414a"/><path d="M939.52 0v.53h-.56V-.54h.58zm-.5-.47v.94h.46v-.95z" stroke="#3a414a" stroke-width=".05" fill="#3a414a"/><path d="M916.38-85.36L902.12-90l14.26-4.64z" fill="#3a414a"/><path d="M916.88-84.68L900.5-90l16.38-5.32zM903.74-90l12.14 3.95v-7.9z" stroke="#3a414a" stroke-width=".05" fill="#3a414a"/><use xlink:href="#r" transform="matrix(1,0,0,1,868.2223763954278,-55.66666666666673) translate(0 14.222222222222223)"/><path d="M720.97-300c0 33.14-35.82 60-80 60s-80-26.86-80-60 35.82-60 80-60 80 26.86 80 60z" stroke="#3a414a" fill="#fff"/><use xlink:href="#s" transform="matrix(1,0,0,1,560.9700194100684,-360) translate(28.154999999999994 63.15)"/><use xlink:href="#t" transform="matrix(1,0,0,1,560.9700194100684,-360) translate(92.00500000000001 63.15)"/><path d="M993.43-73.37h-1v-4.9h1zm0-9.8h-1v-9.8h1zm0-14.7h-1v-9.82h1zm0-14.72h-1v-9.8h1zm0-14.7h-1v-9.8h1zm0-14.7h-1v-9.8h1zm0-14.72h-1v-9.8h1zm0-14.7h-1v-9.8h1zm0-14.72h-1v-9.8h1zm0-14.7h-1v-9.8h1zm0-14.7h-1v-9.82h1zm0-14.72h-1v-9.8h1zm0-14.7h-1v-9.82h1zm0-14.72h-1v-9.8h1zm0-14.7h-1v-9.8h1zm-5.5-26.04l1 .24.95.4.87.52.77.66.67.78.52.87.4.94.23.98.08 1v4.92h-1v-4.88l-.07-.88-.2-.84-.33-.8-.46-.73-.55-.66-.66-.55-.74-.45-.8-.33-.83-.2-.9-.07h-4.88v-1h4.93zm-261.05.92h-4.9v-1h4.9zm14.72 0h-9.82v-1h9.82zm14.72 0h-9.82v-1h9.82zm14.72 0h-9.82v-1h9.82zm14.72 0h-9.82v-1h9.82zm14.72 0h-9.82v-1h9.82zm14.72 0h-9.82v-1h9.82zm14.7 0h-9.8v-1h9.8zm14.74 0h-9.82v-1h9.8zm14.72 0h-9.82v-1h9.82zm14.72 0h-9.82v-1h9.82zm14.7 0H879v-1h9.8zm14.73 0h-9.8v-1h9.8zm14.73 0h-9.8v-1h9.8zm14.72 0h-9.8v-1h9.8zm14.72 0h-9.8v-1h9.8zm14.72 0h-9.82v-1h9.8zm14.7 0h-9.8v-1h9.8z" stroke="#3a414a" stroke-width=".05" fill="#3a414a"/><path d="M721.98-299.5h-.52v-1h.52z" fill="#3a414a"/><path d="M722-299.48h-.57l.02-.5v-.54h.56zm-.5-1v.5l-.02.46h.48v-.96z" stroke="#3a414a" stroke-width=".05" fill="#3a414a"/><path d="M992.93-58.6l-4.64-14.27h9.26z" fill="#3a414a"/><path d="M992.93-56.98l-5.33-16.4h10.65zm-3.95-15.4l3.95 12.16 3.94-12.15z" stroke="#3a414a" stroke-width=".05" fill="#3a414a"/><use xlink:href="#u" transform="matrix(1,0,0,1,815.954321876082,-325.33333333333337) translate(0 14.222222222222223)"/><path d="M940-220c0 33.14-35.82 60-80 60s-80-26.86-80-60 35.82-60 80-60 80 26.86 80 60z" stroke="#3a414a" fill="#fff"/><use xlink:href="#p" transform="matrix(1,0,0,1,780,-280) translate(15.529999999999996 51.9)"/><use xlink:href="#v" transform="matrix(1,0,0,1,780,-280) translate(67.53 51.9)"/><use xlink:href="#w" transform="matrix(1,0,0,1,780,-280) translate(81.48 51.9)"/><use xlink:href="#x" transform="matrix(1,0,0,1,780,-280) translate(47.029999999999994 73.5)"/><use xlink:href="#y" transform="matrix(1,0,0,1,780,-280) translate(64.97999999999999 73.5)"/><path d="M724.83-119.5H721v-1h3.83zm11.5 0h-7.66v-1h7.66zm14.17-6.48l-.08 1-.24 1-.4.93-.52.87-.66.78-.78.66-.87.53-.94.38-.98.24-1 .08h-3.85v-1h3.8l.9-.07.83-.2.8-.33.73-.45.66-.56.55-.67.45-.73.33-.8.2-.84.07-.88v-4.87h1zm0-9.8h-1v-9.78h1zm0-14.66h-1v-6.4h1zm0-29.34h-1v-9.78h1zm0-14.66h-1v-9.78h1zm12.62-25.06h-7.1l-.88.07-.84.2-.8.33-.73.45-.66.56-.55.67-.45.73-.33.8-.2.84-.07.88v4.87h-1v-4.92l.08-1 .24-1 .4-.93.52-.87.66-.78.78-.66.87-.53.94-.38.98-.24 1-.08h7.14z" stroke="#3a414a" stroke-width=".05" fill="#3a414a"/><path d="M721-119.5h-.5v-1h.5z" fill="#3a414a"/><path d="M721.04-119.47h-.58v-1.05h.58zm-.52-1v.95h.47v-.94z" stroke="#3a414a" stroke-width=".05" fill="#3a414a"/><path d="M777.88-220l-14.26 4.63v-9.26z" fill="#3a414a"/><path d="M779.5-220l-16.38 5.32v-10.64zm-15.38 3.95l12.14-3.95-12.14-3.95z" stroke="#3a414a" stroke-width=".05" fill="#3a414a"/><use xlink:href="#r" transform="matrix(1,0,0,1,698.2222222222222,-178.1591032876197) translate(0 14.222222222222223)"/><path d="M640.97-239v4.68m0 4.7v9.35m0 4.7v9.35m0 4.68v4.7" stroke="#3a414a" fill="none"/><path d="M640.96-239.5h.5v.5h-1v-.5z" stroke="#3a414a" stroke-width=".05" fill="#3a414a"/><path d="M640.97-182.1l-4.63-14.25h9.26z" stroke="#3a414a" fill="#3a414a"/><path d="M720 60c0 33.14-35.82 60-80 60s-80-26.86-80-60 35.82-60 80-60 80 26.86 80 60z" stroke="#3a414a" fill="#fff"/><use xlink:href="#z" transform="matrix(1,0,0,1,560,0) translate(9.255000000000004 63.15)"/><use xlink:href="#A" transform="matrix(1,0,0,1,560,0) translate(52.80500000000001 63.15)"/><use xlink:href="#B" transform="matrix(1,0,0,1,560,0) translate(116.805 63.15)"/><path d="M1500 440c0 33.14-35.82 60-80 60s-80-26.86-80-60 35.82-60 80-60 80 26.86 80 60z" stroke="#3a414a" fill="#fff"/><use xlink:href="#C" transform="matrix(1,0,0,1,1340,380) translate(37.605 63.15)"/><use xlink:href="#D" transform="matrix(1,0,0,1,1340,380) translate(73.555 63.15)"/><path d="M200.5 863.93" stroke="#3a414a" fill="none"/><path d="M720 960c0 33.14-35.82 60-80 60s-80-26.86-80-60 35.82-60 80-60 80 26.86 80 60z" stroke="#3a414a" fill="#fff"/><use xlink:href="#E" transform="matrix(1,0,0,1,560,900) translate(13.229999999999999 63.15)"/><use xlink:href="#F" transform="matrix(1,0,0,1,560,900) translate(86.83 63.15)"/><path d="M720 532.5c0 33.14-35.82 60-80 60s-80-26.86-80-60 35.82-60 80-60 80 26.86 80 60z" stroke="#3a414a" fill="#fff"/><use xlink:href="#G" transform="matrix(1,0,0,1,560,472.5) translate(44.05499999999999 63.15)"/><path d="M720 680c0 33.14-35.82 60-80 60s-80-26.86-80-60 35.82-60 80-60 80 26.86 80 60z" stroke="#3a414a" fill="#fff"/><use xlink:href="#H" transform="matrix(1,0,0,1,560,620) translate(35.029999999999994 63.15)"/><path d="M720 820c0 33.14-35.82 60-80 60s-80-26.86-80-60 35.82-60 80-60 80 26.86 80 60z" stroke="#3a414a" fill="#fff"/><use xlink:href="#I" transform="matrix(1,0,0,1,560,760) translate(57.529999999999994 51.9)"/><use xlink:href="#J" transform="matrix(1,0,0,1,560,760) translate(32.57999999999999 73.5)"/><path d="M200 880.74" stroke="#3a414a" fill="none"/><path d="M161.5 138.93H504a6 6 0 0 1 6 6V814a6 6 0 0 0 6 6h42.5M161.53 138.93h-4.03" stroke="#000" stroke-width="2" fill="none"/><path d="M559.5 820v.4l.03.6h-1.06v-2h1.06z" stroke="#000" stroke-width=".05"/><path d="M161.5 138.93H504a6 6 0 0 1 6 6V674a6 6 0 0 0 6 6h42.5M161.53 138.93h-4.03" stroke="#000" stroke-width="2" fill="none"/><path d="M559.5 680v.4l.03.6h-1.06v-2h1.06z" stroke="#000" stroke-width=".05"/><path d="M161.5 138.93H504a6 6 0 0 1 6 6V526.5a6 6 0 0 0 6 6h42.5M161.53 138.93h-4.03" stroke="#000" stroke-width="2" fill="none"/><path d="M559.5 532.5v.4l.03.6h-1.06v-2h1.06z" stroke="#000" stroke-width=".05"/><path d="M161.5 138.93H504a6 6 0 0 1 6 6v225.8a6 6 0 0 0 6 6h43.8M161.53 138.93h-4.03" stroke="#000" stroke-width="2" fill="none"/><path d="M560.95 376.02l-.38 1.7h-.8v-2h1.26z" stroke="#000" stroke-width=".05"/><path d="M161.5 138.93H504a6 6 0 0 1 6 6V954a6 6 0 0 0 6 6h42.5M161.53 138.93h-4.03" stroke="#000" stroke-width="2" fill="none"/><path d="M559.5 960v.4l.03.6h-1.06v-2h1.06z" stroke="#000" stroke-width=".05"/><path d="M161.5 138.93H504a6 6 0 0 1 6 6V224a6 6 0 0 0 6 6h42.5M161.53 138.93h-4.03" stroke="#000" stroke-width="2" fill="none"/><path d="M559.5 230v.4l.03.6h-1.06v-2h1.06z" stroke="#000" stroke-width=".05"/><path d="M161.5 138.93H504a6 6 0 0 0 6-6V66a6 6 0 0 1 6-6h42.5M161.53 138.93h-4.03" stroke="#000" stroke-width="2" fill="none"/><path d="M559.5 60v.4l.03.6h-1.06v-2h1.06z" stroke="#000" stroke-width=".05"/><path d="M161.5 138.93H504a6 6 0 0 1 6 6V314a6 6 0 0 0 6 6h502.5M161.53 138.93h-4.03" stroke="#000" stroke-width="2" fill="none"/><path d="M1019.5 320v.4l.03.6h-1.06v-2h1.06z" stroke="#000" stroke-width=".05"/><path d="M161.5 138.93H744a6 6 0 0 1 6 6V434a6 6 0 0 0 6 6h582.5M161.53 138.93h-4.03" stroke="#000" stroke-width="2" fill="none"/><path d="M1339.5 440v.4l.03.6h-1.06v-2h1.06z" stroke="#000" stroke-width=".05"/><path d="M161.5 138.93H504a6 6 0 0 0 6-6V6a6 6 0 0 1 6-6h422.5M161.53 138.93h-4.03" stroke="#000" stroke-width="2" fill="none"/><path d="M939.5 0v.4l.03.6h-1.06v-2h1.06z" stroke="#000" stroke-width=".05"/><path d="M161.5 138.93H504a6 6 0 0 0 6-6V-114a6 6 0 0 1 6-6h42.5M161.53 138.93h-4.03" stroke="#000" stroke-width="2" fill="none"/><path d="M559.5-120v.4l.03.6h-1.06v-2h1.06z" stroke="#000" stroke-width=".05"/><path d="M201.5 863.93H484a6 6 0 0 0 6-6V826a6 6 0 0 1 6-6h62.5M201.53 863.93h-4.03" stroke="#00f" stroke-width="2" fill="none"/><path d="M559.5 820v.4l.03.6h-1.06v-2h1.06z" stroke="#00f" stroke-width=".05" fill="#00f"/><path d="M201.5 863.93H484a6 6 0 0 1 6 6V914a6 6 0 0 0 6 6h18a6 6 0 0 1 6 6v28a6 6 0 0 0 6 6h32.5M201.53 863.93h-4.03" stroke="#00f" stroke-width="2" fill="none"/><path d="M559.5 960v.4l.03.6h-1.06v-2h1.06z" stroke="#00f" stroke-width=".05" fill="#00f"/><path d="M201.5 863.93H484a6 6 0 0 1 6 6V1024a6 6 0 0 0 6 6h918a6 6 0 0 0 6-6V501.5M201.53 863.93h-4.03" stroke="#00f" stroke-width="2" fill="none"/><path d="M1420 500.5h1v1.03h-2v-1.06z" stroke="#00f" stroke-width=".05" fill="#00f"/><path d="M201.5 863.93H484a6 6 0 0 1 6 6V1024a6 6 0 0 0 6 6h708a6 6 0 0 0 6-6V6a6 6 0 0 0-6-6h-102.5M201.53 863.93h-4.03" stroke="#00f" stroke-width="2" fill="none"/><path d="M1101.53 1h-1.06l.03-1v-.4l-.03-.6h1.06z" stroke="#00f" stroke-width=".05" fill="#00f"/><path d="M201.5 863.93H484a6 6 0 0 1 6 6V1024a6 6 0 0 0 6 6h598a6 6 0 0 0 6-6V381.5M201.53 863.93h-4.03" stroke="#00f" stroke-width="2" fill="none"/><path d="M1100 380.5h1v1.03h-2v-1.06z" stroke="#00f" stroke-width=".05" fill="#00f"/><path d="M1798 138.93h-152a6 6 0 0 1-6-6V6a6 6 0 0 0-6-6h-532M1797.96 138.93h4.54" stroke="#966700" stroke-width="3" fill="none"/><path d="M1102.04 1.5h-1.6l.06-1.5v-.4l-.05-1.1h1.6z" stroke="#966700" stroke-width=".05" fill="#966700"/><path d="M1798 138.93h-152a6 6 0 0 0-6 6V314a6 6 0 0 1-6 6h-452M1797.96 138.93h4.54" stroke="#966700" stroke-width="3" fill="none"/><path d="M1182.04 321.5h-1.6l.06-1.5v-.4l-.05-1.1h1.6z" stroke="#966700" stroke-width=".05" fill="#966700"/><path d="M1798 138.93h-152a6 6 0 0 0-6 6V432a6 6 0 0 1-6 6h-132.07M1797.96 138.93h4.54" stroke="#966700" stroke-width="3" fill="none"/><path d="M1501.97 439.5h-1.48l-.12-2.77-.02-.23h1.6z" stroke="#966700" stroke-width=".05" fill="#966700"/><path d="M1758 918.93h-652a6 6 0 0 1-6-6V382M1757.96 918.93h4.54" stroke="#e81313" stroke-width="3" fill="none"/><path d="M1100 380.5h.9l.6-.03v1.57h-3v-1.6z" stroke="#e81313" stroke-width=".05" fill="#e81313"/><path d="M1758 918.93h-542a6 6 0 0 1-6-6V6a6 6 0 0 0-6-6h-102M1757.96 918.93h4.54" stroke="#e81313" stroke-width="3" fill="none"/><path d="M1102.04 1.5h-1.6l.06-1.5v-.4l-.05-1.1h1.6z" stroke="#e81313" stroke-width=".05" fill="#e81313"/><path d="M1758 918.93h-332a6 6 0 0 1-6-6V502M1757.96 918.93h4.54" stroke="#e81313" stroke-width="3" fill="none"/><path d="M1420 500.5h.9l.6-.03v1.57h-3v-1.6z" stroke="#e81313" stroke-width=".05" fill="#e81313"/><defs><path fill="#3a414a" d="M185-189c-5-48-123-54-124 2 14 75 158 14 163 119 3 78-121 87-175 55-17-10-28-26-33-46l33-7c5 56 141 63 141-1 0-78-155-14-162-118-5-82 145-84 179-34 5 7 8 16 11 25" id="K"/><path fill="#3a414a" d="M84 4C-5 8 30-112 23-190h32v120c0 31 7 50 39 49 72-2 45-101 50-169h31l1 190h-30c-1-10 1-25-2-33-11 22-28 36-60 37" id="L"/><path fill="#3a414a" d="M115-194c55 1 70 41 70 98S169 2 115 4C84 4 66-9 55-30l1 105H24l-1-265h31l2 30c10-21 28-34 59-34zm-8 174c40 0 45-34 45-75s-6-73-45-74c-42 0-51 32-51 76 0 43 10 73 51 73" id="M"/><path fill="#3a414a" d="M100-194c63 0 86 42 84 106H49c0 40 14 67 53 68 26 1 43-12 49-29l28 8c-11 28-37 45-77 45C44 4 14-33 15-96c1-61 26-98 85-98zm52 81c6-60-76-77-97-28-3 7-6 17-6 28h103" id="N"/><path fill="#3a414a" d="M114-163C36-179 61-72 57 0H25l-1-190h30c1 12-1 29 2 39 6-27 23-49 58-41v29" id="O"/><g id="a"><use transform="matrix(0.06172839506172839,0,0,0.06172839506172839,0,0)" xlink:href="#K"/><use transform="matrix(0.06172839506172839,0,0,0.06172839506172839,14.814814814814813,0)" xlink:href="#L"/><use transform="matrix(0.06172839506172839,0,0,0.06172839506172839,27.160493827160494,0)" xlink:href="#M"/><use transform="matrix(0.06172839506172839,0,0,0.06172839506172839,39.50617283950617,0)" xlink:href="#N"/><use transform="matrix(0.06172839506172839,0,0,0.06172839506172839,51.85185185185185,0)" xlink:href="#O"/></g><path fill="#3a414a" d="M205 0l-28-72H64L36 0H1l101-248h38L239 0h-34zm-38-99l-47-123c-12 45-31 82-46 123h93" id="P"/><path fill="#3a414a" d="M85-194c31 0 48 13 60 33l-1-100h32l1 261h-30c-2-10 0-23-3-31C134-8 116 4 85 4 32 4 16-35 15-94c0-66 23-100 70-100zm9 24c-40 0-46 34-46 75 0 40 6 74 45 74 42 0 51-32 51-76 0-42-9-74-50-73" id="Q"/><path fill="#3a414a" d="M210-169c-67 3-38 105-44 169h-31v-121c0-29-5-50-35-48C34-165 62-65 56 0H25l-1-190h30c1 10-1 24 2 32 10-44 99-50 107 0 11-21 27-35 58-36 85-2 47 119 55 194h-31v-121c0-29-5-49-35-48" id="R"/><path fill="#3a414a" d="M24-231v-30h32v30H24zM24 0v-190h32V0H24" id="S"/><path fill="#3a414a" d="M117-194c89-4 53 116 60 194h-32v-121c0-31-8-49-39-48C34-167 62-67 57 0H25l-1-190h30c1 10-1 24 2 32 11-22 29-35 61-36" id="T"/><g id="b"><use transform="matrix(0.06172839506172839,0,0,0.06172839506172839,0,0)" xlink:href="#P"/><use transform="matrix(0.06172839506172839,0,0,0.06172839506172839,14.814814814814813,0)" xlink:href="#Q"/><use transform="matrix(0.06172839506172839,0,0,0.06172839506172839,27.160493827160494,0)" xlink:href="#R"/><use transform="matrix(0.06172839506172839,0,0,0.06172839506172839,45.61728395061728,0)" xlink:href="#S"/><use transform="matrix(0.06172839506172839,0,0,0.06172839506172839,50.49382716049382,0)" xlink:href="#T"/></g><path fill="#3a414a" d="M30-248c87 1 191-15 191 75 0 78-77 80-158 76V0H30v-248zm33 125c57 0 124 11 124-50 0-59-68-47-124-48v98" id="U"/><path fill="#3a414a" d="M141-36C126-15 110 5 73 4 37 3 15-17 15-53c-1-64 63-63 125-63 3-35-9-54-41-54-24 1-41 7-42 31l-33-3c5-37 33-52 76-52 45 0 72 20 72 64v82c-1 20 7 32 28 27v20c-31 9-61-2-59-35zM48-53c0 20 12 33 32 33 41-3 63-29 60-74-43 2-92-5-92 41" id="V"/><path fill="#3a414a" d="M59-47c-2 24 18 29 38 22v24C64 9 27 4 27-40v-127H5v-23h24l9-43h21v43h35v23H59v120" id="W"/><path fill="#3a414a" d="M135-143c-3-34-86-38-87 0 15 53 115 12 119 90S17 21 10-45l28-5c4 36 97 45 98 0-10-56-113-15-118-90-4-57 82-63 122-42 12 7 21 19 24 35" id="X"/><g id="c"><use transform="matrix(0.06172839506172839,0,0,0.06172839506172839,0,0)" xlink:href="#U"/><use transform="matrix(0.06172839506172839,0,0,0.06172839506172839,14.814814814814813,0)" xlink:href="#V"/><use transform="matrix(0.06172839506172839,0,0,0.06172839506172839,27.160493827160494,0)" xlink:href="#O"/><use transform="matrix(0.06172839506172839,0,0,0.06172839506172839,34.50617283950617,0)" xlink:href="#N"/><use transform="matrix(0.06172839506172839,0,0,0.06172839506172839,46.85185185185185,0)" xlink:href="#T"/><use transform="matrix(0.06172839506172839,0,0,0.06172839506172839,59.197530864197525,0)" xlink:href="#W"/><use transform="matrix(0.06172839506172839,0,0,0.06172839506172839,65.37037037037037,0)" xlink:href="#X"/></g><path fill="#3a414a" d="M240 0l2-218c-23 76-54 145-80 218h-23L58-218 59 0H30v-248h44l77 211c21-75 51-140 76-211h43V0h-30" id="Y"/><path fill="#3a414a" d="M100-194c62-1 85 37 85 99 1 63-27 99-86 99S16-35 15-95c0-66 28-99 85-99zM99-20c44 1 53-31 53-75 0-43-8-75-51-75s-53 32-53 75 10 74 51 75" id="Z"/><path fill="#3a414a" d="M9 0v-24l116-142H16v-24h144v24L44-24h123V0H9" id="aa"/><g id="d"><use transform="matrix(0.06172839506172839,0,0,0.06172839506172839,0,0)" xlink:href="#Y"/><use transform="matrix(0.06172839506172839,0,0,0.06172839506172839,18.456790123456788,0)" xlink:href="#N"/><use transform="matrix(0.06172839506172839,0,0,0.06172839506172839,30.80246913580247,0)" xlink:href="#R"/><use transform="matrix(0.06172839506172839,0,0,0.06172839506172839,49.25925925925925,0)" xlink:href="#Z"/><use transform="matrix(0.06172839506172839,0,0,0.06172839506172839,61.60493827160493,0)" xlink:href="#O"/><use transform="matrix(0.06172839506172839,0,0,0.06172839506172839,68.9506172839506,0)" xlink:href="#S"/><use transform="matrix(0.06172839506172839,0,0,0.06172839506172839,73.82716049382715,0)" xlink:href="#aa"/><use transform="matrix(0.06172839506172839,0,0,0.06172839506172839,84.93827160493827,0)" xlink:href="#N"/><use transform="matrix(0.06172839506172839,0,0,0.06172839506172839,97.28395061728395,0)" xlink:href="#O"/></g><path fill="#3a414a" d="M177-190C167-65 218 103 67 71c-23-6-38-20-44-43l32-5c15 47 100 32 89-28v-30C133-14 115 1 83 1 29 1 15-40 15-95c0-56 16-97 71-98 29-1 48 16 59 35 1-10 0-23 2-32h30zM94-22c36 0 50-32 50-73 0-42-14-75-50-75-39 0-46 34-46 75s6 73 46 73" id="ab"/><g id="e"><use transform="matrix(0.06172839506172839,0,0,0.06172839506172839,0,0)" xlink:href="#Y"/><use transform="matrix(0.06172839506172839,0,0,0.06172839506172839,18.456790123456788,0)" xlink:href="#V"/><use transform="matrix(0.06172839506172839,0,0,0.06172839506172839,30.80246913580247,0)" xlink:href="#T"/><use transform="matrix(0.06172839506172839,0,0,0.06172839506172839,43.148148148148145,0)" xlink:href="#V"/><use transform="matrix(0.06172839506172839,0,0,0.06172839506172839,55.49382716049382,0)" xlink:href="#ab"/><use transform="matrix(0.06172839506172839,0,0,0.06172839506172839,67.8395061728395,0)" xlink:href="#N"/><use transform="matrix(0.06172839506172839,0,0,0.06172839506172839,80.18518518518519,0)" xlink:href="#O"/></g><path d="M30 0v-248h33v221h125V0H30" id="ac"/><path d="M100-194c62-1 85 37 85 99 1 63-27 99-86 99S16-35 15-95c0-66 28-99 85-99zM99-20c44 1 53-31 53-75 0-43-8-75-51-75s-53 32-53 75 10 74 51 75" id="ad"/><path d="M177-190C167-65 218 103 67 71c-23-6-38-20-44-43l32-5c15 47 100 32 89-28v-30C133-14 115 1 83 1 29 1 15-40 15-95c0-56 16-97 71-98 29-1 48 16 59 35 1-10 0-23 2-32h30zM94-22c36 0 50-32 50-73 0-42-14-75-50-75-39 0-46 34-46 75s6 73 46 73" id="ae"/><path d="M24-231v-30h32v30H24zM24 0v-190h32V0H24" id="af"/><path d="M117-194c89-4 53 116 60 194h-32v-121c0-31-8-49-39-48C34-167 62-67 57 0H25l-1-190h30c1 10-1 24 2 32 11-22 29-35 61-36" id="ag"/><g id="f"><use transform="matrix(0.05,0,0,0.05,0,0)" xlink:href="#ac"/><use transform="matrix(0.05,0,0,0.05,10,0)" xlink:href="#ad"/><use transform="matrix(0.05,0,0,0.05,20,0)" xlink:href="#ae"/><use transform="matrix(0.05,0,0,0.05,30,0)" xlink:href="#af"/><use transform="matrix(0.05,0,0,0.05,33.95,0)" xlink:href="#ag"/></g><path d="M84 4C-5 8 30-112 23-190h32v120c0 31 7 50 39 49 72-2 45-101 50-169h31l1 190h-30c-1-10 1-25-2-33-11 22-28 36-60 37" id="ah"/><path d="M59-47c-2 24 18 29 38 22v24C64 9 27 4 27-40v-127H5v-23h24l9-43h21v43h35v23H59v120" id="ai"/><g id="g"><use transform="matrix(0.05,0,0,0.05,0,0)" xlink:href="#ac"/><use transform="matrix(0.05,0,0,0.05,10,0)" xlink:href="#ad"/><use transform="matrix(0.05,0,0,0.05,20,0)" xlink:href="#ae"/><use transform="matrix(0.05,0,0,0.05,30,0)" xlink:href="#ad"/><use transform="matrix(0.05,0,0,0.05,40,0)" xlink:href="#ah"/><use transform="matrix(0.05,0,0,0.05,50,0)" xlink:href="#ai"/></g><path d="M185-189c-5-48-123-54-124 2 14 75 158 14 163 119 3 78-121 87-175 55-17-10-28-26-33-46l33-7c5 56 141 63 141-1 0-78-155-14-162-118-5-82 145-84 179-34 5 7 8 16 11 25" id="aj"/><g id="h"><use transform="matrix(0.05,0,0,0.05,0,0)" xlink:href="#aj"/><use transform="matrix(0.05,0,0,0.05,12,0)" xlink:href="#af"/><use transform="matrix(0.05,0,0,0.05,15.949999999999998,0)" xlink:href="#ae"/><use transform="matrix(0.05,0,0,0.05,25.950000000000003,0)" xlink:href="#ag"/></g><path d="M115-194c55 1 70 41 70 98S169 2 115 4C84 4 66-9 55-30l1 105H24l-1-265h31l2 30c10-21 28-34 59-34zm-8 174c40 0 45-34 45-75s-6-73-45-74c-42 0-51 32-51 76 0 43 10 73 51 73" id="ak"/><g id="i"><use transform="matrix(0.05,0,0,0.05,0,0)" xlink:href="#ah"/><use transform="matrix(0.05,0,0,0.05,10,0)" xlink:href="#ak"/></g><path d="M212-179c-10-28-35-45-73-45-59 0-87 40-87 99 0 60 29 101 89 101 43 0 62-24 78-52l27 14C228-24 195 4 139 4 59 4 22-46 18-125c-6-104 99-153 187-111 19 9 31 26 39 46" id="al"/><path d="M141-36C126-15 110 5 73 4 37 3 15-17 15-53c-1-64 63-63 125-63 3-35-9-54-41-54-24 1-41 7-42 31l-33-3c5-37 33-52 76-52 45 0 72 20 72 64v82c-1 20 7 32 28 27v20c-31 9-61-2-59-35zM48-53c0 20 12 33 32 33 41-3 63-29 60-74-43 2-92-5-92 41" id="am"/><path d="M96-169c-40 0-48 33-48 73s9 75 48 75c24 0 41-14 43-38l32 2c-6 37-31 61-74 61-59 0-76-41-82-99-10-93 101-131 147-64 4 7 5 14 7 22l-32 3c-4-21-16-35-41-35" id="an"/><g id="j"><use transform="matrix(0.05,0,0,0.05,0,0)" xlink:href="#al"/><use transform="matrix(0.05,0,0,0.05,12.950000000000001,0)" xlink:href="#ad"/><use transform="matrix(0.05,0,0,0.05,22.950000000000003,0)" xlink:href="#ag"/><use transform="matrix(0.05,0,0,0.05,32.95,0)" xlink:href="#ai"/><use transform="matrix(0.05,0,0,0.05,37.95,0)" xlink:href="#am"/><use transform="matrix(0.05,0,0,0.05,47.95,0)" xlink:href="#an"/><use transform="matrix(0.05,0,0,0.05,56.95,0)" xlink:href="#ai"/></g><path d="M106-169C34-169 62-67 57 0H25v-261h32l-1 103c12-21 28-36 61-36 89 0 53 116 60 194h-32v-121c2-32-8-49-39-48" id="ao"/><path d="M100-194c63 0 86 42 84 106H49c0 40 14 67 53 68 26 1 43-12 49-29l28 8c-11 28-37 45-77 45C44 4 14-33 15-96c1-61 26-98 85-98zm52 81c6-60-76-77-97-28-3 7-6 17-6 28h103" id="ap"/><g id="k"><use transform="matrix(0.05,0,0,0.05,0,0)" xlink:href="#ai"/><use transform="matrix(0.05,0,0,0.05,5,0)" xlink:href="#ao"/><use transform="matrix(0.05,0,0,0.05,15,0)" xlink:href="#ap"/></g><path d="M240 0l2-218c-23 76-54 145-80 218h-23L58-218 59 0H30v-248h44l77 211c21-75 51-140 76-211h43V0h-30" id="aq"/><path d="M210-169c-67 3-38 105-44 169h-31v-121c0-29-5-50-35-48C34-165 62-65 56 0H25l-1-190h30c1 10-1 24 2 32 10-44 99-50 107 0 11-21 27-35 58-36 85-2 47 119 55 194h-31v-121c0-29-5-49-35-48" id="ar"/><path d="M114-163C36-179 61-72 57 0H25l-1-190h30c1 12-1 29 2 39 6-27 23-49 58-41v29" id="as"/><path d="M9 0v-24l116-142H16v-24h144v24L44-24h123V0H9" id="at"/><g id="l"><use transform="matrix(0.05,0,0,0.05,0,0)" xlink:href="#aq"/><use transform="matrix(0.05,0,0,0.05,14.950000000000001,0)" xlink:href="#ap"/><use transform="matrix(0.05,0,0,0.05,24.950000000000003,0)" xlink:href="#ar"/><use transform="matrix(0.05,0,0,0.05,39.900000000000006,0)" xlink:href="#ad"/><use transform="matrix(0.05,0,0,0.05,49.900000000000006,0)" xlink:href="#as"/><use transform="matrix(0.05,0,0,0.05,55.85,0)" xlink:href="#af"/><use transform="matrix(0.05,0,0,0.05,59.80000000000001,0)" xlink:href="#at"/><use transform="matrix(0.05,0,0,0.05,68.80000000000001,0)" xlink:href="#ap"/><use transform="matrix(0.05,0,0,0.05,78.80000000000001,0)" xlink:href="#as"/></g><path d="M137 0h-34L2-248h35l83 218 83-218h36" id="au"/><path d="M206 0h-36l-40-164L89 0H53L-1-190h32L70-26l43-164h34l41 164 42-164h31" id="av"/><g id="m"><use transform="matrix(0.05,0,0,0.05,0,0)" xlink:href="#au"/><use transform="matrix(0.05,0,0,0.05,11.65,0)" xlink:href="#af"/><use transform="matrix(0.05,0,0,0.05,15.600000000000001,0)" xlink:href="#ap"/><use transform="matrix(0.05,0,0,0.05,25.6,0)" xlink:href="#av"/></g><path d="M135-143c-3-34-86-38-87 0 15 53 115 12 119 90S17 21 10-45l28-5c4 36 97 45 98 0-10-56-113-15-118-90-4-57 82-63 122-42 12 7 21 19 24 35" id="aw"/><path d="M85-194c31 0 48 13 60 33l-1-100h32l1 261h-30c-2-10 0-23-3-31C134-8 116 4 85 4 32 4 16-35 15-94c0-66 23-100 70-100zm9 24c-40 0-46 34-46 75 0 40 6 74 45 74 42 0 51-32 51-76 0-42-9-74-50-73" id="ax"/><g id="n"><use transform="matrix(0.05,0,0,0.05,0,0)" xlink:href="#aw"/><use transform="matrix(0.05,0,0,0.05,9,0)" xlink:href="#ai"/><use transform="matrix(0.05,0,0,0.05,14,0)" xlink:href="#ah"/><use transform="matrix(0.05,0,0,0.05,24,0)" xlink:href="#ax"/><use transform="matrix(0.05,0,0,0.05,34,0)" xlink:href="#ap"/><use transform="matrix(0.05,0,0,0.05,44,0)" xlink:href="#ag"/><use transform="matrix(0.05,0,0,0.05,54,0)" xlink:href="#ai"/></g><g id="o"><use transform="matrix(0.05,0,0,0.05,0,0)" xlink:href="#as"/><use transform="matrix(0.05,0,0,0.05,5.95,0)" xlink:href="#ap"/><use transform="matrix(0.05,0,0,0.05,15.949999999999998,0)" xlink:href="#an"/><use transform="matrix(0.05,0,0,0.05,24.95,0)" xlink:href="#ad"/><use transform="matrix(0.05,0,0,0.05,34.95,0)" xlink:href="#as"/><use transform="matrix(0.05,0,0,0.05,40.900000000000006,0)" xlink:href="#ax"/><use transform="matrix(0.05,0,0,0.05,50.900000000000006,0)" xlink:href="#aw"/></g><path d="M143 0L79-87 56-68V0H24v-261h32v163l83-92h37l-77 82L181 0h-38" id="ay"/><g id="p"><use transform="matrix(0.05,0,0,0.05,0,0)" xlink:href="#an"/><use transform="matrix(0.05,0,0,0.05,9,0)" xlink:href="#ao"/><use transform="matrix(0.05,0,0,0.05,19,0)" xlink:href="#ap"/><use transform="matrix(0.05,0,0,0.05,29,0)" xlink:href="#an"/><use transform="matrix(0.05,0,0,0.05,38,0)" xlink:href="#ay"/></g><g id="q"><use transform="matrix(0.05,0,0,0.05,0,0)" xlink:href="#am"/><use transform="matrix(0.05,0,0,0.05,10,0)" xlink:href="#an"/><use transform="matrix(0.05,0,0,0.05,19,0)" xlink:href="#an"/><use transform="matrix(0.05,0,0,0.05,28,0)" xlink:href="#ad"/><use transform="matrix(0.05,0,0,0.05,38,0)" xlink:href="#ah"/><use transform="matrix(0.05,0,0,0.05,48,0)" xlink:href="#ag"/><use transform="matrix(0.05,0,0,0.05,58,0)" xlink:href="#ai"/></g><path fill="#333" d="M15-91v-56l181-69v40L49-119l147 57v40" id="az"/><path fill="#333" d="M25-224v-37h50v37H25zM25 0v-190h50V0H25" id="aA"/><path fill="#333" d="M135-194c87-1 58 113 63 194h-50c-7-57 23-157-34-157-59 0-34 97-39 157H25l-1-190h47c2 12-1 28 3 38 12-26 28-41 61-42" id="aB"/><path fill="#333" d="M190-63c-7 42-38 67-86 67-59 0-84-38-90-98-12-110 154-137 174-36l-49 2c-2-19-15-32-35-32-30 0-35 28-38 64-6 74 65 87 74 30" id="aC"/><path fill="#333" d="M25 0v-261h50V0H25" id="aD"/><path fill="#333" d="M85 4C-2 5 27-109 22-190h50c7 57-23 150 33 157 60-5 35-97 40-157h50l1 190h-47c-2-12 1-28-3-38-12 25-28 42-61 42" id="aE"/><path fill="#333" d="M88-194c31-1 46 15 58 34l-1-101h50l1 261h-48c-2-10 0-23-3-31C134-8 116 4 84 4 32 4 16-41 15-95c0-56 19-97 73-99zm17 164c33 0 40-30 41-66 1-37-9-64-41-64s-38 30-39 65c0 43 13 65 39 65" id="aF"/><path fill="#333" d="M185-48c-13 30-37 53-82 52C43 2 14-33 14-96s30-98 90-98c62 0 83 45 84 108H66c0 31 8 55 39 56 18 0 30-7 34-22zm-45-69c5-46-57-63-70-21-2 6-4 13-4 21h74" id="aG"/><path fill="#333" d="M15-22v-40l146-57-146-57v-40l181 69v56" id="aH"/><g id="r"><use transform="matrix(0.04938271604938272,0,0,0.04938271604938272,0,0)" xlink:href="#az"/><use transform="matrix(0.04938271604938272,0,0,0.04938271604938272,10.370370370370372,0)" xlink:href="#az"/><use transform="matrix(0.04938271604938272,0,0,0.04938271604938272,20.740740740740744,0)" xlink:href="#aA"/><use transform="matrix(0.04938271604938272,0,0,0.04938271604938272,25.679012345679016,0)" xlink:href="#aB"/><use transform="matrix(0.04938271604938272,0,0,0.04938271604938272,36.49382716049383,0)" xlink:href="#aC"/><use transform="matrix(0.04938271604938272,0,0,0.04938271604938272,46.370370370370374,0)" xlink:href="#aD"/><use transform="matrix(0.04938271604938272,0,0,0.04938271604938272,51.308641975308646,0)" xlink:href="#aE"/><use transform="matrix(0.04938271604938272,0,0,0.04938271604938272,62.12345679012346,0)" xlink:href="#aF"/><use transform="matrix(0.04938271604938272,0,0,0.04938271604938272,72.93827160493828,0)" xlink:href="#aG"/><use transform="matrix(0.04938271604938272,0,0,0.04938271604938272,82.81481481481482,0)" xlink:href="#aH"/><use transform="matrix(0.04938271604938272,0,0,0.04938271604938272,93.18518518518519,0)" xlink:href="#aH"/></g><path d="M30-248c118-7 216 8 213 122C240-48 200 0 122 0H30v-248zM63-27c89 8 146-16 146-99s-60-101-146-95v194" id="aI"/><path d="M24 0v-261h32V0H24" id="aJ"/><path d="M179-190L93 31C79 59 56 82 12 73V49c39 6 53-20 64-50L1-190h34L92-34l54-156h33" id="aK"/><g id="s"><use transform="matrix(0.05,0,0,0.05,0,0)" xlink:href="#aI"/><use transform="matrix(0.05,0,0,0.05,12.950000000000001,0)" xlink:href="#af"/><use transform="matrix(0.05,0,0,0.05,16.900000000000002,0)" xlink:href="#aw"/><use transform="matrix(0.05,0,0,0.05,25.900000000000002,0)" xlink:href="#ak"/><use transform="matrix(0.05,0,0,0.05,35.900000000000006,0)" xlink:href="#aJ"/><use transform="matrix(0.05,0,0,0.05,39.85000000000001,0)" xlink:href="#am"/><use transform="matrix(0.05,0,0,0.05,49.85000000000001,0)" xlink:href="#aK"/></g><path d="M30 0v-248h187v28H63v79h144v27H63v87h162V0H30" id="aL"/><g id="t"><use transform="matrix(0.05,0,0,0.05,0,0)" xlink:href="#aL"/><use transform="matrix(0.05,0,0,0.05,12,0)" xlink:href="#as"/><use transform="matrix(0.05,0,0,0.05,17.95,0)" xlink:href="#as"/><use transform="matrix(0.05,0,0,0.05,23.9,0)" xlink:href="#ad"/><use transform="matrix(0.05,0,0,0.05,33.9,0)" xlink:href="#as"/></g><path fill="#333" d="M144 0l-44-69L55 0H2l70-98-66-92h53l41 62 40-62h54l-67 91 71 99h-54" id="aM"/><path fill="#333" d="M115-3C79 11 28 4 28-45v-112H4v-33h27l15-45h31v45h36v33H77v99c-1 23 16 31 38 25v30" id="aN"/><g id="u"><use transform="matrix(0.04938271604938272,0,0,0.04938271604938272,0,0)" xlink:href="#az"/><use transform="matrix(0.04938271604938272,0,0,0.04938271604938272,10.370370370370372,0)" xlink:href="#az"/><use transform="matrix(0.04938271604938272,0,0,0.04938271604938272,20.740740740740744,0)" xlink:href="#aG"/><use transform="matrix(0.04938271604938272,0,0,0.04938271604938272,30.617283950617285,0)" xlink:href="#aM"/><use transform="matrix(0.04938271604938272,0,0,0.04938271604938272,40.49382716049384,0)" xlink:href="#aN"/><use transform="matrix(0.04938271604938272,0,0,0.04938271604938272,46.37037037037038,0)" xlink:href="#aG"/><use transform="matrix(0.04938271604938272,0,0,0.04938271604938272,56.24691358024693,0)" xlink:href="#aB"/><use transform="matrix(0.04938271604938272,0,0,0.04938271604938272,67.06172839506173,0)" xlink:href="#aF"/><use transform="matrix(0.04938271604938272,0,0,0.04938271604938272,77.87654320987654,0)" xlink:href="#aH"/><use transform="matrix(0.04938271604938272,0,0,0.04938271604938272,88.24691358024691,0)" xlink:href="#aH"/></g><path d="M101-234c-31-9-42 10-38 44h38v23H63V0H32v-167H5v-23h27c-7-52 17-82 69-68v24" id="aO"/><g id="v"><use transform="matrix(0.05,0,0,0.05,0,0)" xlink:href="#af"/><use transform="matrix(0.05,0,0,0.05,3.95,0)" xlink:href="#aO"/></g><g id="w"><use transform="matrix(0.05,0,0,0.05,0,0)" xlink:href="#am"/><use transform="matrix(0.05,0,0,0.05,10,0)" xlink:href="#an"/><use transform="matrix(0.05,0,0,0.05,19,0)" xlink:href="#an"/><use transform="matrix(0.05,0,0,0.05,28,0)" xlink:href="#ad"/><use transform="matrix(0.05,0,0,0.05,38,0)" xlink:href="#ah"/><use transform="matrix(0.05,0,0,0.05,48,0)" xlink:href="#ag"/><use transform="matrix(0.05,0,0,0.05,58,0)" xlink:href="#ai"/></g><g id="x"><use transform="matrix(0.05,0,0,0.05,0,0)" xlink:href="#af"/><use transform="matrix(0.05,0,0,0.05,3.95,0)" xlink:href="#aw"/></g><path d="M141 0L90-78 38 0H4l68-98-65-92h35l48 74 47-74h35l-64 92 68 98h-35" id="aP"/><g id="y"><use transform="matrix(0.05,0,0,0.05,0,0)" xlink:href="#ap"/><use transform="matrix(0.05,0,0,0.05,10,0)" xlink:href="#aP"/><use transform="matrix(0.05,0,0,0.05,19,0)" xlink:href="#ap"/><use transform="matrix(0.05,0,0,0.05,29,0)" xlink:href="#an"/><use transform="matrix(0.05,0,0,0.05,38,0)" xlink:href="#ai"/><use transform="matrix(0.05,0,0,0.05,43,0)" xlink:href="#ai"/></g><g id="z"><use transform="matrix(0.05,0,0,0.05,0,0)" xlink:href="#au"/><use transform="matrix(0.05,0,0,0.05,11.65,0)" xlink:href="#af"/><use transform="matrix(0.05,0,0,0.05,15.600000000000001,0)" xlink:href="#ap"/><use transform="matrix(0.05,0,0,0.05,25.6,0)" xlink:href="#av"/></g><g id="A"><use transform="matrix(0.05,0,0,0.05,0,0)" xlink:href="#aw"/><use transform="matrix(0.05,0,0,0.05,9,0)" xlink:href="#ai"/><use transform="matrix(0.05,0,0,0.05,14,0)" xlink:href="#ah"/><use transform="matrix(0.05,0,0,0.05,24,0)" xlink:href="#ax"/><use transform="matrix(0.05,0,0,0.05,34,0)" xlink:href="#ap"/><use transform="matrix(0.05,0,0,0.05,44,0)" xlink:href="#ag"/><use transform="matrix(0.05,0,0,0.05,54,0)" xlink:href="#ai"/></g><g id="B"><use transform="matrix(0.05,0,0,0.05,0,0)" xlink:href="#ak"/><use transform="matrix(0.05,0,0,0.05,10,0)" xlink:href="#aJ"/><use transform="matrix(0.05,0,0,0.05,13.949999999999998,0)" xlink:href="#am"/><use transform="matrix(0.05,0,0,0.05,23.95,0)" xlink:href="#ag"/></g><g id="C"><use transform="matrix(0.05,0,0,0.05,0,0)" xlink:href="#aL"/><use transform="matrix(0.05,0,0,0.05,12,0)" xlink:href="#ax"/><use transform="matrix(0.05,0,0,0.05,22,0)" xlink:href="#af"/><use transform="matrix(0.05,0,0,0.05,25.950000000000003,0)" xlink:href="#ai"/></g><g id="D"><use transform="matrix(0.05,0,0,0.05,0,0)" xlink:href="#ak"/><use transform="matrix(0.05,0,0,0.05,10,0)" xlink:href="#as"/><use transform="matrix(0.05,0,0,0.05,15.949999999999998,0)" xlink:href="#ad"/><use transform="matrix(0.05,0,0,0.05,25.950000000000003,0)" xlink:href="#aO"/><use transform="matrix(0.05,0,0,0.05,30.950000000000003,0)" xlink:href="#af"/><use transform="matrix(0.05,0,0,0.05,34.9,0)" xlink:href="#aJ"/><use transform="matrix(0.05,0,0,0.05,38.85,0)" xlink:href="#ap"/></g><g id="E"><use transform="matrix(0.05,0,0,0.05,0,0)" xlink:href="#au"/><use transform="matrix(0.05,0,0,0.05,10.65,0)" xlink:href="#am"/><use transform="matrix(0.05,0,0,0.05,20.65,0)" xlink:href="#an"/><use transform="matrix(0.05,0,0,0.05,29.649999999999995,0)" xlink:href="#am"/><use transform="matrix(0.05,0,0,0.05,39.65,0)" xlink:href="#ai"/><use transform="matrix(0.05,0,0,0.05,44.65,0)" xlink:href="#af"/><use transform="matrix(0.05,0,0,0.05,48.6,0)" xlink:href="#ad"/><use transform="matrix(0.05,0,0,0.05,58.6,0)" xlink:href="#ag"/></g><path d="M145-31C134-9 116 4 85 4 32 4 16-35 15-94c0-59 17-99 70-100 32-1 48 14 60 33 0-11-1-24 2-32h30l-1 268h-32zM93-21c41 0 51-33 51-76s-8-73-50-73c-40 0-46 35-46 75s5 74 45 74" id="aQ"/><g id="F"><use transform="matrix(0.05,0,0,0.05,0,0)" xlink:href="#as"/><use transform="matrix(0.05,0,0,0.05,5.95,0)" xlink:href="#ap"/><use transform="matrix(0.05,0,0,0.05,15.949999999999998,0)" xlink:href="#aQ"/><use transform="matrix(0.05,0,0,0.05,25.950000000000003,0)" xlink:href="#ah"/><use transform="matrix(0.05,0,0,0.05,35.95,0)" xlink:href="#ap"/><use transform="matrix(0.05,0,0,0.05,45.95,0)" xlink:href="#aw"/><use transform="matrix(0.05,0,0,0.05,54.95,0)" xlink:href="#ai"/></g><g id="G"><use transform="matrix(0.05,0,0,0.05,0,0)" xlink:href="#aI"/><use transform="matrix(0.05,0,0,0.05,12.950000000000001,0)" xlink:href="#ad"/><use transform="matrix(0.05,0,0,0.05,22.950000000000003,0)" xlink:href="#ag"/><use transform="matrix(0.05,0,0,0.05,32.95,0)" xlink:href="#am"/><use transform="matrix(0.05,0,0,0.05,42.95,0)" xlink:href="#ai"/><use transform="matrix(0.05,0,0,0.05,47.95,0)" xlink:href="#af"/><use transform="matrix(0.05,0,0,0.05,51.900000000000006,0)" xlink:href="#ad"/><use transform="matrix(0.05,0,0,0.05,61.900000000000006,0)" xlink:href="#ag"/></g><g id="H"><use transform="matrix(0.05,0,0,0.05,0,0)" xlink:href="#aj"/><use transform="matrix(0.05,0,0,0.05,12,0)" xlink:href="#ah"/><use transform="matrix(0.05,0,0,0.05,22,0)" xlink:href="#ae"/><use transform="matrix(0.05,0,0,0.05,32,0)" xlink:href="#ae"/><use transform="matrix(0.05,0,0,0.05,42,0)" xlink:href="#ap"/><use transform="matrix(0.05,0,0,0.05,52,0)" xlink:href="#aw"/><use transform="matrix(0.05,0,0,0.05,61,0)" xlink:href="#ai"/><use transform="matrix(0.05,0,0,0.05,66,0)" xlink:href="#af"/><use transform="matrix(0.05,0,0,0.05,69.95,0)" xlink:href="#ad"/><use transform="matrix(0.05,0,0,0.05,79.95,0)" xlink:href="#ag"/></g><g id="I"><use transform="matrix(0.05,0,0,0.05,0,0)" xlink:href="#aj"/><use transform="matrix(0.05,0,0,0.05,12,0)" xlink:href="#ao"/><use transform="matrix(0.05,0,0,0.05,22,0)" xlink:href="#ad"/><use transform="matrix(0.05,0,0,0.05,32,0)" xlink:href="#av"/></g><g id="J"><use transform="matrix(0.05,0,0,0.05,0,0)" xlink:href="#ag"/><use transform="matrix(0.05,0,0,0.05,10,0)" xlink:href="#ad"/><use transform="matrix(0.05,0,0,0.05,20,0)" xlink:href="#ai"/><use transform="matrix(0.05,0,0,0.05,25,0)" xlink:href="#af"/><use transform="matrix(0.05,0,0,0.05,28.950000000000003,0)" xlink:href="#aO"/><use transform="matrix(0.05,0,0,0.05,33.95,0)" xlink:href="#af"/><use transform="matrix(0.05,0,0,0.05,37.900000000000006,0)" xlink:href="#an"/><use transform="matrix(0.05,0,0,0.05,46.900000000000006,0)" xlink:href="#am"/><use transform="matrix(0.05,0,0,0.05,56.900000000000006,0)" xlink:href="#ai"/><use transform="matrix(0.05,0,0,0.05,61.900000000000006,0)" xlink:href="#af"/><use transform="matrix(0.05,0,0,0.05,65.85000000000001,0)" xlink:href="#ad"/><use transform="matrix(0.05,0,0,0.05,75.85000000000001,0)" xlink:href="#ag"/><use transform="matrix(0.05,0,0,0.05,85.85000000000001,0)" xlink:href="#aw"/></g></defs></g></svg>